G04*
G04 #@! TF.GenerationSoftware,Altium Limited,Altium Designer,21.6.1 (37)*
G04*
G04 Layer_Color=16711935*
%FSLAX42Y42*%
%MOMM*%
G71*
G04*
G04 #@! TF.SameCoordinates,B70E1F55-CC3E-4890-BAB1-BD4C742E8824*
G04*
G04*
G04 #@! TF.FilePolarity,Negative*
G04*
G01*
G75*
%ADD10C,0.20*%
%ADD47R,1.05X1.05*%
%ADD49R,1.05X1.05*%
%ADD54O,0.80X2.40*%
G04:AMPARAMS|DCode=55|XSize=2.6mm|YSize=2.6mm|CornerRadius=0.4mm|HoleSize=0mm|Usage=FLASHONLY|Rotation=90.000|XOffset=0mm|YOffset=0mm|HoleType=Round|Shape=RoundedRectangle|*
%AMROUNDEDRECTD55*
21,1,2.60,1.80,0,0,90.0*
21,1,1.80,2.60,0,0,90.0*
1,1,0.80,0.90,0.90*
1,1,0.80,0.90,-0.90*
1,1,0.80,-0.90,-0.90*
1,1,0.80,-0.90,0.90*
%
%ADD55ROUNDEDRECTD55*%
G04:AMPARAMS|DCode=56|XSize=1.2mm|YSize=1.8mm|CornerRadius=0.35mm|HoleSize=0mm|Usage=FLASHONLY|Rotation=90.000|XOffset=0mm|YOffset=0mm|HoleType=Round|Shape=RoundedRectangle|*
%AMROUNDEDRECTD56*
21,1,1.20,1.10,0,0,90.0*
21,1,0.50,1.80,0,0,90.0*
1,1,0.70,0.55,0.25*
1,1,0.70,0.55,-0.25*
1,1,0.70,-0.55,-0.25*
1,1,0.70,-0.55,0.25*
%
%ADD56ROUNDEDRECTD56*%
%ADD57R,1.20X1.45*%
%ADD58O,2.40X0.80*%
%ADD61R,1.45X1.20*%
%ADD63R,1.20X1.80*%
%ADD69R,1.90X2.70*%
%ADD70R,1.11X1.42*%
%ADD72R,2.70X1.90*%
%ADD73C,2.20*%
%ADD74R,2.20X2.20*%
%ADD75C,1.80*%
%ADD76C,2.00*%
%ADD77C,2.70*%
%ADD78O,1.90X1.20*%
%ADD79P,2.93X8X292.5*%
%ADD80C,1.60*%
%ADD81P,1.74X8X202.5*%
%ADD82P,1.74X8X292.5*%
%ADD83C,3.70*%
%ADD84C,2.30*%
%ADD85R,2.30X2.30*%
%ADD86R,2.30X2.30*%
%ADD87C,1.70*%
%ADD88C,2.40*%
%ADD89C,0.90*%
%ADD90C,6.20*%
G04:AMPARAMS|DCode=91|XSize=1.73mm|YSize=1.73mm|CornerRadius=0.48mm|HoleSize=0mm|Usage=FLASHONLY|Rotation=90.000|XOffset=0mm|YOffset=0mm|HoleType=Round|Shape=RoundedRectangle|*
%AMROUNDEDRECTD91*
21,1,1.73,0.76,0,0,90.0*
21,1,0.76,1.73,0,0,90.0*
1,1,0.97,0.38,0.38*
1,1,0.97,0.38,-0.38*
1,1,0.97,-0.38,-0.38*
1,1,0.97,-0.38,0.38*
%
%ADD91ROUNDEDRECTD91*%
%ADD92C,3.20*%
%ADD93R,3.20X3.20*%
%ADD94C,4.20*%
%ADD95P,2.38X8X22.5*%
%ADD96C,0.20*%
%ADD97R,1.80X1.80*%
G04:AMPARAMS|DCode=98|XSize=4.2mm|YSize=4.2mm|CornerRadius=1.1mm|HoleSize=0mm|Usage=FLASHONLY|Rotation=0.000|XOffset=0mm|YOffset=0mm|HoleType=Round|Shape=RoundedRectangle|*
%AMROUNDEDRECTD98*
21,1,4.20,2.00,0,0,0.0*
21,1,2.00,4.20,0,0,0.0*
1,1,2.20,1.00,-1.00*
1,1,2.20,-1.00,-1.00*
1,1,2.20,-1.00,1.00*
1,1,2.20,1.00,1.00*
%
%ADD98ROUNDEDRECTD98*%
%ADD99C,1.72*%
G04:AMPARAMS|DCode=100|XSize=2.2mm|YSize=2.2mm|CornerRadius=0.6mm|HoleSize=0mm|Usage=FLASHONLY|Rotation=0.000|XOffset=0mm|YOffset=0mm|HoleType=Round|Shape=RoundedRectangle|*
%AMROUNDEDRECTD100*
21,1,2.20,1.00,0,0,0.0*
21,1,1.00,2.20,0,0,0.0*
1,1,1.20,0.50,-0.50*
1,1,1.20,-0.50,-0.50*
1,1,1.20,-0.50,0.50*
1,1,1.20,0.50,0.50*
%
%ADD100ROUNDEDRECTD100*%
G04:AMPARAMS|DCode=101|XSize=2.2mm|YSize=2.2mm|CornerRadius=0.6mm|HoleSize=0mm|Usage=FLASHONLY|Rotation=90.000|XOffset=0mm|YOffset=0mm|HoleType=Round|Shape=RoundedRectangle|*
%AMROUNDEDRECTD101*
21,1,2.20,1.00,0,0,90.0*
21,1,1.00,2.20,0,0,90.0*
1,1,1.20,0.50,0.50*
1,1,1.20,0.50,-0.50*
1,1,1.20,-0.50,-0.50*
1,1,1.20,-0.50,0.50*
%
%ADD101ROUNDEDRECTD101*%
%ADD102P,3.52X8X202.5*%
%ADD103R,1.80X1.80*%
%ADD104C,3.25*%
%ADD105P,2.93X8X22.5*%
%ADD106C,1.47*%
%ADD107C,0.80*%
%ADD109C,2.00*%
%ADD110C,0.50*%
%ADD112C,2.50*%
G04:AMPARAMS|DCode=165|XSize=1.25mm|YSize=1.95mm|CornerRadius=0.36mm|HoleSize=0mm|Usage=FLASHONLY|Rotation=90.000|XOffset=0mm|YOffset=0mm|HoleType=Round|Shape=RoundedRectangle|*
%AMROUNDEDRECTD165*
21,1,1.25,1.23,0,0,90.0*
21,1,0.53,1.95,0,0,90.0*
1,1,0.73,0.61,0.26*
1,1,0.73,0.61,-0.26*
1,1,0.73,-0.61,-0.26*
1,1,0.73,-0.61,0.26*
%
%ADD165ROUNDEDRECTD165*%
G04:AMPARAMS|DCode=166|XSize=1.25mm|YSize=1.95mm|CornerRadius=0.36mm|HoleSize=0mm|Usage=FLASHONLY|Rotation=90.000|XOffset=0mm|YOffset=0mm|HoleType=Round|Shape=RoundedRectangle|*
%AMROUNDEDRECTD166*
21,1,1.25,1.23,0,0,90.0*
21,1,0.53,1.95,0,0,90.0*
1,1,0.73,0.61,0.26*
1,1,0.73,0.61,-0.26*
1,1,0.73,-0.61,-0.26*
1,1,0.73,-0.61,0.26*
%
%ADD166ROUNDEDRECTD166*%
G04:AMPARAMS|DCode=167|XSize=3.6mm|YSize=1.95mm|CornerRadius=0.54mm|HoleSize=0mm|Usage=FLASHONLY|Rotation=90.000|XOffset=0mm|YOffset=0mm|HoleType=Round|Shape=RoundedRectangle|*
%AMROUNDEDRECTD167*
21,1,3.60,0.88,0,0,90.0*
21,1,2.53,1.95,0,0,90.0*
1,1,1.08,0.44,1.26*
1,1,1.08,0.44,-1.26*
1,1,1.08,-0.44,-1.26*
1,1,1.08,-0.44,1.26*
%
%ADD167ROUNDEDRECTD167*%
%ADD168R,3.40X5.20*%
%ADD169R,1.80X3.40*%
%ADD170R,3.40X1.80*%
%ADD171R,1.30X2.80*%
%ADD172R,2.60X1.25*%
%ADD173R,9.10X10.85*%
%ADD174R,3.50X1.20*%
%ADD175R,8.80X10.70*%
%ADD176R,3.70X1.30*%
D10*
X10750Y-50D02*
X13450D01*
X10650Y50D02*
X13550D01*
X10550Y150D02*
X13650D01*
D47*
X5367Y1720D02*
D03*
X5227D02*
D03*
X5367Y1880D02*
D03*
X5227D02*
D03*
X5367Y1570D02*
D03*
X5227D02*
D03*
X5367Y1400D02*
D03*
X5227D02*
D03*
X2148Y1612D02*
D03*
X2008D02*
D03*
X12300Y4750D02*
D03*
X12440D02*
D03*
X8680Y360D02*
D03*
X8540D02*
D03*
X2010Y3428D02*
D03*
X2150D02*
D03*
X1858D02*
D03*
X1717D02*
D03*
X1843Y1612D02*
D03*
X1703D02*
D03*
X8538Y512D02*
D03*
X8678D02*
D03*
X8540Y720D02*
D03*
X8680D02*
D03*
D49*
X5580Y-730D02*
D03*
Y-870D02*
D03*
X5608Y1242D02*
D03*
Y1382D02*
D03*
X8200Y1575D02*
D03*
Y1435D02*
D03*
X8010Y1050D02*
D03*
Y1190D02*
D03*
X8907Y1185D02*
D03*
Y1325D02*
D03*
X12020Y4750D02*
D03*
Y4610D02*
D03*
X12690Y5190D02*
D03*
Y5330D02*
D03*
X12170Y4610D02*
D03*
Y4750D02*
D03*
X10210Y-320D02*
D03*
Y-460D02*
D03*
Y-960D02*
D03*
Y-1100D02*
D03*
X9250Y1190D02*
D03*
Y1050D02*
D03*
D54*
X6940Y7310D02*
D03*
X6814D02*
D03*
X6686D02*
D03*
X6560D02*
D03*
X6940Y7790D02*
D03*
X6814D02*
D03*
X6686D02*
D03*
X6560D02*
D03*
D55*
X6888Y5417D02*
D03*
Y5977D02*
D03*
D56*
X7238Y5428D02*
D03*
Y5728D02*
D03*
D57*
X3310Y5300D02*
D03*
X3110D02*
D03*
X6220Y8890D02*
D03*
X6020D02*
D03*
X6230Y7500D02*
D03*
X6030D02*
D03*
D58*
X8678Y1313D02*
D03*
Y1186D02*
D03*
Y1059D02*
D03*
Y932D02*
D03*
X8197Y1313D02*
D03*
Y1186D02*
D03*
Y1059D02*
D03*
Y932D02*
D03*
D61*
X4840Y2830D02*
D03*
Y3030D02*
D03*
X4550Y2830D02*
D03*
Y3030D02*
D03*
X3390Y1180D02*
D03*
Y1380D02*
D03*
X13110Y4950D02*
D03*
Y4750D02*
D03*
X13280Y4950D02*
D03*
Y4750D02*
D03*
X6580Y6840D02*
D03*
Y6640D02*
D03*
X5780Y8540D02*
D03*
Y8740D02*
D03*
X6900Y6840D02*
D03*
Y6640D02*
D03*
X5780Y6920D02*
D03*
Y7120D02*
D03*
D63*
X980Y4628D02*
D03*
X1280D02*
D03*
Y2802D02*
D03*
X980D02*
D03*
D69*
X11140Y1470D02*
D03*
X11540D02*
D03*
X12840D02*
D03*
X13240D02*
D03*
X1790Y8020D02*
D03*
X2190D02*
D03*
X1790Y8530D02*
D03*
X2190D02*
D03*
X2555Y4950D02*
D03*
X2155D02*
D03*
X1660Y3108D02*
D03*
X2060D02*
D03*
D70*
X12610Y4750D02*
D03*
X12938D02*
D03*
X12610Y4950D02*
D03*
X12938D02*
D03*
D72*
X7660Y7340D02*
D03*
Y7740D02*
D03*
X1700Y6600D02*
D03*
Y7000D02*
D03*
X2100D02*
D03*
Y6600D02*
D03*
X7220Y7340D02*
D03*
Y7740D02*
D03*
D73*
X5232Y5288D02*
D03*
X5486D02*
D03*
X5994D02*
D03*
X5740D02*
D03*
X4978D02*
D03*
X5211Y-1220D02*
D03*
X4957D02*
D03*
X4703D02*
D03*
X4449D02*
D03*
X5960D02*
D03*
X6214D02*
D03*
X5706D02*
D03*
X7357Y464D02*
D03*
Y718D02*
D03*
Y972D02*
D03*
Y1226D02*
D03*
Y1480D02*
D03*
X10220Y-1302D02*
D03*
Y222D02*
D03*
X4728Y6330D02*
D03*
X3712D02*
D03*
X3199Y-1220D02*
D03*
X3453D02*
D03*
X3707D02*
D03*
X3961D02*
D03*
X7715Y2501D02*
D03*
Y2756D02*
D03*
Y3009D02*
D03*
Y3263D02*
D03*
X14649Y9775D02*
D03*
X16300D02*
D03*
X17450D02*
D03*
X19101D02*
D03*
X419Y9900D02*
D03*
X1181D02*
D03*
X1180Y10469D02*
D03*
Y11231D02*
D03*
X7650Y9620D02*
D03*
Y7969D02*
D03*
X19012Y-920D02*
D03*
X17488D02*
D03*
X18300Y2710D02*
D03*
X18554D02*
D03*
X14980D02*
D03*
X15234D02*
D03*
X17190D02*
D03*
X17444D02*
D03*
X16090D02*
D03*
X16344D02*
D03*
X6953Y-1288D02*
D03*
Y-1034D02*
D03*
X7572Y-1288D02*
D03*
Y-1034D02*
D03*
X18088Y1800D02*
D03*
X19612D02*
D03*
X4677Y11732D02*
D03*
Y10208D02*
D03*
X4047Y11732D02*
D03*
Y10208D02*
D03*
X7467Y11812D02*
D03*
Y10288D02*
D03*
D74*
X6248Y5288D02*
D03*
D75*
X5820Y-680D02*
D03*
Y80D02*
D03*
X8275Y6250D02*
D03*
X9530Y8780D02*
D03*
X9530Y6980D02*
D03*
D76*
X10740Y1160D02*
D03*
X11940D02*
D03*
X12440D02*
D03*
X13640D02*
D03*
D77*
X11340Y960D02*
D03*
X11940Y2380D02*
D03*
X10740D02*
D03*
X11390Y-985D02*
D03*
X13080D02*
D03*
X18599Y11800D02*
D03*
X15851D02*
D03*
X19890Y8065D02*
D03*
Y5815D02*
D03*
X18702Y8736D02*
D03*
X18194D02*
D03*
X17686D02*
D03*
X15654D02*
D03*
X15146D02*
D03*
X14638D02*
D03*
Y5180D02*
D03*
X15146D02*
D03*
X15654D02*
D03*
X16162D02*
D03*
X17178D02*
D03*
X17686D02*
D03*
X18194D02*
D03*
X18702D02*
D03*
X13040Y960D02*
D03*
X13640Y2380D02*
D03*
X12440D02*
D03*
X13275Y6903D02*
D03*
Y9650D02*
D03*
X14651Y10625D02*
D03*
X20045Y3550D02*
D03*
X17399Y10625D02*
D03*
D78*
X4267Y2327D02*
D03*
Y2200D02*
D03*
Y2073D02*
D03*
X3742Y2322D02*
D03*
Y2195D02*
D03*
Y2068D02*
D03*
D79*
X11390Y-235D02*
D03*
X13080D02*
D03*
D80*
X265Y5110D02*
D03*
X275Y7410D02*
D03*
X260Y5810D02*
D03*
X1245Y7410D02*
D03*
X7550Y6645D02*
D03*
D81*
X515Y5110D02*
D03*
X525Y7410D02*
D03*
X510Y5810D02*
D03*
X995Y7410D02*
D03*
D82*
X7550Y6895D02*
D03*
D83*
X10750Y3050D02*
D03*
Y3550D02*
D03*
X11450D02*
D03*
Y3050D02*
D03*
X12450Y3550D02*
D03*
Y3050D02*
D03*
X13150D02*
D03*
Y3550D02*
D03*
D84*
X420Y10605D02*
D03*
X280Y6740D02*
D03*
X4210Y5075D02*
D03*
X4560D02*
D03*
D85*
X420Y10955D02*
D03*
D86*
X630Y6740D02*
D03*
X3860Y5075D02*
D03*
D87*
X1957Y11900D02*
D03*
Y11138D02*
D03*
X7027Y11902D02*
D03*
Y11140D02*
D03*
X1957Y10910D02*
D03*
Y10148D02*
D03*
X7027Y10910D02*
D03*
Y10148D02*
D03*
X6757Y10826D02*
D03*
Y10318D02*
D03*
Y11736D02*
D03*
Y11228D02*
D03*
X1687Y11744D02*
D03*
Y11236D02*
D03*
X1697Y10834D02*
D03*
Y10326D02*
D03*
D88*
X2267Y11530D02*
D03*
X3593D02*
D03*
X2267Y10530D02*
D03*
X3593D02*
D03*
X5135Y11530D02*
D03*
X6460D02*
D03*
X5135Y10530D02*
D03*
X6460D02*
D03*
X2440Y7009D02*
D03*
Y7517D02*
D03*
Y8025D02*
D03*
Y8533D02*
D03*
Y9041D02*
D03*
X3710D02*
D03*
Y8533D02*
D03*
Y7517D02*
D03*
Y7009D02*
D03*
D89*
X290Y11880D02*
D03*
X380Y11800D02*
D03*
Y12210D02*
D03*
X300Y12120D02*
D03*
X710D02*
D03*
X620Y12200D02*
D03*
X700Y11880D02*
D03*
X620Y11790D02*
D03*
X500Y11760D02*
D03*
X740Y12000D02*
D03*
X260D02*
D03*
X500Y12240D02*
D03*
X8790Y11880D02*
D03*
X8880Y11800D02*
D03*
Y12210D02*
D03*
X8800Y12120D02*
D03*
X9210D02*
D03*
X9120Y12200D02*
D03*
X9200Y11880D02*
D03*
X9120Y11790D02*
D03*
X9000Y11760D02*
D03*
X9240Y12000D02*
D03*
X8760D02*
D03*
X9000Y12240D02*
D03*
X19790Y11880D02*
D03*
X19880Y11800D02*
D03*
Y12210D02*
D03*
X19800Y12120D02*
D03*
X20210D02*
D03*
X20120Y12200D02*
D03*
X20200Y11880D02*
D03*
X20120Y11790D02*
D03*
X20000Y11760D02*
D03*
X20240Y12000D02*
D03*
X19760D02*
D03*
X20000Y12240D02*
D03*
X19790Y-1120D02*
D03*
X19880Y-1200D02*
D03*
Y-790D02*
D03*
X19800Y-880D02*
D03*
X20210D02*
D03*
X20120Y-800D02*
D03*
X20200Y-1120D02*
D03*
X20120Y-1210D02*
D03*
X20000Y-1240D02*
D03*
X20240Y-1000D02*
D03*
X19760D02*
D03*
X20000Y-760D02*
D03*
X8290Y-1120D02*
D03*
X8380Y-1200D02*
D03*
Y-790D02*
D03*
X8300Y-880D02*
D03*
X8710D02*
D03*
X8620Y-800D02*
D03*
X8700Y-1120D02*
D03*
X8620Y-1210D02*
D03*
X8500Y-1240D02*
D03*
X8740Y-1000D02*
D03*
X8260D02*
D03*
X8500Y-760D02*
D03*
X290Y-1120D02*
D03*
X380Y-1200D02*
D03*
Y-790D02*
D03*
X300Y-880D02*
D03*
X710D02*
D03*
X620Y-800D02*
D03*
X700Y-1120D02*
D03*
X620Y-1210D02*
D03*
X500Y-1240D02*
D03*
X740Y-1000D02*
D03*
X260D02*
D03*
X500Y-760D02*
D03*
D90*
Y12000D02*
D03*
X9000D02*
D03*
X20000D02*
D03*
Y-1000D02*
D03*
X8500D02*
D03*
X500D02*
D03*
D91*
X2517Y-968D02*
D03*
X2238Y-960D02*
D03*
D92*
X11875Y9875D02*
D03*
Y9330D02*
D03*
X18300Y4234D02*
D03*
X14980D02*
D03*
X17190D02*
D03*
X19490Y1280D02*
D03*
X18990D02*
D03*
Y-420D02*
D03*
X19490D02*
D03*
X17490Y1280D02*
D03*
X16990D02*
D03*
Y-420D02*
D03*
X17490D02*
D03*
X14100Y360D02*
D03*
Y860D02*
D03*
X15800D02*
D03*
Y360D02*
D03*
X16090Y4234D02*
D03*
X11875Y6875D02*
D03*
X8077Y10298D02*
D03*
X11875Y7420D02*
D03*
X8077Y11822D02*
D03*
Y10806D02*
D03*
Y11314D02*
D03*
D93*
X11875Y8785D02*
D03*
X11875Y6330D02*
D03*
D94*
X13025Y11675D02*
D03*
X13275Y10675D02*
D03*
X10425Y11700D02*
D03*
X10675Y10700D02*
D03*
X9845Y6875D02*
D03*
X9845Y9470D02*
D03*
D95*
X18046Y2710D02*
D03*
X14726D02*
D03*
X16936D02*
D03*
X15836D02*
D03*
D96*
X3710Y8025D02*
D03*
X17178Y8736D02*
D03*
X16670D02*
D03*
X16162D02*
D03*
X16670Y5180D02*
D03*
D97*
X8875Y6250D02*
D03*
D98*
X13850Y5725D02*
D03*
X12030Y5335D02*
D03*
D99*
X13281Y4563D02*
D03*
Y6087D02*
D03*
X12519Y5325D02*
D03*
D100*
X1202Y-593D02*
D03*
D101*
Y35D02*
D03*
D102*
X10595Y7990D02*
D03*
D103*
X9530Y9380D02*
D03*
X9530Y7580D02*
D03*
D104*
X11865Y7990D02*
D03*
D105*
X19295Y3550D02*
D03*
D106*
X7930Y-620D02*
D03*
Y-770D02*
D03*
Y-920D02*
D03*
Y-1070D02*
D03*
Y-1220D02*
D03*
Y-1370D02*
D03*
X9788Y4380D02*
D03*
X9507Y1395D02*
D03*
X8690Y5270D02*
D03*
X8550Y4800D02*
D03*
X10050Y-1350D02*
D03*
X9900D02*
D03*
X9750D02*
D03*
X9600D02*
D03*
X9450D02*
D03*
X9300D02*
D03*
X9150D02*
D03*
X5900Y5600D02*
D03*
X6100D02*
D03*
X6300D02*
D03*
X6500D02*
D03*
X3480D02*
D03*
X3330D02*
D03*
X1670Y4390D02*
D03*
X1540D02*
D03*
X1410D02*
D03*
X1660Y2630D02*
D03*
X1530D02*
D03*
X1400D02*
D03*
X1270D02*
D03*
X1280Y4390D02*
D03*
D107*
X4928Y2490D02*
D03*
X6000Y4700D02*
D03*
X4235Y4408D02*
D03*
X5712Y4472D02*
D03*
X5270Y4830D02*
D03*
X5180Y3790D02*
D03*
X5038Y3785D02*
D03*
X4822Y3583D02*
D03*
X6047Y2508D02*
D03*
X6335Y2485D02*
D03*
X6320Y2770D02*
D03*
X6135Y2767D02*
D03*
D109*
X10595Y6875D02*
X11875D01*
X11585Y5335D02*
X12030D01*
X10895D02*
X11585D01*
X10800Y5430D02*
X10895Y5335D01*
X10590Y5640D02*
X10800Y5430D01*
X10590Y5640D02*
Y5850D01*
Y9210D01*
Y9480D01*
X10710Y9600D01*
X10985Y9875D01*
X11875D01*
X16936Y3362D02*
X16948Y3350D01*
X17920D01*
X18046Y3224D01*
Y2710D02*
Y3224D01*
X16936Y2710D02*
Y4014D01*
X16162Y4788D02*
X16936Y4014D01*
X16162Y4788D02*
Y5180D01*
X15654D02*
X16162D01*
X14726Y3466D02*
X14740Y3480D01*
X14726Y2710D02*
Y3466D01*
X14638Y5180D02*
X15146D01*
X14630Y5172D02*
X14638Y5180D01*
X14630Y3480D02*
Y5172D01*
Y3480D02*
X16120D01*
X16344Y3256D01*
Y2710D02*
Y3256D01*
X17620Y2110D02*
X18150D01*
X18300Y2260D01*
Y2710D01*
X16080Y2120D02*
X16090Y2130D01*
Y2710D01*
X17190Y2130D02*
Y2710D01*
X17778Y2110D02*
X18088Y1800D01*
X15140Y2110D02*
X17778D01*
X14980Y2270D02*
X15140Y2110D01*
X14980Y2270D02*
Y2710D01*
X14980Y2710D01*
X5135Y10335D02*
Y10530D01*
X5110Y10310D02*
X5135Y10335D01*
X5008Y10208D02*
X5110Y10310D01*
X4677Y10208D02*
X5008D01*
X3712D02*
X4677D01*
X3593Y10327D02*
X3712Y10208D01*
X3593Y10327D02*
Y10530D01*
X4935Y11730D02*
X5135Y11530D01*
X3793Y11730D02*
X4935D01*
X3593Y11530D02*
X3793Y11730D01*
X2030Y10070D02*
Y10075D01*
X1957Y10148D02*
X2030Y10075D01*
X1697Y9913D02*
Y10326D01*
X2267Y10267D02*
Y10530D01*
X2070Y10070D02*
X2267Y10267D01*
X1901Y9901D02*
X2070Y10070D01*
X1180Y9901D02*
X1901D01*
X1180D02*
Y10469D01*
X419Y9900D02*
Y10604D01*
X420Y10605D01*
X1960Y11750D02*
Y11897D01*
X1957Y11900D02*
X1960Y11897D01*
X2053Y11744D02*
X2267Y11530D01*
X1687Y11744D02*
X2053D01*
X1173Y11230D02*
X1687Y11744D01*
X900Y11230D02*
X1173D01*
X540D02*
X900D01*
X530Y11220D02*
X540Y11230D01*
X420Y11110D02*
X530Y11220D01*
X420Y10955D02*
Y11110D01*
X3700Y11040D02*
X7070D01*
X1710D02*
X3700D01*
X11250Y-950D02*
X15850D01*
X9950Y-1300D02*
X19550D01*
D110*
X19300Y6800D02*
Y7900D01*
X18900Y6700D02*
Y7600D01*
X18500Y6700D02*
Y7300D01*
X18100Y6700D02*
Y7300D01*
X17700Y6700D02*
Y7300D01*
X17300Y6700D02*
Y7300D01*
X16900Y6700D02*
Y7300D01*
X16500Y6700D02*
Y7300D01*
X16100Y6700D02*
Y7300D01*
X15700Y6700D02*
Y7300D01*
X15300Y6700D02*
Y7300D01*
X14900Y6700D02*
Y7300D01*
X14500Y6700D02*
Y7500D01*
X14200Y6700D02*
Y7800D01*
X13900Y6700D02*
Y8100D01*
X13500Y6700D02*
Y8100D01*
X13100Y6700D02*
Y8100D01*
X12700Y6700D02*
Y8100D01*
X12200Y7600D02*
Y8100D01*
X20200Y7800D02*
Y11300D01*
X19900Y7500D02*
Y11500D01*
X19600Y7100D02*
Y11500D01*
X19300Y9500D02*
Y11700D01*
X19000Y9800D02*
Y12200D01*
X18700Y10100D02*
Y11500D01*
D112*
X9490Y-710D02*
Y540D01*
X9700Y750D01*
X10600D01*
X11130D01*
X11340Y960D01*
X13190Y540D02*
X14090D01*
X13040Y690D02*
X13190Y540D01*
X13040Y690D02*
Y960D01*
X14100Y360D02*
Y860D01*
X13505Y-235D02*
X14100Y360D01*
X13080Y-235D02*
X13505D01*
X10677D02*
X13080D01*
X10220Y222D02*
X10677Y-235D01*
X16580Y-420D02*
X17490D01*
X15800Y360D02*
X16580Y-420D01*
X15800Y360D02*
Y860D01*
X18990Y1280D02*
X19710D01*
X20045Y1615D01*
Y3550D01*
Y4655D01*
X19520Y5180D02*
X20045Y4655D01*
X17178Y5180D02*
X19520D01*
X18088Y1800D02*
X18258Y1630D01*
X16970Y1270D02*
X17940D01*
X19295Y2625D01*
Y3550D01*
X17740Y12310D02*
X18230D01*
X18599Y11942D01*
Y11800D02*
Y11942D01*
X10425Y11700D02*
X13000D01*
X13020Y11680D02*
X13025Y11675D01*
X13660Y12310D01*
X17740D01*
X12740Y9650D02*
X13275D01*
X12640Y9550D02*
X12740Y9650D01*
X12420Y9330D02*
X12640Y9550D01*
X11875Y9330D02*
X12420D01*
X14649Y9775D02*
Y10622D01*
X13275Y9650D02*
Y10675D01*
X14090Y10620D02*
X14100Y10630D01*
X9745Y10625D02*
X14651D01*
X9680Y10560D02*
X9745Y10625D01*
X9230Y10110D02*
X9680Y10560D01*
X8010Y10110D02*
X9230D01*
X7027Y10148D02*
Y10223D01*
X6460Y10530D02*
X6710Y10280D01*
X6740D01*
X7459D01*
X7467Y10288D01*
Y10597D01*
X7540Y10670D01*
X7676Y10806D01*
X8077D01*
X7467Y11683D02*
Y11812D01*
Y11683D02*
X7470Y11680D01*
Y11530D02*
Y11680D01*
Y11530D02*
X7490Y11510D01*
X7686Y11314D01*
X8077D01*
X7020Y11800D02*
Y11895D01*
X7027Y11902D01*
X6742Y11812D02*
X7467D01*
X6460Y11530D02*
X6742Y11812D01*
D165*
X5060Y2800D02*
D03*
D166*
X5060Y3030D02*
D03*
Y3260D02*
D03*
D167*
X5720Y3030D02*
D03*
D168*
X3200Y2273D02*
D03*
X2080D02*
D03*
X960Y5790D02*
D03*
X2080D02*
D03*
X340Y8500D02*
D03*
X1460D02*
D03*
X2080Y4108D02*
D03*
X3200D02*
D03*
D169*
X3365Y4965D02*
D03*
X2805D02*
D03*
D170*
X3080Y1510D02*
D03*
Y950D02*
D03*
D171*
X7035Y8180D02*
D03*
X6685D02*
D03*
X7035Y8510D02*
D03*
X6685D02*
D03*
D172*
X5785Y8894D02*
D03*
Y8386D02*
D03*
Y7274D02*
D03*
Y6766D02*
D03*
D173*
X4750Y8640D02*
D03*
Y7020D02*
D03*
D174*
X9290Y-710D02*
D03*
Y-1330D02*
D03*
X9700Y-710D02*
D03*
Y-1330D02*
D03*
D175*
X600Y3928D02*
D03*
Y2102D02*
D03*
D176*
X1555Y3588D02*
D03*
Y3758D02*
D03*
Y3928D02*
D03*
Y4097D02*
D03*
Y4267D02*
D03*
Y1762D02*
D03*
Y1933D02*
D03*
Y2102D02*
D03*
Y2273D02*
D03*
Y2442D02*
D03*
M02*
