G04*
G04 #@! TF.GenerationSoftware,Altium Limited,Altium Designer,21.6.1 (37)*
G04*
G04 Layer_Physical_Order=2*
G04 Layer_Color=16711680*
%FSLAX42Y42*%
%MOMM*%
G71*
G04*
G04 #@! TF.SameCoordinates,B70E1F55-CC3E-4890-BAB1-BD4C742E8824*
G04*
G04*
G04 #@! TF.FilePolarity,Positive*
G04*
G01*
G75*
%ADD14C,0.60*%
%ADD16C,0.30*%
%ADD21R,0.85X0.85*%
%ADD23R,0.85X0.85*%
%ADD28O,0.60X2.20*%
G04:AMPARAMS|DCode=29|XSize=2.4mm|YSize=2.4mm|CornerRadius=0.3mm|HoleSize=0mm|Usage=FLASHONLY|Rotation=90.000|XOffset=0mm|YOffset=0mm|HoleType=Round|Shape=RoundedRectangle|*
%AMROUNDEDRECTD29*
21,1,2.40,1.80,0,0,90.0*
21,1,1.80,2.40,0,0,90.0*
1,1,0.60,0.90,0.90*
1,1,0.60,0.90,-0.90*
1,1,0.60,-0.90,-0.90*
1,1,0.60,-0.90,0.90*
%
%ADD29ROUNDEDRECTD29*%
G04:AMPARAMS|DCode=30|XSize=1mm|YSize=1.6mm|CornerRadius=0.25mm|HoleSize=0mm|Usage=FLASHONLY|Rotation=90.000|XOffset=0mm|YOffset=0mm|HoleType=Round|Shape=RoundedRectangle|*
%AMROUNDEDRECTD30*
21,1,1.00,1.10,0,0,90.0*
21,1,0.50,1.60,0,0,90.0*
1,1,0.50,0.55,0.25*
1,1,0.50,0.55,-0.25*
1,1,0.50,-0.55,-0.25*
1,1,0.50,-0.55,0.25*
%
%ADD30ROUNDEDRECTD30*%
%ADD31R,1.00X1.25*%
%ADD32O,2.20X0.60*%
%ADD35R,1.25X1.00*%
%ADD37R,1.00X1.60*%
%ADD43R,1.70X2.50*%
%ADD44R,0.91X1.22*%
%ADD46R,2.50X1.70*%
%ADD108C,1.00*%
%ADD109C,2.00*%
%ADD110C,0.50*%
%ADD111C,1.20*%
%ADD112C,2.50*%
%ADD113C,3.00*%
%ADD114C,1.50*%
%ADD115C,2.00*%
%ADD116R,2.00X2.00*%
%ADD117C,1.60*%
%ADD118C,1.80*%
%ADD119C,2.50*%
%ADD120O,1.70X1.00*%
%ADD121P,2.71X8X292.5*%
%ADD122C,1.40*%
%ADD123P,1.52X8X202.5*%
%ADD124P,1.52X8X292.5*%
%ADD125C,3.50*%
%ADD126C,2.10*%
%ADD127R,2.10X2.10*%
%ADD128R,2.10X2.10*%
%ADD129C,1.50*%
%ADD130C,2.20*%
%ADD131C,0.70*%
%ADD132C,6.00*%
G04:AMPARAMS|DCode=133|XSize=1.52mm|YSize=1.52mm|CornerRadius=0.38mm|HoleSize=0mm|Usage=FLASHONLY|Rotation=90.000|XOffset=0mm|YOffset=0mm|HoleType=Round|Shape=RoundedRectangle|*
%AMROUNDEDRECTD133*
21,1,1.52,0.76,0,0,90.0*
21,1,0.76,1.52,0,0,90.0*
1,1,0.76,0.38,0.38*
1,1,0.76,0.38,-0.38*
1,1,0.76,-0.38,-0.38*
1,1,0.76,-0.38,0.38*
%
%ADD133ROUNDEDRECTD133*%
%ADD134C,3.00*%
%ADD135R,3.00X3.00*%
%ADD136C,4.00*%
%ADD137P,2.16X8X22.5*%
%ADD138R,1.60X1.60*%
G04:AMPARAMS|DCode=139|XSize=4mm|YSize=4mm|CornerRadius=1mm|HoleSize=0mm|Usage=FLASHONLY|Rotation=0.000|XOffset=0mm|YOffset=0mm|HoleType=Round|Shape=RoundedRectangle|*
%AMROUNDEDRECTD139*
21,1,4.00,2.00,0,0,0.0*
21,1,2.00,4.00,0,0,0.0*
1,1,2.00,1.00,-1.00*
1,1,2.00,-1.00,-1.00*
1,1,2.00,-1.00,1.00*
1,1,2.00,1.00,1.00*
%
%ADD139ROUNDEDRECTD139*%
%ADD140C,1.52*%
G04:AMPARAMS|DCode=141|XSize=2mm|YSize=2mm|CornerRadius=0.5mm|HoleSize=0mm|Usage=FLASHONLY|Rotation=0.000|XOffset=0mm|YOffset=0mm|HoleType=Round|Shape=RoundedRectangle|*
%AMROUNDEDRECTD141*
21,1,2.00,1.00,0,0,0.0*
21,1,1.00,2.00,0,0,0.0*
1,1,1.00,0.50,-0.50*
1,1,1.00,-0.50,-0.50*
1,1,1.00,-0.50,0.50*
1,1,1.00,0.50,0.50*
%
%ADD141ROUNDEDRECTD141*%
G04:AMPARAMS|DCode=142|XSize=2mm|YSize=2mm|CornerRadius=0.5mm|HoleSize=0mm|Usage=FLASHONLY|Rotation=90.000|XOffset=0mm|YOffset=0mm|HoleType=Round|Shape=RoundedRectangle|*
%AMROUNDEDRECTD142*
21,1,2.00,1.00,0,0,90.0*
21,1,1.00,2.00,0,0,90.0*
1,1,1.00,0.50,0.50*
1,1,1.00,0.50,-0.50*
1,1,1.00,-0.50,-0.50*
1,1,1.00,-0.50,0.50*
%
%ADD142ROUNDEDRECTD142*%
%ADD143P,3.30X8X202.5*%
%ADD144R,1.60X1.60*%
%ADD145C,3.05*%
%ADD146P,2.71X8X22.5*%
%ADD147C,1.27*%
%ADD148C,0.60*%
%ADD149C,0.80*%
G04:AMPARAMS|DCode=150|XSize=1.05mm|YSize=1.75mm|CornerRadius=0.26mm|HoleSize=0mm|Usage=FLASHONLY|Rotation=90.000|XOffset=0mm|YOffset=0mm|HoleType=Round|Shape=RoundedRectangle|*
%AMROUNDEDRECTD150*
21,1,1.05,1.23,0,0,90.0*
21,1,0.53,1.75,0,0,90.0*
1,1,0.53,0.61,0.26*
1,1,0.53,0.61,-0.26*
1,1,0.53,-0.61,-0.26*
1,1,0.53,-0.61,0.26*
%
%ADD150ROUNDEDRECTD150*%
G04:AMPARAMS|DCode=151|XSize=1.05mm|YSize=1.75mm|CornerRadius=0.26mm|HoleSize=0mm|Usage=FLASHONLY|Rotation=90.000|XOffset=0mm|YOffset=0mm|HoleType=Round|Shape=RoundedRectangle|*
%AMROUNDEDRECTD151*
21,1,1.05,1.23,0,0,90.0*
21,1,0.53,1.75,0,0,90.0*
1,1,0.53,0.61,0.26*
1,1,0.53,0.61,-0.26*
1,1,0.53,-0.61,-0.26*
1,1,0.53,-0.61,0.26*
%
%ADD151ROUNDEDRECTD151*%
G04:AMPARAMS|DCode=152|XSize=3.4mm|YSize=1.75mm|CornerRadius=0.44mm|HoleSize=0mm|Usage=FLASHONLY|Rotation=90.000|XOffset=0mm|YOffset=0mm|HoleType=Round|Shape=RoundedRectangle|*
%AMROUNDEDRECTD152*
21,1,3.40,0.88,0,0,90.0*
21,1,2.53,1.75,0,0,90.0*
1,1,0.88,0.44,1.26*
1,1,0.88,0.44,-1.26*
1,1,0.88,-0.44,-1.26*
1,1,0.88,-0.44,1.26*
%
%ADD152ROUNDEDRECTD152*%
%ADD153R,3.20X5.00*%
%ADD154R,1.60X3.20*%
%ADD155R,3.20X1.60*%
%ADD156R,1.10X2.60*%
%ADD157R,2.40X1.05*%
%ADD158R,8.90X10.65*%
%ADD159R,3.30X1.00*%
%ADD160R,8.60X10.50*%
%ADD161R,3.50X1.10*%
%ADD162C,0.80*%
%ADD163C,0.33*%
%ADD164C,1.10*%
G36*
X3400Y11773D02*
X3391Y11766D01*
X3356Y11732D01*
X3327Y11692D01*
X3305Y11649D01*
X3290Y11603D01*
X3283Y11554D01*
Y11506D01*
X3290Y11457D01*
X3305Y11411D01*
X3327Y11368D01*
X3356Y11328D01*
X3384Y11300D01*
X3391Y11294D01*
X3430Y11265D01*
X3474Y11243D01*
X3520Y11228D01*
X3568Y11220D01*
X3617D01*
X3665Y11228D01*
X3712Y11243D01*
X3755Y11265D01*
X3795Y11294D01*
X3801Y11300D01*
X4926D01*
X4933Y11294D01*
X4972Y11265D01*
X5016Y11243D01*
X5062Y11228D01*
X5110Y11220D01*
X5159D01*
X5207Y11228D01*
X5254Y11243D01*
X5297Y11265D01*
X5337Y11294D01*
X5343Y11300D01*
X6229D01*
X6229Y11299D01*
X6268Y11266D01*
X6312Y11240D01*
X6359Y11220D01*
X6409Y11208D01*
X6460Y11204D01*
X6511Y11208D01*
X6561Y11220D01*
X6608Y11240D01*
X6652Y11266D01*
X6691Y11299D01*
X6691Y11300D01*
X7100D01*
X7200Y11200D01*
Y10800D01*
X7100Y10700D01*
X6751D01*
X6691Y10761D01*
X6652Y10794D01*
X6608Y10820D01*
X6561Y10840D01*
X6511Y10852D01*
X6460Y10856D01*
X6409Y10852D01*
X6359Y10840D01*
X6312Y10820D01*
X6268Y10794D01*
X6229Y10761D01*
X6196Y10722D01*
X6183Y10700D01*
X5394D01*
X5371Y10732D01*
X5337Y10766D01*
X5297Y10795D01*
X5254Y10817D01*
X5207Y10832D01*
X5159Y10840D01*
X5110D01*
X5062Y10832D01*
X5016Y10817D01*
X4972Y10795D01*
X4933Y10766D01*
X4898Y10732D01*
X4875Y10700D01*
X3852D01*
X3829Y10732D01*
X3795Y10766D01*
X3755Y10795D01*
X3712Y10817D01*
X3665Y10832D01*
X3617Y10840D01*
X3568D01*
X3520Y10832D01*
X3474Y10817D01*
X3430Y10795D01*
X3391Y10766D01*
X3356Y10732D01*
X3333Y10700D01*
X2527D01*
X2504Y10732D01*
X2469Y10766D01*
X2430Y10795D01*
X2386Y10817D01*
X2340Y10832D01*
X2292Y10840D01*
X2243D01*
X2195Y10832D01*
X2148Y10817D01*
X2105Y10795D01*
X2065Y10766D01*
X2031Y10732D01*
X2008Y10700D01*
X1600D01*
Y11300D01*
X2059D01*
X2065Y11294D01*
X2105Y11265D01*
X2148Y11243D01*
X2195Y11228D01*
X2243Y11220D01*
X2292D01*
X2340Y11228D01*
X2386Y11243D01*
X2430Y11265D01*
X2469Y11294D01*
X2476Y11300D01*
X2500D01*
Y11324D01*
X2504Y11328D01*
X2533Y11368D01*
X2555Y11411D01*
X2570Y11457D01*
X2577Y11506D01*
Y11554D01*
X2570Y11603D01*
X2555Y11649D01*
X2533Y11692D01*
X2504Y11732D01*
X2500Y11736D01*
Y12000D01*
X2241D01*
X2226Y12037D01*
X2201Y12077D01*
X2170Y12113D01*
X2134Y12143D01*
X2094Y12168D01*
X2050Y12186D01*
X2004Y12197D01*
X1957Y12201D01*
X1910Y12197D01*
X1864Y12186D01*
X1821Y12168D01*
X1781Y12143D01*
X1745Y12113D01*
X1714Y12077D01*
X1694Y12045D01*
X1604D01*
X1557Y12041D01*
X1511Y12030D01*
X1467Y12012D01*
X1427Y11987D01*
X1391Y11957D01*
X1034Y11600D01*
X0D01*
Y12100D01*
X43Y12203D01*
X118Y12331D01*
X406Y12500D01*
X3400D01*
Y11773D01*
D02*
G37*
G36*
X15000Y10750D02*
Y9800D01*
X14650Y9450D01*
X13110D01*
X12780Y9120D01*
X12109D01*
X12101Y9123D01*
X12080Y9126D01*
Y9126D01*
X11724Y9126D01*
X11683Y9167D01*
Y9503D01*
X11710Y9530D01*
X12130D01*
X12220Y9620D01*
Y10070D01*
X11950Y10340D01*
X9750D01*
X9250Y9840D01*
X7900D01*
Y10450D01*
X9250D01*
X9800Y11000D01*
X14750D01*
X15000Y10750D01*
D02*
G37*
G36*
X17700Y10800D02*
Y9550D01*
X17550Y9400D01*
X16850D01*
X15950Y8500D01*
X14400D01*
Y9050D01*
X15000D01*
X16200Y10250D01*
Y10800D01*
X15650Y11350D01*
Y11900D01*
X16600D01*
X17700Y10800D01*
D02*
G37*
G36*
X5400Y8000D02*
X4150D01*
Y9750D01*
X5400D01*
Y8000D01*
D02*
G37*
G36*
X1910Y8790D02*
Y7850D01*
X1600D01*
X1290Y8160D01*
Y8800D01*
X1900D01*
X1910Y8790D01*
D02*
G37*
G36*
X19350Y12250D02*
Y11900D01*
X19700Y11550D01*
X20100D01*
X20450Y11200D01*
Y7800D01*
X19200Y6550D01*
X12350D01*
Y7050D01*
X12150Y7250D01*
X11700D01*
Y8150D01*
X11750Y8200D01*
X14050D01*
X14750Y7500D01*
X18600D01*
X19300Y8200D01*
Y9250D01*
X18400Y10150D01*
Y11050D01*
X18200Y11250D01*
Y11800D01*
X17900Y12100D01*
X14500D01*
X13800Y11400D01*
X9850D01*
Y12500D01*
X19100D01*
X19350Y12250D01*
D02*
G37*
G36*
X550Y8100D02*
X1070Y7580D01*
Y6760D01*
X910Y6600D01*
X500D01*
Y7300D01*
X450Y7350D01*
Y7700D01*
X100D01*
Y8800D01*
X550D01*
Y8100D01*
D02*
G37*
G36*
X9800Y6000D02*
Y5500D01*
X9900Y5400D01*
X10300D01*
X10800Y4900D01*
X12400D01*
Y5500D01*
X12800D01*
Y3900D01*
X10300D01*
Y1496D01*
X10173D01*
Y3992D01*
Y4470D01*
X10170Y4496D01*
X10160Y4520D01*
X10144Y4541D01*
X9814Y4871D01*
X9793Y4887D01*
X9769Y4897D01*
X9743Y4901D01*
X8651D01*
Y5153D01*
X8661Y5160D01*
X8675Y5156D01*
X8705D01*
X8734Y5164D01*
X8760Y5179D01*
X8781Y5200D01*
X8796Y5226D01*
X8804Y5255D01*
Y5285D01*
X8796Y5314D01*
X8781Y5340D01*
X8760Y5361D01*
X8734Y5376D01*
X8705Y5383D01*
X8675D01*
X8647Y5376D01*
X8627D01*
X8504Y5499D01*
X8483Y5515D01*
X8459Y5525D01*
X8432Y5528D01*
X7056D01*
X7048Y5548D01*
X7035Y5564D01*
X7018Y5577D01*
X6999Y5585D01*
X6978Y5588D01*
X6798D01*
X6777Y5585D01*
X6757Y5577D01*
X6741Y5564D01*
X6735Y5557D01*
X6722Y5556D01*
X6589Y5689D01*
X6563Y5709D01*
X6533Y5722D01*
X6500Y5726D01*
X6243D01*
X6238Y5738D01*
X6700Y6200D01*
X8182D01*
X8191Y6185D01*
X8210Y6166D01*
X8234Y6152D01*
X8261Y6145D01*
X8289D01*
X8316Y6152D01*
X8340Y6166D01*
X8359Y6185D01*
X8368Y6200D01*
X8770D01*
Y6145D01*
X8980D01*
Y6200D01*
X9600D01*
X9800Y6000D01*
D02*
G37*
G36*
X5400D02*
X4150D01*
Y7700D01*
X5400D01*
Y6000D01*
D02*
G37*
G36*
X2350Y5500D02*
X1740D01*
X1500Y5740D01*
Y6700D01*
X2350D01*
Y5500D01*
D02*
G37*
G36*
X6588Y5333D02*
X6615Y5313D01*
X6645Y5301D01*
X6678Y5296D01*
X6724D01*
X6728Y5287D01*
X6741Y5270D01*
X6757Y5257D01*
X6777Y5249D01*
X6798Y5247D01*
X6978D01*
X6999Y5249D01*
X7018Y5257D01*
X7035Y5270D01*
X7048Y5287D01*
X7056Y5306D01*
X7058Y5327D01*
X8391D01*
X8449Y5268D01*
Y4852D01*
X8444Y4844D01*
X8436Y4815D01*
Y4785D01*
X8444Y4756D01*
X8459Y4730D01*
X8480Y4709D01*
X8506Y4694D01*
X8535Y4687D01*
X8565D01*
X8594Y4694D01*
X8602Y4699D01*
X9701D01*
X9972Y4428D01*
Y4073D01*
X9112D01*
X9107Y4072D01*
X9102D01*
X9097Y4071D01*
X9092Y4070D01*
X9087Y4068D01*
X9082Y4067D01*
X9077Y4064D01*
X9072Y4062D01*
X9068Y4059D01*
X9063Y4057D01*
X9060Y4053D01*
X9055Y4050D01*
X9052Y4045D01*
X9048Y4042D01*
X9046Y4037D01*
X9043Y4033D01*
X9041Y4028D01*
X9038Y4023D01*
X9037Y4018D01*
X9035Y4013D01*
X9034Y4008D01*
X9032Y4003D01*
Y3998D01*
X9032Y3992D01*
X9032Y3987D01*
Y3982D01*
X9034Y3977D01*
X9035Y3972D01*
X9037Y3967D01*
X9038Y3962D01*
X9041Y3957D01*
X9043Y3952D01*
X9046Y3948D01*
X9048Y3943D01*
X9052Y3940D01*
X9055Y3935D01*
X9060Y3932D01*
X9063Y3928D01*
X9068Y3926D01*
X9072Y3923D01*
X9077Y3921D01*
X9082Y3918D01*
X9087Y3917D01*
X9092Y3915D01*
X9097Y3914D01*
X9102Y3912D01*
X9107D01*
X9112Y3912D01*
X9972D01*
Y1496D01*
X9560D01*
X9551Y1501D01*
X9522Y1509D01*
X9493D01*
X9464Y1501D01*
X9438Y1486D01*
X9417Y1465D01*
X9402Y1439D01*
X9394Y1410D01*
Y1380D01*
X9402Y1351D01*
X9417Y1325D01*
X9429Y1313D01*
X9424Y1300D01*
X9100D01*
X9029Y1229D01*
X8975D01*
Y1253D01*
X8975D01*
Y1257D01*
X8975D01*
Y1393D01*
X8840D01*
Y1360D01*
X8787D01*
X8779Y1365D01*
X8757Y1369D01*
X8724D01*
Y1527D01*
X8721Y1543D01*
X8712Y1556D01*
X8504Y1764D01*
X8491Y1773D01*
X8475Y1776D01*
X8157D01*
X8081Y1852D01*
Y3833D01*
X8087Y3839D01*
X8095Y3859D01*
Y3881D01*
X8087Y3901D01*
X8071Y3917D01*
X8051Y3925D01*
X8029D01*
X8009Y3917D01*
X7993Y3901D01*
X7985Y3881D01*
Y3859D01*
X7993Y3839D01*
X7994Y3838D01*
X7993Y3833D01*
X7980Y3829D01*
X7971Y3837D01*
Y4433D01*
X7977Y4439D01*
X7985Y4459D01*
Y4481D01*
X7977Y4501D01*
X7961Y4517D01*
X7941Y4525D01*
X7919D01*
X7899Y4517D01*
X7883Y4501D01*
X7875Y4481D01*
Y4459D01*
X7883Y4439D01*
X7889Y4433D01*
Y3820D01*
X7892Y3804D01*
X7901Y3791D01*
X7931Y3760D01*
Y1790D01*
X7934Y1774D01*
X7943Y1761D01*
X8066Y1638D01*
X8079Y1629D01*
X8095Y1626D01*
X8355D01*
X8366Y1615D01*
Y1341D01*
X8354Y1338D01*
X8347Y1353D01*
X8335Y1370D01*
X8318Y1383D01*
X8298Y1391D01*
X8293Y1392D01*
Y1527D01*
X8107D01*
Y1394D01*
X7888D01*
X7867Y1391D01*
X7848Y1383D01*
X7831Y1370D01*
X7760Y1300D01*
X7748Y1283D01*
X7740Y1263D01*
X7737Y1243D01*
Y361D01*
X7624Y248D01*
X6728D01*
X6707Y245D01*
X6687Y237D01*
X6670Y225D01*
X6347Y-99D01*
X5443D01*
X5120Y225D01*
X5103Y237D01*
X5083Y245D01*
X5062Y248D01*
X4368D01*
X3911Y706D01*
Y1210D01*
X3908Y1231D01*
X3900Y1250D01*
X3887Y1267D01*
X3717Y1437D01*
X3700Y1450D01*
X3681Y1458D01*
X3660Y1461D01*
X3511D01*
Y2619D01*
X3821Y2929D01*
X4620D01*
X4625Y2930D01*
X4662D01*
Y2954D01*
X4667Y2960D01*
X4671Y2980D01*
Y3089D01*
X4717Y3135D01*
X4728Y3127D01*
Y3126D01*
Y2930D01*
X4953D01*
X4953Y2930D01*
X4965Y2935D01*
X4979Y2929D01*
X4999Y2927D01*
X5121D01*
X5141Y2929D01*
X5160Y2937D01*
X5163Y2939D01*
X5399D01*
Y2081D01*
X5294Y1976D01*
X5292Y1973D01*
X5275D01*
Y1788D01*
Y1627D01*
Y1468D01*
X5160D01*
Y1441D01*
X5000D01*
X4984Y1438D01*
X4971Y1429D01*
X4963Y1421D01*
X4787D01*
X4781Y1427D01*
X4761Y1435D01*
X4739D01*
X4719Y1427D01*
X4703Y1411D01*
X4695Y1391D01*
Y1369D01*
X4703Y1349D01*
X4719Y1333D01*
X4739Y1325D01*
X4761D01*
X4781Y1333D01*
X4787Y1339D01*
X4980D01*
X4996Y1342D01*
X5009Y1351D01*
X5017Y1359D01*
X5160D01*
Y1332D01*
X5275D01*
Y1308D01*
X5275Y1307D01*
X5275D01*
X5269Y1297D01*
X4619Y646D01*
X4603Y625D01*
X4593Y601D01*
X4589Y575D01*
Y440D01*
X4584Y431D01*
X4576Y402D01*
Y373D01*
X4584Y344D01*
X4599Y318D01*
X4620Y297D01*
X4646Y282D01*
X4675Y274D01*
X4705D01*
X4734Y282D01*
X4760Y297D01*
X4781Y318D01*
X4796Y344D01*
X4803Y373D01*
Y402D01*
X4796Y431D01*
X4791Y440D01*
Y533D01*
X5471Y1214D01*
X5476Y1220D01*
X5489Y1216D01*
Y782D01*
X5492Y767D01*
X5501Y753D01*
X5573Y681D01*
X5587Y672D01*
X5603Y669D01*
X5903D01*
X5909Y663D01*
X5913Y661D01*
X5910Y649D01*
X5515D01*
X5353Y810D01*
Y819D01*
X5344Y839D01*
X5329Y854D01*
X5309Y863D01*
X5286D01*
X5266Y854D01*
X5251Y839D01*
X5242Y819D01*
Y796D01*
X5251Y776D01*
X5266Y761D01*
X5286Y752D01*
X5295D01*
X5468Y578D01*
X5482Y569D01*
X5497Y566D01*
X6183D01*
X6198Y569D01*
X6212Y578D01*
X7069Y1436D01*
X7078Y1449D01*
X7081Y1465D01*
Y1895D01*
X7087Y1901D01*
X7095Y1921D01*
Y1944D01*
X7087Y1964D01*
X7071Y1979D01*
X7051Y1988D01*
X7029D01*
X7009Y1979D01*
X6993Y1964D01*
X6991Y1960D01*
X6979Y1962D01*
Y2623D01*
X6984Y2629D01*
X6993Y2649D01*
Y2671D01*
X6984Y2691D01*
X6969Y2707D01*
X6949Y2715D01*
X6926D01*
X6906Y2707D01*
X6897Y2698D01*
X6886Y2694D01*
X6880Y2698D01*
X6869Y2709D01*
X6849Y2718D01*
X6826D01*
X6806Y2709D01*
X6791Y2694D01*
X6782Y2674D01*
Y2651D01*
X6791Y2631D01*
X6796Y2625D01*
Y1587D01*
X6153Y944D01*
X5642D01*
X5636Y949D01*
X5616Y958D01*
X5594D01*
X5584Y954D01*
X5571Y962D01*
Y1175D01*
X5675D01*
Y1290D01*
X5700D01*
Y1299D01*
X5930D01*
X5950Y1303D01*
X5966Y1314D01*
X5977Y1330D01*
X5981Y1350D01*
Y1360D01*
X5984Y1365D01*
X5990Y1388D01*
Y1412D01*
X5984Y1435D01*
X5981Y1440D01*
Y1460D01*
X5984Y1465D01*
X5990Y1488D01*
Y1512D01*
X5984Y1535D01*
X5981Y1540D01*
Y1560D01*
X5984Y1565D01*
X5990Y1588D01*
Y1612D01*
X5984Y1635D01*
X5981Y1640D01*
Y1660D01*
X5984Y1665D01*
X5990Y1688D01*
Y1712D01*
X5984Y1735D01*
X5981Y1740D01*
Y1760D01*
X5984Y1765D01*
X5990Y1788D01*
Y1812D01*
X5984Y1835D01*
X5981Y1840D01*
Y1860D01*
X5984Y1865D01*
X5990Y1888D01*
Y1912D01*
X5984Y1935D01*
X5981Y1940D01*
Y2490D01*
X5994Y2493D01*
X6001Y2476D01*
X6014Y2463D01*
X6018Y2456D01*
X6032Y2447D01*
X6047Y2444D01*
X6298D01*
X6304Y2438D01*
X6324Y2430D01*
X6346D01*
X6366Y2438D01*
X6382Y2454D01*
X6390Y2474D01*
Y2496D01*
X6382Y2516D01*
X6366Y2532D01*
X6346Y2540D01*
X6324D01*
X6304Y2532D01*
X6298Y2526D01*
X6100D01*
X6094Y2539D01*
X6079Y2554D01*
X6059Y2563D01*
X6036D01*
X6016Y2554D01*
X6001Y2539D01*
X5994Y2522D01*
X5981Y2525D01*
Y2610D01*
X5984Y2615D01*
X5990Y2638D01*
Y2662D01*
X5984Y2685D01*
X5981Y2690D01*
Y2710D01*
X5984Y2715D01*
X5990Y2738D01*
Y2762D01*
X5984Y2785D01*
X5981Y2790D01*
Y2810D01*
X5984Y2815D01*
X5990Y2838D01*
Y2862D01*
X5984Y2885D01*
X5981Y2890D01*
Y2910D01*
X5984Y2915D01*
X5990Y2938D01*
Y2949D01*
X6828D01*
X7347Y2430D01*
X7368Y2414D01*
X7392Y2404D01*
X7418Y2401D01*
X7604D01*
X7614Y2390D01*
Y2327D01*
X7519Y2231D01*
X7503Y2210D01*
X7493Y2186D01*
X7489Y2160D01*
Y1522D01*
X7476Y1520D01*
X7474Y1528D01*
X7458Y1556D01*
X7434Y1580D01*
X7406Y1596D01*
X7374Y1605D01*
X7341D01*
X7309Y1596D01*
X7281Y1580D01*
X7257Y1556D01*
X7241Y1528D01*
X7232Y1496D01*
Y1463D01*
X7241Y1431D01*
X7257Y1403D01*
X7281Y1379D01*
X7309Y1363D01*
X7322Y1359D01*
Y1346D01*
X7309Y1342D01*
X7281Y1326D01*
X7257Y1302D01*
X7241Y1274D01*
X7232Y1242D01*
Y1209D01*
X7241Y1177D01*
X7257Y1149D01*
X7281Y1125D01*
X7309Y1109D01*
X7322Y1105D01*
Y1092D01*
X7309Y1088D01*
X7281Y1072D01*
X7257Y1048D01*
X7241Y1020D01*
X7232Y988D01*
Y955D01*
X7241Y923D01*
X7257Y895D01*
X7281Y871D01*
X7291Y865D01*
X7291Y852D01*
X7286Y850D01*
X7262Y834D01*
X7241Y813D01*
X7225Y789D01*
X7213Y761D01*
X7207Y732D01*
Y703D01*
X7213Y674D01*
X7225Y646D01*
X7241Y622D01*
X7262Y601D01*
X7286Y585D01*
X7314Y573D01*
X7343Y568D01*
X7372D01*
X7401Y573D01*
X7429Y585D01*
X7453Y601D01*
X7469Y617D01*
X7531D01*
X7558Y620D01*
X7582Y630D01*
X7603Y646D01*
X7661Y705D01*
X7677Y726D01*
X7687Y750D01*
X7691Y776D01*
Y2118D01*
X7786Y2214D01*
X7802Y2235D01*
X7812Y2259D01*
X7816Y2285D01*
Y2390D01*
X7832Y2406D01*
X7848Y2430D01*
X7859Y2458D01*
X7865Y2487D01*
Y2516D01*
X7859Y2545D01*
X7848Y2573D01*
X7832Y2597D01*
X7811Y2618D01*
X7786Y2634D01*
X7782Y2636D01*
X7781Y2649D01*
X7792Y2655D01*
X7815Y2679D01*
X7832Y2707D01*
X7840Y2739D01*
Y2772D01*
X7832Y2804D01*
X7815Y2832D01*
X7792Y2856D01*
X7763Y2872D01*
X7750Y2876D01*
Y2889D01*
X7763Y2893D01*
X7792Y2909D01*
X7815Y2933D01*
X7832Y2961D01*
X7840Y2993D01*
Y3026D01*
X7832Y3058D01*
X7815Y3086D01*
X7792Y3110D01*
X7763Y3126D01*
X7732Y3135D01*
X7698D01*
X7667Y3126D01*
X7638Y3110D01*
X7615Y3086D01*
X7598Y3058D01*
X7590Y3026D01*
Y2993D01*
X7598Y2961D01*
X7615Y2933D01*
X7638Y2909D01*
X7667Y2893D01*
X7680Y2889D01*
Y2876D01*
X7667Y2872D01*
X7638Y2856D01*
X7615Y2832D01*
X7598Y2804D01*
X7590Y2772D01*
Y2739D01*
X7598Y2707D01*
X7615Y2679D01*
X7638Y2655D01*
X7649Y2649D01*
X7648Y2636D01*
X7644Y2634D01*
X7619Y2618D01*
X7604Y2602D01*
X7460D01*
X6941Y3121D01*
X6920Y3137D01*
X6896Y3147D01*
X6870Y3151D01*
X5990D01*
Y3162D01*
X5984Y3185D01*
X5981Y3190D01*
Y3210D01*
X5984Y3215D01*
X5990Y3238D01*
Y3262D01*
X5984Y3285D01*
X5981Y3290D01*
Y3310D01*
X5984Y3315D01*
X5990Y3338D01*
Y3362D01*
X5984Y3385D01*
X5981Y3390D01*
Y3400D01*
X5977Y3420D01*
X5966Y3436D01*
X5950Y3447D01*
X5930Y3451D01*
X5901D01*
Y4475D01*
Y4852D01*
X7132D01*
Y4567D01*
X7132Y4562D01*
Y4557D01*
X7134Y4552D01*
X7135Y4547D01*
X7137Y4542D01*
X7138Y4537D01*
X7141Y4532D01*
X7143Y4527D01*
X7146Y4523D01*
X7148Y4518D01*
X7152Y4515D01*
X7155Y4510D01*
X7160Y4507D01*
X7163Y4503D01*
X7168Y4501D01*
X7172Y4498D01*
X7177Y4496D01*
X7182Y4493D01*
X7187Y4492D01*
X7192Y4490D01*
X7197Y4489D01*
X7202Y4488D01*
X7207D01*
X7212Y4487D01*
X7218Y4488D01*
X7223D01*
X7228Y4489D01*
X7233Y4490D01*
X7238Y4492D01*
X7243Y4493D01*
X7248Y4496D01*
X7253Y4498D01*
X7257Y4501D01*
X7262Y4503D01*
X7265Y4507D01*
X7270Y4510D01*
X7273Y4515D01*
X7277Y4518D01*
X7279Y4523D01*
X7282Y4527D01*
X7284Y4532D01*
X7287Y4537D01*
X7288Y4542D01*
X7290Y4547D01*
X7291Y4552D01*
X7293Y4557D01*
Y4562D01*
X7293Y4567D01*
Y4852D01*
X7941D01*
X8484Y4309D01*
X8505Y4293D01*
X8529Y4283D01*
X8555Y4279D01*
X9735D01*
X9744Y4274D01*
X9773Y4267D01*
X9802D01*
X9831Y4274D01*
X9857Y4289D01*
X9878Y4310D01*
X9893Y4336D01*
X9901Y4365D01*
Y4395D01*
X9893Y4424D01*
X9878Y4450D01*
X9857Y4471D01*
X9831Y4486D01*
X9802Y4494D01*
X9773D01*
X9744Y4486D01*
X9735Y4481D01*
X8597D01*
X8054Y5024D01*
X8033Y5040D01*
X8009Y5050D01*
X7982Y5053D01*
X5399D01*
X5333Y5120D01*
Y5176D01*
X5349Y5192D01*
X5365Y5216D01*
X5367Y5221D01*
X5379Y5221D01*
X5386Y5211D01*
X5409Y5187D01*
X5438Y5171D01*
X5469Y5162D01*
X5503D01*
X5534Y5171D01*
X5563Y5187D01*
X5586Y5211D01*
X5603Y5239D01*
X5606Y5252D01*
X5620D01*
X5623Y5239D01*
X5640Y5211D01*
X5663Y5187D01*
X5692Y5171D01*
X5723Y5162D01*
X5757D01*
X5788Y5171D01*
X5817Y5187D01*
X5840Y5211D01*
X5857Y5239D01*
X5860Y5252D01*
X5874D01*
X5877Y5239D01*
X5894Y5211D01*
X5917Y5187D01*
X5946Y5171D01*
X5977Y5162D01*
X6011D01*
X6042Y5171D01*
X6071Y5187D01*
X6094Y5211D01*
X6104Y5227D01*
X6120Y5230D01*
X6123Y5229D01*
Y5162D01*
X6373D01*
Y5413D01*
X6123D01*
Y5346D01*
X6120Y5345D01*
X6104Y5348D01*
X6094Y5364D01*
X6071Y5388D01*
X6042Y5404D01*
X6011Y5413D01*
X5977D01*
X5946Y5404D01*
X5917Y5388D01*
X5894Y5364D01*
X5877Y5336D01*
X5874Y5323D01*
X5860D01*
X5857Y5336D01*
X5840Y5364D01*
X5817Y5388D01*
X5788Y5404D01*
X5757Y5413D01*
X5723D01*
X5692Y5404D01*
X5663Y5388D01*
X5640Y5364D01*
X5623Y5336D01*
X5620Y5323D01*
X5606D01*
X5603Y5336D01*
X5586Y5364D01*
X5563Y5388D01*
X5534Y5404D01*
X5503Y5413D01*
X5469D01*
X5438Y5404D01*
X5409Y5388D01*
X5386Y5364D01*
X5379Y5354D01*
X5367Y5354D01*
X5365Y5359D01*
X5349Y5383D01*
X5328Y5404D01*
X5303Y5420D01*
X5276Y5432D01*
X5247Y5438D01*
X5217D01*
X5188Y5432D01*
X5161Y5420D01*
X5136Y5404D01*
X5115Y5383D01*
X5099Y5359D01*
X5088Y5331D01*
X5082Y5302D01*
Y5273D01*
X5088Y5244D01*
X5099Y5216D01*
X5115Y5192D01*
X5131Y5176D01*
Y5078D01*
X5135Y5052D01*
X5145Y5028D01*
X5161Y5007D01*
X5269Y4898D01*
X5264Y4885D01*
X5259D01*
X5239Y4877D01*
X5223Y4861D01*
X5215Y4841D01*
Y4819D01*
X5223Y4799D01*
X5229Y4793D01*
Y4513D01*
X5232Y4498D01*
X5239Y4487D01*
Y4212D01*
X5151Y4124D01*
X5142Y4111D01*
X5139Y4095D01*
Y3827D01*
X5133Y3821D01*
X5125Y3801D01*
Y3779D01*
X5133Y3759D01*
X5149Y3743D01*
X5169Y3735D01*
X5191D01*
X5211Y3743D01*
X5227Y3759D01*
X5235Y3779D01*
Y3801D01*
X5227Y3821D01*
X5221Y3827D01*
Y4078D01*
X5309Y4166D01*
X5318Y4179D01*
X5321Y4195D01*
Y4503D01*
X5318Y4519D01*
X5311Y4529D01*
Y4793D01*
X5317Y4799D01*
X5325Y4819D01*
Y4841D01*
X5323Y4846D01*
X5333Y4855D01*
X5358Y4852D01*
X5699D01*
Y4552D01*
X5682Y4547D01*
X5663Y4537D01*
X5648Y4522D01*
X5638Y4503D01*
X5633Y4483D01*
Y4462D01*
X5638Y4442D01*
X5648Y4423D01*
X5663Y4408D01*
X5682Y4398D01*
X5699Y4393D01*
Y3451D01*
X5450D01*
X5430Y3447D01*
X5414Y3436D01*
X5403Y3420D01*
X5399Y3400D01*
Y3121D01*
X5162D01*
X5160Y3123D01*
X5151Y3126D01*
X5153Y3139D01*
X5160D01*
X5180Y3143D01*
X5196Y3154D01*
X5207Y3170D01*
X5211Y3190D01*
Y3440D01*
X5207Y3460D01*
X5196Y3476D01*
X5180Y3487D01*
X5160Y3491D01*
X3740D01*
X3720Y3487D01*
X3704Y3476D01*
X3312Y3084D01*
X3300Y3089D01*
Y3749D01*
X3450D01*
X3470Y3753D01*
X3486Y3764D01*
X3497Y3780D01*
X3501Y3800D01*
Y4629D01*
X3586Y4714D01*
X3586Y4714D01*
X3597Y4730D01*
X3601Y4750D01*
Y5474D01*
X6448D01*
X6588Y5333D01*
D02*
G37*
G36*
X1150Y5530D02*
X1740Y4940D01*
Y4210D01*
X1220D01*
Y4820D01*
X1090Y4950D01*
X550D01*
X440Y5060D01*
Y5800D01*
X430Y5810D01*
Y6030D01*
X500Y6100D01*
X1150D01*
Y5530D01*
D02*
G37*
G36*
X2295Y3840D02*
X1875D01*
Y5110D01*
X2295D01*
Y3840D01*
D02*
G37*
G36*
X3550Y4750D02*
X3550D01*
X3450Y4650D01*
Y3800D01*
X2950D01*
Y4510D01*
X3260Y4820D01*
Y5670D01*
X3550D01*
Y4750D01*
D02*
G37*
G36*
X350Y4950D02*
X500Y4800D01*
X1000D01*
X1050Y4750D01*
Y3640D01*
X1740D01*
Y2950D01*
X1530D01*
X1460Y3040D01*
X1400Y3100D01*
X1050D01*
Y1800D01*
X1750D01*
Y1060D01*
X3130D01*
X3300Y1230D01*
Y1269D01*
X3460D01*
X3480Y1273D01*
X3490Y1280D01*
X3503D01*
Y1294D01*
X3506Y1299D01*
X3627D01*
X3749Y1177D01*
Y672D01*
X3752Y652D01*
X3760Y632D01*
X3773Y615D01*
X4278Y110D01*
X4295Y98D01*
X4314Y90D01*
X4335Y87D01*
X5029D01*
X5353Y-237D01*
X5370Y-250D01*
X5389Y-258D01*
X5410Y-261D01*
X6380D01*
X6401Y-258D01*
X6420Y-250D01*
X6437Y-237D01*
X6761Y87D01*
X7657D01*
X7678Y90D01*
X7698Y98D01*
X7715Y110D01*
X7875Y270D01*
X7887Y287D01*
X7895Y307D01*
X7898Y328D01*
Y1209D01*
X7921Y1232D01*
X7942D01*
Y1131D01*
X7942Y1122D01*
X7942Y1109D01*
Y982D01*
X8070D01*
X8073Y978D01*
X8076Y969D01*
X8065Y954D01*
X8061Y932D01*
X8065Y910D01*
X8078Y892D01*
X8096Y880D01*
X8117Y876D01*
X8155D01*
Y772D01*
X8158Y756D01*
X8167Y742D01*
X8427Y482D01*
X8441Y473D01*
X8457Y470D01*
X8470D01*
Y445D01*
X8496D01*
Y428D01*
X8472D01*
Y292D01*
X8599D01*
X8608Y292D01*
X8621Y292D01*
X8748D01*
Y298D01*
X8758Y305D01*
X8759Y305D01*
X8781D01*
X8789Y308D01*
X8800Y301D01*
Y-718D01*
X8788Y-723D01*
X8761Y-695D01*
X8710Y-658D01*
X8654Y-629D01*
X8594Y-610D01*
X8531Y-600D01*
X8469D01*
X8406Y-610D01*
X8346Y-629D01*
X8290Y-658D01*
X8239Y-695D01*
X8195Y-739D01*
X8158Y-790D01*
X8129Y-846D01*
X8110Y-906D01*
X8100Y-969D01*
Y-1031D01*
X8110Y-1094D01*
X8129Y-1154D01*
X8158Y-1210D01*
X8195Y-1261D01*
X8239Y-1305D01*
X8290Y-1342D01*
X8346Y-1371D01*
X8406Y-1390D01*
X8469Y-1400D01*
X8531D01*
X8594Y-1390D01*
X8654Y-1371D01*
X8710Y-1342D01*
X8761Y-1305D01*
X8805Y-1261D01*
X8842Y-1210D01*
X8847Y-1200D01*
X9900D01*
X10040Y-1060D01*
X10830D01*
X11130Y-760D01*
X16010D01*
X16400Y-1150D01*
X18450D01*
X18700Y-900D01*
Y-250D01*
X19700D01*
X19750Y-300D01*
Y-610D01*
X19630Y-730D01*
Y-845D01*
X19629Y-846D01*
X19610Y-906D01*
X19600Y-969D01*
Y-1031D01*
X19610Y-1094D01*
X19629Y-1154D01*
X19630Y-1155D01*
Y-1430D01*
X19596Y-1464D01*
X500D01*
X498Y-1464D01*
X439Y-1460D01*
X380Y-1449D01*
X322Y-1429D01*
X268Y-1402D01*
X217Y-1368D01*
X172Y-1328D01*
X132Y-1283D01*
X98Y-1232D01*
X71Y-1178D01*
X51Y-1120D01*
X40Y-1061D01*
X36Y-1000D01*
X36Y-1000D01*
X36D01*
X33Y-986D01*
X26Y-974D01*
X14Y-967D01*
X0Y-964D01*
Y700D01*
Y7550D01*
X350D01*
Y4950D01*
D02*
G37*
G36*
X16373Y5372D02*
Y4922D01*
X16702Y4592D01*
X17605D01*
X18160Y4038D01*
X18495D01*
X18680Y3853D01*
Y2642D01*
X18623Y2585D01*
X18465D01*
X18455Y2595D01*
Y2930D01*
X18393Y2992D01*
X18200D01*
X18150Y2942D01*
Y2655D01*
X18080Y2585D01*
X17393D01*
X17345Y2633D01*
Y2915D01*
X17295Y2965D01*
X17085D01*
X17045Y2925D01*
Y2640D01*
X16977Y2573D01*
X16732D01*
X16710Y2595D01*
Y3865D01*
X16264Y4311D01*
X16259Y4324D01*
X16238Y4355D01*
X16211Y4382D01*
X16180Y4403D01*
X16167Y4408D01*
X16085Y4490D01*
X15560D01*
X15502Y4547D01*
Y5367D01*
X15538Y5403D01*
X16343D01*
X16373Y5372D01*
D02*
G37*
G36*
X15305Y5370D02*
Y3958D01*
X16188D01*
X16525Y3620D01*
Y2590D01*
X16502Y2567D01*
X16280D01*
X16245Y2602D01*
Y2917D01*
X16202Y2960D01*
X15960D01*
X15938Y2938D01*
Y2662D01*
X15843Y2567D01*
X15173D01*
X15135Y2605D01*
Y2905D01*
X15095Y2945D01*
X14870D01*
X14827Y2902D01*
Y2900D01*
Y2660D01*
X14777Y2610D01*
X14675D01*
X14457Y2827D01*
Y5372D01*
X14515Y5430D01*
X15245D01*
X15305Y5370D01*
D02*
G37*
G36*
X19510Y2440D02*
X18320Y1250D01*
Y1040D01*
X18160Y880D01*
X16730D01*
X16600Y1010D01*
Y1410D01*
X16270Y1740D01*
X15020D01*
X14880Y1880D01*
Y2850D01*
X15080D01*
Y2400D01*
X15990D01*
Y2850D01*
X16180D01*
Y2400D01*
X17090D01*
Y2850D01*
X17290D01*
Y2400D01*
X18200D01*
Y2850D01*
X18400D01*
Y2400D01*
X18750D01*
X18950Y2600D01*
Y3650D01*
X19050Y3750D01*
X19500D01*
X19510Y2440D01*
D02*
G37*
G36*
X1490Y2820D02*
X1740Y2820D01*
Y2390D01*
X1210D01*
Y2900D01*
X1410D01*
X1490Y2820D01*
D02*
G37*
G36*
X13400Y2250D02*
X12250D01*
Y3750D01*
X13400D01*
Y2250D01*
D02*
G37*
G36*
X11700D02*
X10550D01*
Y3750D01*
X11700D01*
Y2250D01*
D02*
G37*
G36*
X2300Y2010D02*
X1880D01*
Y3280D01*
X2300D01*
Y2010D01*
D02*
G37*
G36*
X5930Y1350D02*
X5330D01*
Y1940D01*
X5450Y2060D01*
Y3400D01*
X5930D01*
Y1350D01*
D02*
G37*
G36*
X5160Y3190D02*
X4700D01*
X4620Y3110D01*
Y2980D01*
X3800D01*
X3460Y2640D01*
Y1320D01*
X2900D01*
Y2600D01*
X3740Y3440D01*
X5160D01*
Y3190D01*
D02*
G37*
G36*
X8642Y1510D02*
Y1369D01*
X8597D01*
X8576Y1365D01*
X8558Y1353D01*
X8545Y1335D01*
X8541Y1313D01*
X8545Y1291D01*
X8558Y1273D01*
X8576Y1261D01*
X8597Y1257D01*
X8757D01*
X8779Y1261D01*
X8797Y1273D01*
X8800Y1278D01*
X8840D01*
Y1257D01*
X8840D01*
Y1253D01*
X8840D01*
Y1229D01*
X8793D01*
X8779Y1238D01*
X8757Y1242D01*
X8597D01*
X8576Y1238D01*
X8558Y1226D01*
X8545Y1208D01*
X8541Y1186D01*
X8545Y1164D01*
X8558Y1146D01*
X8576Y1134D01*
X8597Y1130D01*
X8757D01*
X8779Y1134D01*
X8797Y1146D01*
X8798Y1147D01*
X8840D01*
Y1117D01*
X8901D01*
X8905Y1105D01*
X8889Y1089D01*
X8877Y1097D01*
X8861Y1100D01*
X8796D01*
X8779Y1111D01*
X8757Y1115D01*
X8597D01*
X8576Y1111D01*
X8558Y1099D01*
X8545Y1081D01*
X8541Y1059D01*
X8545Y1037D01*
X8558Y1019D01*
X8576Y1007D01*
X8597Y1003D01*
X8757D01*
X8779Y1007D01*
X8789Y1014D01*
X8795Y1012D01*
X8800Y1000D01*
Y419D01*
X8789Y412D01*
X8781Y415D01*
X8759D01*
X8758Y415D01*
X8748Y422D01*
Y428D01*
X8621D01*
X8612Y428D01*
X8599Y428D01*
X8581D01*
Y445D01*
X8605D01*
Y580D01*
X8470D01*
Y577D01*
X8458Y573D01*
X8240Y790D01*
Y876D01*
X8278D01*
X8299Y880D01*
X8317Y892D01*
X8330Y910D01*
X8334Y932D01*
X8330Y954D01*
X8317Y972D01*
X8299Y984D01*
X8278Y988D01*
X8117D01*
X8096Y984D01*
X8090Y980D01*
X8078Y987D01*
Y1004D01*
X8091Y1010D01*
X8096Y1007D01*
X8117Y1003D01*
X8278D01*
X8299Y1007D01*
X8316Y1018D01*
X8344D01*
X8389Y973D01*
Y738D01*
X8392Y722D01*
X8401Y708D01*
X8418Y691D01*
X8432Y682D01*
X8448Y679D01*
X8472D01*
Y652D01*
X8608D01*
Y788D01*
X8472D01*
X8471Y800D01*
Y990D01*
X8468Y1006D01*
X8459Y1019D01*
X8390Y1088D01*
X8377Y1097D01*
X8361Y1100D01*
X8316D01*
X8299Y1111D01*
X8278Y1115D01*
X8117D01*
X8096Y1111D01*
X8089Y1107D01*
X8078Y1113D01*
Y1118D01*
X8078Y1132D01*
X8089Y1138D01*
X8096Y1134D01*
X8117Y1130D01*
X8278D01*
X8299Y1134D01*
X8316Y1145D01*
X8381D01*
X8397Y1148D01*
X8410Y1157D01*
X8437Y1183D01*
X8446Y1197D01*
X8449Y1212D01*
Y1633D01*
X8446Y1648D01*
X8437Y1662D01*
X8416Y1682D01*
X8421Y1694D01*
X8458D01*
X8642Y1510D01*
D02*
G37*
G36*
X20500Y6050D02*
X20500Y1250D01*
X20250Y1000D01*
X18750D01*
Y1300D01*
X19800Y2350D01*
Y4350D01*
X19300Y4850D01*
X16900D01*
X16750Y5000D01*
Y5500D01*
X18900D01*
X19700Y6300D01*
X20250D01*
X20500Y6050D01*
D02*
G37*
G36*
X11550Y1100D02*
Y450D01*
X10650D01*
X10550Y550D01*
X9800D01*
Y-450D01*
X9950Y-600D01*
Y-850D01*
X9050D01*
Y950D01*
X9200Y1100D01*
X10350D01*
X10500Y950D01*
X11000D01*
X11200Y1150D01*
X11500D01*
X11550Y1100D01*
D02*
G37*
G36*
X13200Y1150D02*
Y1050D01*
X13300Y950D01*
X13840D01*
X13940Y1050D01*
X14350D01*
Y80D01*
X13910Y-360D01*
X10070D01*
X9920Y-210D01*
Y360D01*
X10520D01*
X10660Y220D01*
X12730D01*
X12860Y350D01*
Y1140D01*
X12890Y1170D01*
X13180D01*
X13200Y1150D01*
D02*
G37*
G36*
X16250Y1200D02*
Y500D01*
X16450Y300D01*
X17250D01*
X17750Y-200D01*
Y-1050D01*
X16600D01*
X16050Y-500D01*
X15650D01*
X15500Y-350D01*
Y1350D01*
X16100D01*
X16250Y1200D01*
D02*
G37*
%LPC*%
G36*
X12758Y5258D02*
X12622D01*
Y5183D01*
X12621Y5178D01*
X12621Y5177D01*
Y5126D01*
X12570Y5075D01*
X12558Y5057D01*
X12554Y5036D01*
X12539D01*
Y4864D01*
X12554D01*
Y4836D01*
X12539D01*
Y4806D01*
X12508D01*
Y4818D01*
X12381D01*
X12372Y4818D01*
X12359Y4818D01*
X12238D01*
Y4818D01*
X12102D01*
Y4801D01*
X12088D01*
Y4818D01*
X11952D01*
Y4801D01*
X10786D01*
X10537Y5050D01*
X10537Y5052D01*
X10525Y5070D01*
X10489Y5106D01*
X10489Y5106D01*
X10440Y5155D01*
X10435Y5158D01*
X10431Y5162D01*
X10426Y5164D01*
X10422Y5167D01*
X10416Y5168D01*
X10411Y5170D01*
X10405D01*
X10400Y5171D01*
X10395Y5170D01*
X10389D01*
X10384Y5168D01*
X10378Y5167D01*
X10374Y5164D01*
X10369Y5162D01*
X10365Y5158D01*
X10360Y5155D01*
X10357Y5150D01*
X10353Y5146D01*
X10351Y5141D01*
X10348Y5137D01*
X10347Y5131D01*
X10345Y5126D01*
Y5120D01*
X10344Y5115D01*
X10345Y5110D01*
Y5104D01*
X10347Y5099D01*
X10348Y5093D01*
X10351Y5089D01*
X10353Y5084D01*
X10357Y5080D01*
X10360Y5075D01*
X10409Y5026D01*
X10409Y5026D01*
X10445Y4990D01*
X10463Y4978D01*
X10465Y4978D01*
X10729Y4714D01*
X10745Y4703D01*
X10765Y4699D01*
X11952D01*
Y4682D01*
X12088D01*
Y4699D01*
X12102D01*
Y4682D01*
X12232D01*
Y4682D01*
X12359D01*
X12368Y4682D01*
X12381Y4682D01*
X12508D01*
Y4694D01*
X12539D01*
Y4664D01*
X12681D01*
Y4836D01*
X12666D01*
Y4864D01*
X12681D01*
Y5026D01*
X12717Y5063D01*
X12717Y5063D01*
X12730Y5081D01*
X12734Y5103D01*
Y5122D01*
X12758D01*
Y5258D01*
D02*
G37*
G36*
X4227Y5205D02*
X4193D01*
X4160Y5197D01*
X4130Y5179D01*
X4106Y5155D01*
X4088Y5125D01*
X4080Y5092D01*
Y5058D01*
X4088Y5025D01*
X4106Y4995D01*
X4130Y4971D01*
X4160Y4953D01*
X4193Y4945D01*
X4227D01*
X4260Y4953D01*
X4290Y4971D01*
X4314Y4995D01*
X4332Y5025D01*
X4340Y5058D01*
Y5092D01*
X4332Y5125D01*
X4314Y5155D01*
X4290Y5179D01*
X4260Y5197D01*
X4227Y5205D01*
D02*
G37*
G36*
X3990D02*
X3730D01*
Y4945D01*
X3990D01*
Y5205D01*
D02*
G37*
G36*
X5049Y3840D02*
X5026D01*
X5006Y3832D01*
X4991Y3816D01*
X4982Y3796D01*
Y3794D01*
X4826Y3638D01*
X4811D01*
X4791Y3629D01*
X4776Y3614D01*
X4767Y3594D01*
Y3571D01*
X4776Y3551D01*
X4791Y3536D01*
X4811Y3527D01*
X4834D01*
X4854Y3536D01*
X4869Y3551D01*
X4878Y3571D01*
Y3573D01*
X5034Y3730D01*
X5049D01*
X5069Y3738D01*
X5084Y3754D01*
X5093Y3774D01*
Y3796D01*
X5084Y3816D01*
X5069Y3832D01*
X5049Y3840D01*
D02*
G37*
G36*
X6331Y2825D02*
X6309D01*
X6289Y2817D01*
X6280Y2809D01*
X6172D01*
X6166Y2814D01*
X6146Y2823D01*
X6124D01*
X6104Y2814D01*
X6088Y2799D01*
X6080Y2779D01*
Y2756D01*
X6088Y2736D01*
X6104Y2721D01*
X6124Y2712D01*
X6146D01*
X6166Y2721D01*
X6172Y2726D01*
X6285D01*
X6289Y2723D01*
X6309Y2715D01*
X6331D01*
X6351Y2723D01*
X6367Y2739D01*
X6375Y2759D01*
Y2781D01*
X6367Y2801D01*
X6351Y2817D01*
X6331Y2825D01*
D02*
G37*
G36*
X4939Y2545D02*
X4916D01*
X4896Y2537D01*
X4881Y2521D01*
X4872Y2501D01*
Y2493D01*
X4620Y2241D01*
X4359D01*
X4352Y2250D01*
X4345Y2256D01*
Y2271D01*
X4352Y2277D01*
X4364Y2292D01*
X4371Y2309D01*
X4373Y2327D01*
X4371Y2345D01*
X4364Y2362D01*
X4352Y2377D01*
X4338Y2388D01*
X4321Y2395D01*
X4303Y2398D01*
X4233D01*
X4214Y2395D01*
X4197Y2388D01*
X4183Y2377D01*
X4171Y2362D01*
X4164Y2345D01*
X4162Y2327D01*
X4164Y2309D01*
X4171Y2292D01*
X4183Y2277D01*
X4190Y2271D01*
Y2256D01*
X4183Y2250D01*
X4174Y2239D01*
X3832D01*
X3827Y2245D01*
X3820Y2251D01*
Y2266D01*
X3827Y2272D01*
X3839Y2287D01*
X3846Y2304D01*
X3848Y2322D01*
X3846Y2340D01*
X3839Y2357D01*
X3827Y2372D01*
X3813Y2383D01*
X3796Y2390D01*
X3778Y2393D01*
X3708D01*
X3689Y2390D01*
X3672Y2383D01*
X3658Y2372D01*
X3646Y2357D01*
X3639Y2340D01*
X3637Y2322D01*
X3639Y2304D01*
X3646Y2287D01*
X3658Y2272D01*
X3665Y2266D01*
Y2251D01*
X3658Y2245D01*
X3646Y2230D01*
X3639Y2213D01*
X3637Y2195D01*
X3639Y2177D01*
X3646Y2160D01*
X3658Y2145D01*
X3672Y2134D01*
X3689Y2127D01*
X3708Y2124D01*
X3778D01*
X3796Y2127D01*
X3813Y2134D01*
X3827Y2145D01*
X3836Y2156D01*
X4178D01*
X4183Y2150D01*
X4197Y2139D01*
X4214Y2132D01*
X4233Y2129D01*
X4303D01*
X4321Y2132D01*
X4338Y2139D01*
X4352Y2150D01*
X4359Y2159D01*
X4638D01*
X4653Y2162D01*
X4667Y2171D01*
X4930Y2435D01*
X4939D01*
X4959Y2443D01*
X4974Y2459D01*
X4983Y2479D01*
Y2501D01*
X4974Y2521D01*
X4959Y2537D01*
X4939Y2545D01*
D02*
G37*
G36*
X6569Y1990D02*
X6546D01*
X6526Y1982D01*
X6511Y1966D01*
X6502Y1946D01*
Y1924D01*
X6511Y1904D01*
X6516Y1898D01*
Y1635D01*
X6290Y1408D01*
X6281D01*
X6261Y1399D01*
X6246Y1384D01*
X6237Y1364D01*
Y1341D01*
X6246Y1321D01*
X6261Y1306D01*
X6279Y1298D01*
X6277Y1285D01*
X6276D01*
X6256Y1277D01*
X6241Y1261D01*
X6232Y1241D01*
Y1219D01*
X6241Y1199D01*
X6256Y1183D01*
X6276Y1175D01*
X6299D01*
X6319Y1183D01*
X6334Y1199D01*
X6343Y1219D01*
Y1227D01*
X6682Y1566D01*
X6691Y1579D01*
X6694Y1595D01*
Y1865D01*
X6699Y1871D01*
X6708Y1891D01*
Y1914D01*
X6699Y1934D01*
X6684Y1949D01*
X6664Y1958D01*
X6641D01*
X6621Y1949D01*
X6609Y1955D01*
X6604Y1966D01*
X6589Y1982D01*
X6569Y1990D01*
D02*
G37*
G36*
X5834Y185D02*
X5806D01*
X5779Y178D01*
X5755Y164D01*
X5736Y145D01*
X5722Y121D01*
X5715Y94D01*
Y66D01*
X5722Y39D01*
X5736Y15D01*
X5755Y-4D01*
X5779Y-18D01*
X5806Y-25D01*
X5834D01*
X5861Y-18D01*
X5885Y-4D01*
X5904Y15D01*
X5918Y39D01*
X5925Y66D01*
Y94D01*
X5918Y121D01*
X5904Y145D01*
X5885Y164D01*
X5861Y178D01*
X5834Y185D01*
D02*
G37*
G36*
X1252Y176D02*
X1152D01*
X1129Y173D01*
X1107Y164D01*
X1088Y149D01*
X1074Y130D01*
X1065Y108D01*
X1062Y85D01*
Y-15D01*
X1065Y-38D01*
X1074Y-60D01*
X1088Y-79D01*
X1107Y-94D01*
X1129Y-103D01*
X1152Y-106D01*
X1252D01*
X1276Y-103D01*
X1298Y-94D01*
X1317Y-79D01*
X1331Y-60D01*
X1340Y-38D01*
X1343Y-15D01*
Y85D01*
X1340Y108D01*
X1331Y130D01*
X1317Y149D01*
X1298Y164D01*
X1276Y173D01*
X1252Y176D01*
D02*
G37*
G36*
Y-452D02*
X1152D01*
X1129Y-455D01*
X1107Y-464D01*
X1088Y-478D01*
X1074Y-497D01*
X1065Y-519D01*
X1062Y-543D01*
Y-643D01*
X1065Y-666D01*
X1074Y-688D01*
X1088Y-707D01*
X1107Y-721D01*
X1129Y-730D01*
X1152Y-733D01*
X1252D01*
X1276Y-730D01*
X1298Y-721D01*
X1317Y-707D01*
X1331Y-688D01*
X1340Y-666D01*
X1343Y-643D01*
Y-543D01*
X1340Y-519D01*
X1331Y-497D01*
X1317Y-478D01*
X1298Y-464D01*
X1276Y-455D01*
X1252Y-452D01*
D02*
G37*
G36*
X2276Y-843D02*
X2199D01*
X2179Y-846D01*
X2160Y-854D01*
X2144Y-866D01*
X2131Y-883D01*
X2123Y-902D01*
X2121Y-922D01*
Y-998D01*
X2123Y-1018D01*
X2131Y-1037D01*
X2144Y-1054D01*
X2160Y-1066D01*
X2179Y-1074D01*
X2199Y-1077D01*
X2276D01*
X2296Y-1074D01*
X2315Y-1066D01*
X2331Y-1054D01*
X2344Y-1037D01*
X2352Y-1018D01*
X2354Y-998D01*
Y-922D01*
X2352Y-902D01*
X2344Y-883D01*
X2331Y-866D01*
X2315Y-854D01*
X2296Y-846D01*
X2276Y-843D01*
D02*
G37*
G36*
X2556Y-851D02*
X2479D01*
X2459Y-853D01*
X2440Y-861D01*
X2424Y-874D01*
X2411Y-890D01*
X2403Y-909D01*
X2401Y-929D01*
Y-1006D01*
X2403Y-1026D01*
X2411Y-1045D01*
X2424Y-1061D01*
X2440Y-1074D01*
X2459Y-1082D01*
X2479Y-1084D01*
X2556D01*
X2576Y-1082D01*
X2595Y-1074D01*
X2611Y-1061D01*
X2624Y-1045D01*
X2632Y-1026D01*
X2634Y-1006D01*
Y-929D01*
X2632Y-909D01*
X2624Y-890D01*
X2611Y-874D01*
X2595Y-861D01*
X2576Y-853D01*
X2556Y-851D01*
D02*
G37*
G36*
X2637Y101D02*
X2235D01*
X2209Y98D01*
X2185Y88D01*
X2164Y72D01*
X2148Y51D01*
X2138Y26D01*
X2134Y0D01*
X2138Y-26D01*
X2148Y-50D01*
X2164Y-71D01*
X2185Y-87D01*
X2209Y-97D01*
X2235Y-101D01*
X2595D01*
X2599Y-104D01*
Y-520D01*
X2603Y-546D01*
X2613Y-570D01*
X2629Y-591D01*
X2986Y-949D01*
X3007Y-965D01*
X3031Y-975D01*
X3058Y-978D01*
X4348D01*
Y-1109D01*
X4332Y-1124D01*
X4316Y-1149D01*
X4305Y-1176D01*
X4299Y-1205D01*
Y-1235D01*
X4305Y-1264D01*
X4316Y-1291D01*
X4332Y-1316D01*
X4353Y-1337D01*
X4378Y-1353D01*
X4405Y-1364D01*
X4434Y-1370D01*
X4464D01*
X4493Y-1364D01*
X4520Y-1353D01*
X4545Y-1337D01*
X4566Y-1316D01*
X4582Y-1291D01*
X4584Y-1287D01*
X4596Y-1286D01*
X4603Y-1297D01*
X4626Y-1320D01*
X4655Y-1337D01*
X4686Y-1345D01*
X4720D01*
X4751Y-1337D01*
X4780Y-1320D01*
X4803Y-1297D01*
X4820Y-1268D01*
X4823Y-1255D01*
X4837D01*
X4840Y-1268D01*
X4857Y-1297D01*
X4880Y-1320D01*
X4909Y-1337D01*
X4940Y-1345D01*
X4974D01*
X5005Y-1337D01*
X5034Y-1320D01*
X5057Y-1297D01*
X5074Y-1268D01*
X5082Y-1237D01*
Y-1203D01*
X5074Y-1172D01*
X5057Y-1143D01*
X5034Y-1120D01*
X5005Y-1103D01*
X4974Y-1095D01*
X4940D01*
X4909Y-1103D01*
X4880Y-1120D01*
X4857Y-1143D01*
X4840Y-1172D01*
X4837Y-1185D01*
X4823D01*
X4820Y-1172D01*
X4803Y-1143D01*
X4780Y-1120D01*
X4751Y-1103D01*
X4720Y-1095D01*
X4686D01*
X4655Y-1103D01*
X4626Y-1120D01*
X4603Y-1143D01*
X4596Y-1154D01*
X4584Y-1153D01*
X4582Y-1149D01*
X4566Y-1124D01*
X4550Y-1109D01*
Y-977D01*
X4559Y-976D01*
X6113D01*
Y-1109D01*
X6097Y-1124D01*
X6081Y-1149D01*
X6079Y-1153D01*
X6067Y-1154D01*
X6060Y-1143D01*
X6037Y-1120D01*
X6008Y-1103D01*
X5977Y-1095D01*
X5943D01*
X5912Y-1103D01*
X5883Y-1120D01*
X5860Y-1143D01*
X5843Y-1172D01*
X5835Y-1203D01*
Y-1237D01*
X5843Y-1268D01*
X5860Y-1297D01*
X5883Y-1320D01*
X5912Y-1337D01*
X5943Y-1345D01*
X5977D01*
X6008Y-1337D01*
X6037Y-1320D01*
X6060Y-1297D01*
X6067Y-1286D01*
X6079Y-1287D01*
X6081Y-1291D01*
X6097Y-1316D01*
X6118Y-1337D01*
X6143Y-1353D01*
X6170Y-1364D01*
X6199Y-1370D01*
X6229D01*
X6258Y-1364D01*
X6285Y-1353D01*
X6310Y-1337D01*
X6331Y-1316D01*
X6347Y-1291D01*
X6358Y-1264D01*
X6364Y-1235D01*
Y-1205D01*
X6358Y-1176D01*
X6347Y-1149D01*
X6331Y-1124D01*
X6315Y-1109D01*
Y-875D01*
X6311Y-849D01*
X6301Y-825D01*
X6285Y-804D01*
X6264Y-788D01*
X6240Y-778D01*
X6214Y-774D01*
X5892D01*
X5888Y-761D01*
X5904Y-745D01*
X5918Y-721D01*
X5925Y-694D01*
Y-666D01*
X5918Y-639D01*
X5904Y-615D01*
X5885Y-596D01*
X5861Y-582D01*
X5834Y-575D01*
X5806D01*
X5779Y-582D01*
X5755Y-596D01*
X5736Y-615D01*
X5731Y-624D01*
X5630D01*
X5630Y-624D01*
X5608Y-628D01*
X5590Y-640D01*
X5590Y-640D01*
X5568Y-662D01*
X5512D01*
Y-774D01*
X4791D01*
Y-142D01*
X4796Y-134D01*
X4803Y-105D01*
Y-75D01*
X4796Y-46D01*
X4781Y-20D01*
X4760Y1D01*
X4734Y16D01*
X4705Y23D01*
X4675D01*
X4646Y16D01*
X4620Y1D01*
X4599Y-20D01*
X4584Y-46D01*
X4576Y-75D01*
Y-105D01*
X4584Y-134D01*
X4589Y-142D01*
Y-774D01*
X4542D01*
X4524Y-777D01*
X3099D01*
X2801Y-478D01*
Y-62D01*
X2797Y-36D01*
X2787Y-12D01*
X2771Y9D01*
X2709Y72D01*
X2688Y88D01*
X2663Y98D01*
X2637Y101D01*
D02*
G37*
G36*
X7589Y-908D02*
X7556D01*
X7524Y-917D01*
X7496Y-933D01*
X7472Y-957D01*
X7456Y-985D01*
X7447Y-1017D01*
Y-1050D01*
X7456Y-1082D01*
X7472Y-1110D01*
X7496Y-1134D01*
X7524Y-1150D01*
X7556Y-1159D01*
X7589D01*
X7621Y-1150D01*
X7649Y-1134D01*
X7673Y-1110D01*
X7689Y-1082D01*
X7698Y-1050D01*
Y-1017D01*
X7689Y-985D01*
X7673Y-957D01*
X7649Y-933D01*
X7621Y-917D01*
X7589Y-908D01*
D02*
G37*
G36*
X6969D02*
X6936D01*
X6904Y-917D01*
X6876Y-933D01*
X6852Y-957D01*
X6836Y-985D01*
X6827Y-1017D01*
Y-1050D01*
X6836Y-1082D01*
X6852Y-1110D01*
X6876Y-1134D01*
X6904Y-1150D01*
X6936Y-1159D01*
X6969D01*
X7001Y-1150D01*
X7029Y-1134D01*
X7053Y-1110D01*
X7069Y-1082D01*
X7078Y-1050D01*
Y-1017D01*
X7069Y-985D01*
X7053Y-957D01*
X7029Y-933D01*
X7001Y-917D01*
X6969Y-908D01*
D02*
G37*
G36*
X3724Y-1095D02*
X3690D01*
X3659Y-1103D01*
X3630Y-1120D01*
X3607Y-1143D01*
X3590Y-1172D01*
X3587Y-1185D01*
X3573D01*
X3570Y-1172D01*
X3553Y-1143D01*
X3530Y-1120D01*
X3501Y-1103D01*
X3470Y-1095D01*
X3436D01*
X3405Y-1103D01*
X3376Y-1120D01*
X3353Y-1143D01*
X3336Y-1172D01*
X3333Y-1185D01*
X3319D01*
X3316Y-1172D01*
X3299Y-1143D01*
X3276Y-1120D01*
X3247Y-1103D01*
X3216Y-1095D01*
X3182D01*
X3151Y-1103D01*
X3122Y-1120D01*
X3099Y-1143D01*
X3082Y-1172D01*
X3074Y-1203D01*
Y-1237D01*
X3082Y-1268D01*
X3099Y-1297D01*
X3122Y-1320D01*
X3151Y-1337D01*
X3182Y-1345D01*
X3216D01*
X3247Y-1337D01*
X3276Y-1320D01*
X3299Y-1297D01*
X3316Y-1268D01*
X3319Y-1255D01*
X3333D01*
X3336Y-1268D01*
X3353Y-1297D01*
X3376Y-1320D01*
X3405Y-1337D01*
X3436Y-1345D01*
X3470D01*
X3501Y-1337D01*
X3530Y-1320D01*
X3553Y-1297D01*
X3570Y-1268D01*
X3573Y-1255D01*
X3587D01*
X3590Y-1268D01*
X3607Y-1297D01*
X3630Y-1320D01*
X3659Y-1337D01*
X3690Y-1345D01*
X3724D01*
X3755Y-1337D01*
X3784Y-1320D01*
X3807Y-1297D01*
X3824Y-1268D01*
X3832Y-1237D01*
Y-1203D01*
X3824Y-1172D01*
X3807Y-1143D01*
X3784Y-1120D01*
X3755Y-1103D01*
X3724Y-1095D01*
D02*
G37*
G36*
X531Y-600D02*
X469D01*
X406Y-610D01*
X346Y-629D01*
X290Y-658D01*
X239Y-695D01*
X195Y-739D01*
X158Y-790D01*
X129Y-846D01*
X110Y-906D01*
X100Y-969D01*
Y-1031D01*
X110Y-1094D01*
X129Y-1154D01*
X158Y-1210D01*
X195Y-1261D01*
X239Y-1305D01*
X290Y-1342D01*
X346Y-1371D01*
X406Y-1390D01*
X469Y-1400D01*
X531D01*
X594Y-1390D01*
X654Y-1371D01*
X710Y-1342D01*
X761Y-1305D01*
X805Y-1261D01*
X842Y-1210D01*
X871Y-1154D01*
X890Y-1094D01*
X900Y-1031D01*
Y-969D01*
X890Y-906D01*
X871Y-846D01*
X842Y-790D01*
X805Y-739D01*
X761Y-695D01*
X710Y-658D01*
X654Y-629D01*
X594Y-610D01*
X531Y-600D01*
D02*
G37*
G36*
X17209Y4424D02*
X17171D01*
X17134Y4417D01*
X17100Y4403D01*
X17069Y4382D01*
X17042Y4355D01*
X17021Y4324D01*
X17007Y4290D01*
X17000Y4253D01*
Y4215D01*
X17007Y4178D01*
X17021Y4144D01*
X17042Y4113D01*
X17069Y4086D01*
X17100Y4065D01*
X17134Y4051D01*
X17171Y4044D01*
X17209D01*
X17246Y4051D01*
X17280Y4065D01*
X17311Y4086D01*
X17338Y4113D01*
X17359Y4144D01*
X17373Y4178D01*
X17380Y4215D01*
Y4253D01*
X17373Y4290D01*
X17359Y4324D01*
X17338Y4355D01*
X17311Y4382D01*
X17280Y4403D01*
X17246Y4417D01*
X17209Y4424D01*
D02*
G37*
G36*
X14999D02*
X14961D01*
X14924Y4417D01*
X14890Y4403D01*
X14859Y4382D01*
X14832Y4355D01*
X14811Y4324D01*
X14797Y4290D01*
X14790Y4253D01*
Y4215D01*
X14797Y4178D01*
X14811Y4144D01*
X14832Y4113D01*
X14859Y4086D01*
X14890Y4065D01*
X14924Y4051D01*
X14961Y4044D01*
X14999D01*
X15036Y4051D01*
X15070Y4065D01*
X15101Y4086D01*
X15128Y4113D01*
X15149Y4144D01*
X15163Y4178D01*
X15170Y4215D01*
Y4253D01*
X15163Y4290D01*
X15149Y4324D01*
X15128Y4355D01*
X15101Y4382D01*
X15070Y4403D01*
X15036Y4417D01*
X14999Y4424D01*
D02*
G37*
%LPD*%
D14*
X5630Y-680D02*
X5820D01*
X5580Y-730D02*
X5630Y-680D01*
X6728Y167D02*
X7657D01*
X6380Y-180D02*
X6728Y167D01*
X5410Y-180D02*
X6380D01*
X5062Y167D02*
X5410Y-180D01*
X4335Y167D02*
X5062D01*
X7818Y328D02*
Y1243D01*
X7657Y167D02*
X7818Y328D01*
X3830Y672D02*
X4335Y167D01*
X3830Y672D02*
Y1210D01*
X8199Y1313D02*
Y1434D01*
X7888Y1313D02*
X8197D01*
X3390Y1380D02*
X3660D01*
X3830Y1210D01*
X7818Y1243D02*
X7888Y1313D01*
X8197D02*
X8199D01*
Y1434D02*
X8200Y1435D01*
X9112Y3992D02*
X10072D01*
X7212Y4567D02*
Y4947D01*
X7207Y4953D02*
X7212Y4947D01*
X10400Y5115D02*
X10449Y5066D01*
X10485Y5030D01*
X12440Y4750D02*
X12610D01*
Y4950D02*
Y5035D01*
Y4750D02*
Y4950D01*
X12678Y5103D02*
Y5178D01*
X12610Y5035D02*
X12678Y5103D01*
Y5178D02*
X12690Y5190D01*
X6439Y7260D02*
X6560D01*
X6940Y7765D02*
X7195D01*
X6940D02*
Y7790D01*
X7195Y7765D02*
X7220Y7740D01*
X6940Y7325D02*
X7220D01*
X6940Y7310D02*
Y7325D01*
X6580Y6840D02*
Y7000D01*
X6686Y7107D02*
Y7310D01*
X6580Y7000D02*
X6686Y7107D01*
X6814Y7107D02*
X6900Y7020D01*
Y6840D02*
Y7020D01*
X6814Y7107D02*
Y7310D01*
X6686Y7790D02*
Y8508D01*
X6685Y8510D02*
X6686Y8508D01*
X6064Y6766D02*
Y6884D01*
X6560Y7260D02*
Y7310D01*
X6064Y6884D02*
X6439Y7260D01*
X5785Y7274D02*
X5790Y7279D01*
X5780Y7269D02*
X5785Y7274D01*
X5790Y7279D02*
Y7440D01*
X5850Y7500D02*
X6030D01*
X5790Y7440D02*
X5850Y7500D01*
X6230D02*
Y7690D01*
X5780Y7120D02*
Y7269D01*
X6230Y7690D02*
X6330Y7790D01*
X6560D01*
X5780Y8740D02*
Y8889D01*
X5785Y8894D01*
X5787Y8892D02*
X6018D01*
X6020Y8890D01*
X5785Y8894D02*
X5787Y8892D01*
X6220Y8890D02*
X6730D01*
X6860Y8760D01*
Y7980D02*
Y8760D01*
X6814Y7933D02*
X6860Y7980D01*
X6814Y7790D02*
Y7933D01*
D16*
X5530Y782D02*
X5603Y710D01*
X5940D01*
X5530Y1220D02*
X5555Y1245D01*
X5605D02*
X5608Y1242D01*
X5555Y1245D02*
X5605D01*
X5530Y782D02*
Y1220D01*
X1843Y1612D02*
Y1882D01*
X1792Y1933D02*
X1843Y1882D01*
X2150Y3428D02*
X3062D01*
X2010D02*
X2150D01*
X1858D02*
X2010D01*
X1858D02*
Y3695D01*
X1795Y3758D02*
X1858Y3695D01*
X4267Y2200D02*
X4638D01*
X4928Y2490D01*
X4265Y2198D02*
X4267Y2200D01*
X3742Y2195D02*
X3745Y2198D01*
X4265D01*
X8195Y1057D02*
X8197Y1059D01*
X8010Y1055D02*
X8012Y1057D01*
X8195D01*
X8014Y1191D02*
X8193D01*
X8197Y1186D01*
X8010Y1195D02*
X8014Y1191D01*
X7930Y3820D02*
X7972Y3778D01*
Y1790D02*
Y3778D01*
Y1790D02*
X8095Y1667D01*
X8372D01*
X8407Y1633D01*
Y1212D02*
Y1633D01*
X8197Y1186D02*
X8381D01*
X8407Y1212D01*
X8475Y1735D02*
X8683Y1527D01*
X8040Y1835D02*
X8140Y1735D01*
X8475D01*
X8040Y1835D02*
Y3870D01*
X6183Y607D02*
X7040Y1465D01*
Y1933D01*
X5497Y607D02*
X6183D01*
X5297Y807D02*
X5497Y607D01*
X6292Y1352D02*
X6557Y1617D01*
Y1935D01*
X6170Y902D02*
X6838Y1570D01*
Y2662D01*
X6212Y805D02*
X6938Y1530D01*
Y2660D01*
X5647Y805D02*
X6212D01*
X5605Y902D02*
X6170D01*
X5712Y4472D02*
X5797D01*
X5800Y4475D01*
X7930Y3820D02*
Y4470D01*
X8683Y1319D02*
Y1527D01*
X6653Y1595D02*
Y1902D01*
X6288Y1230D02*
X6653Y1595D01*
X8678Y1313D02*
X8683Y1319D01*
X8680Y360D02*
X8770D01*
X8683Y1319D02*
X8901D01*
X8907Y1325D01*
X8679Y1188D02*
X9248D01*
X9250Y1190D01*
X8678Y1186D02*
X8679Y1188D01*
X8678Y1059D02*
X8861D01*
X8960Y960D01*
Y-980D02*
Y960D01*
Y-980D02*
X9030Y-1050D01*
X9850D01*
X9940Y-960D01*
X10210D01*
X8530Y720D02*
X8540Y730D01*
X8361Y1059D02*
X8430Y990D01*
X8197Y1059D02*
X8361D01*
X8430Y738D02*
Y990D01*
X8448Y720D02*
X8530D01*
X8430Y738D02*
X8448Y720D01*
X5270Y4513D02*
X5280Y4503D01*
X5270Y4513D02*
Y4830D01*
X5280Y4195D02*
Y4503D01*
X5180Y4095D02*
X5280Y4195D01*
X2942Y1612D02*
X2950Y1620D01*
X2148Y1612D02*
X2942D01*
X3185Y2258D02*
X3200Y2273D01*
X2008Y1612D02*
X2148D01*
X1838D02*
X2008D01*
X1555Y1933D02*
X1792D01*
X3062Y3428D02*
X3200Y3565D01*
Y4108D01*
X1555Y3758D02*
X1795D01*
X5180Y3790D02*
Y4095D01*
X5031Y3785D02*
X5038D01*
X4829Y3583D02*
X5031Y3785D01*
X4822Y3583D02*
X4829D01*
X6047Y2485D02*
X6335D01*
X6320Y2767D02*
X6320Y2767D01*
X6135Y2767D02*
X6320D01*
X5233Y1400D02*
X5240Y1407D01*
X5233Y1400D02*
X5240D01*
X4750Y1380D02*
X4980D01*
X5000Y1400D02*
X5233D01*
X4980Y1380D02*
X5000Y1400D01*
X5240Y1407D02*
Y1410D01*
D21*
X5367Y1720D02*
D03*
X5227D02*
D03*
X5367Y1880D02*
D03*
X5227D02*
D03*
X5367Y1570D02*
D03*
X5227D02*
D03*
X5367Y1400D02*
D03*
X5227D02*
D03*
X2148Y1612D02*
D03*
X2008D02*
D03*
X12300Y4750D02*
D03*
X12440D02*
D03*
X8680Y360D02*
D03*
X8540D02*
D03*
X2010Y3428D02*
D03*
X2150D02*
D03*
X1858D02*
D03*
X1717D02*
D03*
X1843Y1612D02*
D03*
X1703D02*
D03*
X8538Y512D02*
D03*
X8678D02*
D03*
X8540Y720D02*
D03*
X8680D02*
D03*
D23*
X5580Y-730D02*
D03*
Y-870D02*
D03*
X5608Y1242D02*
D03*
Y1382D02*
D03*
X8200Y1575D02*
D03*
Y1435D02*
D03*
X8010Y1050D02*
D03*
Y1190D02*
D03*
X8907Y1185D02*
D03*
Y1325D02*
D03*
X12020Y4750D02*
D03*
Y4610D02*
D03*
X12690Y5190D02*
D03*
Y5330D02*
D03*
X12170Y4610D02*
D03*
Y4750D02*
D03*
X10210Y-320D02*
D03*
Y-460D02*
D03*
Y-960D02*
D03*
Y-1100D02*
D03*
X9250Y1190D02*
D03*
Y1050D02*
D03*
D28*
X6940Y7310D02*
D03*
X6814D02*
D03*
X6686D02*
D03*
X6560D02*
D03*
X6940Y7790D02*
D03*
X6814D02*
D03*
X6686D02*
D03*
X6560D02*
D03*
D29*
X6888Y5417D02*
D03*
Y5977D02*
D03*
D30*
X7238Y5428D02*
D03*
Y5728D02*
D03*
D31*
X3310Y5300D02*
D03*
X3110D02*
D03*
X6220Y8890D02*
D03*
X6020D02*
D03*
X6230Y7500D02*
D03*
X6030D02*
D03*
D32*
X8678Y1313D02*
D03*
Y1186D02*
D03*
Y1059D02*
D03*
Y932D02*
D03*
X8197Y1313D02*
D03*
Y1186D02*
D03*
Y1059D02*
D03*
Y932D02*
D03*
D35*
X4840Y2830D02*
D03*
Y3030D02*
D03*
X4550Y2830D02*
D03*
Y3030D02*
D03*
X3390Y1180D02*
D03*
Y1380D02*
D03*
X13110Y4950D02*
D03*
Y4750D02*
D03*
X13280Y4950D02*
D03*
Y4750D02*
D03*
X6580Y6840D02*
D03*
Y6640D02*
D03*
X5780Y8540D02*
D03*
Y8740D02*
D03*
X6900Y6840D02*
D03*
Y6640D02*
D03*
X5780Y6920D02*
D03*
Y7120D02*
D03*
D37*
X980Y4628D02*
D03*
X1280D02*
D03*
Y2802D02*
D03*
X980D02*
D03*
D43*
X11140Y1470D02*
D03*
X11540D02*
D03*
X12840D02*
D03*
X13240D02*
D03*
X1790Y8020D02*
D03*
X2190D02*
D03*
X1790Y8530D02*
D03*
X2190D02*
D03*
X2555Y4950D02*
D03*
X2155D02*
D03*
X1660Y3108D02*
D03*
X2060D02*
D03*
D44*
X12610Y4750D02*
D03*
X12938D02*
D03*
X12610Y4950D02*
D03*
X12938D02*
D03*
D46*
X7660Y7340D02*
D03*
Y7740D02*
D03*
X1700Y6600D02*
D03*
Y7000D02*
D03*
X2100D02*
D03*
Y6600D02*
D03*
X7220Y7340D02*
D03*
Y7740D02*
D03*
D108*
X4690Y575D02*
X5400Y1285D01*
X4690Y388D02*
Y575D01*
X5400Y1285D02*
Y1400D01*
X4685Y-875D02*
X6214D01*
X4542D02*
X4685D01*
X4690Y-870D02*
Y-90D01*
X4685Y-875D02*
X4690Y-870D01*
X3058Y-877D02*
X4449D01*
X4540D01*
X4449Y-1220D02*
Y-877D01*
X7590Y776D02*
Y2160D01*
X7715Y2285D02*
Y2501D01*
X7590Y2160D02*
X7715Y2285D01*
X7357Y718D02*
X7531D01*
X7590Y776D01*
X7418Y2501D02*
X7715D01*
X5900Y3050D02*
X6870D01*
X7418Y2501D01*
X2235Y0D02*
X2637D01*
X2700Y-62D01*
Y-520D02*
Y-62D01*
Y-520D02*
X3058Y-877D01*
X4540D02*
X4542Y-875D01*
X10072Y3992D02*
Y4470D01*
Y1395D02*
Y3992D01*
X6214Y-1220D02*
Y-875D01*
X7207Y4953D02*
X7982D01*
X5800D02*
X7207D01*
X10312Y1395D02*
X10532Y1175D01*
X10725D02*
X10740Y1160D01*
X10532Y1175D02*
X10725D01*
X10740Y1470D02*
Y1640D01*
X10910Y1810D02*
X12300D01*
X10740Y1640D02*
X10910Y1810D01*
X9507Y1395D02*
X10072D01*
X9743Y4800D02*
X10072Y4470D01*
Y1395D02*
X10312D01*
X5800Y4475D02*
Y4953D01*
Y3350D02*
Y4475D01*
X5358Y4953D02*
X5800D01*
X5232Y5078D02*
X5358Y4953D01*
X5232Y5078D02*
Y5288D01*
X7982Y4953D02*
X8555Y4380D01*
X9788D01*
X12440Y1400D02*
Y1670D01*
X10740Y1350D02*
Y1470D01*
X8550Y4800D02*
X9743D01*
X12440Y1160D02*
Y1400D01*
X12300Y1810D02*
X12440Y1670D01*
X12815Y1445D02*
X12840Y1470D01*
X12440Y1400D02*
X12485Y1445D01*
X12815D01*
X10740Y1470D02*
X11140D01*
X10740Y1470D02*
X10740Y1470D01*
Y1160D02*
Y1350D01*
X10740Y1160D02*
X10740Y1160D01*
X11540Y1470D02*
X11810D01*
X11925Y1175D02*
X11940Y1160D01*
X11925Y1175D02*
Y1355D01*
X11810Y1470D02*
X11925Y1355D01*
X13240Y1470D02*
X13520D01*
X13625Y1175D02*
Y1365D01*
Y1175D02*
X13640Y1160D01*
X13520Y1470D02*
X13625Y1365D01*
X8585Y5275D02*
X8685D01*
X8690Y5270D01*
X8550Y5310D02*
X8585Y5275D01*
X8550Y4800D02*
Y5310D01*
X8432Y5428D02*
X8550Y5310D01*
X7238Y5428D02*
X8432D01*
X6943Y5422D02*
X6948Y5428D01*
X7238D01*
X2080Y2273D02*
X2080Y2273D01*
X600Y2102D02*
X1555D01*
X600Y3928D02*
X940Y3588D01*
X1555D01*
X600Y3928D02*
X1555D01*
X13281Y4950D02*
Y6087D01*
X13110Y4950D02*
X13280D01*
X12938D02*
X13110D01*
X13281Y4563D02*
Y4750D01*
X13110D02*
X13280D01*
X12938D02*
X13110D01*
X13280D02*
X13281D01*
X13280Y4950D02*
X13281D01*
X6580Y6640D02*
X6892D01*
X6190D02*
X6580D01*
X9530Y7580D02*
X9530Y7580D01*
X8165Y6645D02*
X9100Y7580D01*
X9530D01*
X7550Y6645D02*
X8165D01*
X7035Y8180D02*
Y8510D01*
X7161Y8139D02*
X7220Y8080D01*
X7035Y8144D02*
Y8180D01*
Y8144D02*
X7040Y8139D01*
X7161D01*
X7220Y7740D02*
Y8080D01*
X5782Y8389D02*
Y8540D01*
X5360Y7650D02*
X5570D01*
X5785Y7865D01*
Y8386D01*
X6636D01*
X6685Y8435D01*
Y8510D01*
X6064Y6766D02*
X6190Y6640D01*
X6900D02*
X7545D01*
X5782Y6768D02*
Y6920D01*
X5785Y6766D02*
X6064D01*
X5780Y6920D02*
X5782D01*
Y6768D02*
X5785Y6766D01*
X5782Y8389D02*
X5785Y8386D01*
X5780Y8540D02*
X5782D01*
X11870Y7415D02*
X11875Y7420D01*
D109*
X1180Y11231D02*
X1180Y11231D01*
Y11320D02*
X1604Y11744D01*
X1957D02*
X2048D01*
X1604D02*
X1957D01*
X1180Y11231D02*
Y11320D01*
X2053Y10053D02*
X2264Y10264D01*
X2688Y9037D02*
X2805Y8920D01*
X2444Y9037D02*
X2688D01*
X2805Y5300D02*
Y8920D01*
X2440Y9041D02*
X2444Y9037D01*
X2159Y9041D02*
X2440D01*
X2040Y9160D02*
X2159Y9041D01*
X1190Y9160D02*
X2040D01*
X1250Y6540D02*
Y7850D01*
X890Y8210D02*
Y8860D01*
Y8210D02*
X1250Y7850D01*
X2100Y7000D02*
X2426D01*
X2435Y7009D01*
X2440D01*
X1700Y7000D02*
Y7390D01*
X1827Y7517D02*
X2440D01*
X1700Y7390D02*
X1827Y7517D01*
X2202Y8022D02*
X2438D01*
X2440Y8025D01*
X2200Y8020D02*
X2202Y8022D01*
X2190Y8530D02*
X2192Y8532D01*
X2439D02*
X2440Y8533D01*
X2192Y8532D02*
X2439D01*
X200Y6350D02*
X1060D01*
X1250Y6540D01*
X890Y8860D02*
X1190Y9160D01*
X7650Y7750D02*
X7660Y7740D01*
X7650Y7750D02*
Y7969D01*
X7610Y9640D02*
X7830D01*
X5300Y9640D02*
X7610Y9640D01*
X4950Y8640D02*
Y9420D01*
X8058Y9868D02*
Y10279D01*
X8077Y10298D01*
X7830Y9640D02*
X8058Y9868D01*
X1900Y9900D02*
X2050Y10050D01*
X1957Y10143D02*
Y10148D01*
Y10143D02*
X2000Y10100D01*
X1700Y9900D02*
X1900D01*
X1181D02*
X1700D01*
X1697Y9903D02*
X1700Y9900D01*
X1697Y9903D02*
Y10326D01*
X2264Y10264D02*
Y10526D01*
X2267Y10530D01*
X1180Y10469D02*
X1181Y10468D01*
Y9900D02*
Y10468D01*
X419Y9900D02*
Y10604D01*
X420Y10605D01*
X1957Y11835D02*
X2048Y11744D01*
X1957Y11835D02*
Y11900D01*
X2048Y11744D02*
X2262Y11530D01*
X2267D01*
X5131Y10526D02*
X5135Y10530D01*
X5131Y10331D02*
Y10526D01*
X5008Y10208D02*
X5131Y10331D01*
X4677Y10208D02*
X5008D01*
X4047D02*
X4677D01*
X3714D02*
X4047D01*
X3596Y10325D02*
Y10526D01*
Y10325D02*
X3714Y10208D01*
X3593Y10530D02*
X3596Y10526D01*
X3598Y11530D02*
X3800Y11732D01*
X4047D01*
X3593Y11530D02*
X3598D01*
X4047Y11732D02*
X4677D01*
X4927D02*
X5129Y11530D01*
X4677Y11732D02*
X4927D01*
X5129Y11530D02*
X5135D01*
X542Y11231D02*
X1180D01*
X425Y10960D02*
Y11114D01*
X542Y11231D01*
X420Y10955D02*
X425Y10960D01*
D110*
X10765Y4750D02*
X12020D01*
X10485Y5030D02*
X10765Y4750D01*
X12170D02*
X12290D01*
X12020D02*
X12170D01*
X12290D02*
X12300Y4760D01*
Y4750D02*
Y4760D01*
X9247Y1188D02*
X9248Y1188D01*
X8540Y720D02*
Y730D01*
X10210Y-960D02*
Y-460D01*
X10220Y203D02*
X10228Y195D01*
X10220Y188D02*
X10228Y195D01*
X10220Y203D02*
Y222D01*
X9393Y-710D02*
X9700D01*
X9393D02*
X9418Y-685D01*
X9290Y-710D02*
X9393D01*
D111*
X1600Y850D02*
X1610Y840D01*
D112*
X7676Y10806D02*
X8077D01*
X7467Y10597D02*
X7676Y10806D01*
X7020Y10288D02*
X7467D01*
X6702D02*
X7020D01*
X6460Y11530D02*
X6742Y11812D01*
X7040D01*
X3710Y7009D02*
Y7517D01*
Y6332D02*
Y7009D01*
Y6332D02*
X3712Y6330D01*
X7027Y10148D02*
Y10281D01*
X7020Y10288D02*
X7027Y10281D01*
X6460Y10530D02*
X6702Y10288D01*
X7040Y11812D02*
X7467D01*
X7040D02*
Y11889D01*
X7027Y11902D02*
X7040Y11889D01*
X7467Y10288D02*
Y10597D01*
Y11533D02*
Y11812D01*
X8068Y11324D02*
X8077Y11314D01*
X7676Y11324D02*
X8068D01*
X7467Y11533D02*
X7676Y11324D01*
D113*
X9270Y11310D02*
X9660Y11700D01*
X10425D01*
X8288Y11822D02*
X8800Y11310D01*
X9270D01*
X8077Y11822D02*
X8288D01*
X10985Y9875D02*
X11875D01*
X10595Y9485D02*
X10985Y9875D01*
X10595Y7990D02*
Y9485D01*
X10620Y6875D02*
X11875D01*
X10595Y5635D02*
Y7990D01*
Y5635D02*
X10895Y5335D01*
X12030D01*
D114*
X6678Y5422D02*
X6943D01*
X6500Y5600D02*
X6678Y5422D01*
X6300Y5600D02*
X6500D01*
X6100D02*
X6300D01*
X5900D02*
X6100D01*
X3480D02*
X5900D01*
X2800Y4958D02*
X2805Y4962D01*
Y4965D01*
X2562Y4958D02*
X2800D01*
X2555Y4950D02*
X2562Y4958D01*
X2805Y4965D02*
Y5300D01*
X7220Y7325D02*
X7235Y7340D01*
X7660D01*
X7550Y6895D02*
X7660Y7005D01*
Y7340D01*
D115*
X5232Y5288D02*
D03*
X5486D02*
D03*
X5994D02*
D03*
X5740D02*
D03*
X4978D02*
D03*
X5211Y-1220D02*
D03*
X4957D02*
D03*
X4703D02*
D03*
X4449D02*
D03*
X5960D02*
D03*
X6214D02*
D03*
X5706D02*
D03*
X7357Y464D02*
D03*
Y718D02*
D03*
Y972D02*
D03*
Y1226D02*
D03*
Y1480D02*
D03*
X10220Y-1302D02*
D03*
Y222D02*
D03*
X4728Y6330D02*
D03*
X3712D02*
D03*
X3199Y-1220D02*
D03*
X3453D02*
D03*
X3707D02*
D03*
X3961D02*
D03*
X7715Y2501D02*
D03*
Y2756D02*
D03*
Y3009D02*
D03*
Y3263D02*
D03*
X14649Y9775D02*
D03*
X16300D02*
D03*
X17450D02*
D03*
X19101D02*
D03*
X419Y9900D02*
D03*
X1181D02*
D03*
X1180Y10469D02*
D03*
Y11231D02*
D03*
X7650Y9620D02*
D03*
Y7969D02*
D03*
X19012Y-920D02*
D03*
X17488D02*
D03*
X18300Y2710D02*
D03*
X18554D02*
D03*
X14980D02*
D03*
X15234D02*
D03*
X17190D02*
D03*
X17444D02*
D03*
X16090D02*
D03*
X16344D02*
D03*
X6953Y-1288D02*
D03*
Y-1034D02*
D03*
X7572Y-1288D02*
D03*
Y-1034D02*
D03*
X18088Y1800D02*
D03*
X19612D02*
D03*
X4677Y11732D02*
D03*
Y10208D02*
D03*
X4047Y11732D02*
D03*
Y10208D02*
D03*
X7467Y11812D02*
D03*
Y10288D02*
D03*
D116*
X6248Y5288D02*
D03*
D117*
X5820Y-680D02*
D03*
Y80D02*
D03*
X8275Y6250D02*
D03*
X9530Y8780D02*
D03*
X9530Y6980D02*
D03*
D118*
X10740Y1160D02*
D03*
X11940D02*
D03*
X12440D02*
D03*
X13640D02*
D03*
D119*
X11340Y960D02*
D03*
X11940Y2380D02*
D03*
X10740D02*
D03*
X11390Y-985D02*
D03*
X13080D02*
D03*
X18599Y11800D02*
D03*
X15851D02*
D03*
X19890Y8065D02*
D03*
Y5815D02*
D03*
X18702Y8736D02*
D03*
X18194D02*
D03*
X17686D02*
D03*
X15654D02*
D03*
X15146D02*
D03*
X14638D02*
D03*
Y5180D02*
D03*
X15146D02*
D03*
X15654D02*
D03*
X16162D02*
D03*
X17178D02*
D03*
X17686D02*
D03*
X18194D02*
D03*
X18702D02*
D03*
X13040Y960D02*
D03*
X13640Y2380D02*
D03*
X12440D02*
D03*
X13275Y6903D02*
D03*
Y9650D02*
D03*
X14651Y10625D02*
D03*
X20045Y3550D02*
D03*
X17399Y10625D02*
D03*
D120*
X4267Y2327D02*
D03*
Y2200D02*
D03*
Y2073D02*
D03*
X3742Y2322D02*
D03*
Y2195D02*
D03*
Y2068D02*
D03*
D121*
X11390Y-235D02*
D03*
X13080D02*
D03*
D122*
X265Y5110D02*
D03*
X275Y7410D02*
D03*
X260Y5810D02*
D03*
X1245Y7410D02*
D03*
X7550Y6645D02*
D03*
D123*
X515Y5110D02*
D03*
X525Y7410D02*
D03*
X510Y5810D02*
D03*
X995Y7410D02*
D03*
D124*
X7550Y6895D02*
D03*
D125*
X10750Y3050D02*
D03*
Y3550D02*
D03*
X11450D02*
D03*
Y3050D02*
D03*
X12450Y3550D02*
D03*
Y3050D02*
D03*
X13150D02*
D03*
Y3550D02*
D03*
D126*
X420Y10605D02*
D03*
X280Y6740D02*
D03*
X4210Y5075D02*
D03*
X4560D02*
D03*
D127*
X420Y10955D02*
D03*
D128*
X630Y6740D02*
D03*
X3860Y5075D02*
D03*
D129*
X1957Y11900D02*
D03*
Y11138D02*
D03*
X7027Y11902D02*
D03*
Y11140D02*
D03*
X1957Y10910D02*
D03*
Y10148D02*
D03*
X7027Y10910D02*
D03*
Y10148D02*
D03*
X6757Y10826D02*
D03*
Y10318D02*
D03*
Y11736D02*
D03*
Y11228D02*
D03*
X1687Y11744D02*
D03*
Y11236D02*
D03*
X1697Y10834D02*
D03*
Y10326D02*
D03*
D130*
X2267Y11530D02*
D03*
X3593D02*
D03*
X2267Y10530D02*
D03*
X3593D02*
D03*
X5135Y11530D02*
D03*
X6460D02*
D03*
X5135Y10530D02*
D03*
X6460D02*
D03*
X2440Y7009D02*
D03*
Y7517D02*
D03*
Y8025D02*
D03*
Y8533D02*
D03*
Y9041D02*
D03*
X3710D02*
D03*
Y8533D02*
D03*
Y7517D02*
D03*
Y7009D02*
D03*
D131*
X290Y11880D02*
D03*
X380Y11800D02*
D03*
Y12210D02*
D03*
X300Y12120D02*
D03*
X710D02*
D03*
X620Y12200D02*
D03*
X700Y11880D02*
D03*
X620Y11790D02*
D03*
X500Y11760D02*
D03*
X740Y12000D02*
D03*
X260D02*
D03*
X500Y12240D02*
D03*
X8790Y11880D02*
D03*
X8880Y11800D02*
D03*
Y12210D02*
D03*
X8800Y12120D02*
D03*
X9210D02*
D03*
X9120Y12200D02*
D03*
X9200Y11880D02*
D03*
X9120Y11790D02*
D03*
X9000Y11760D02*
D03*
X9240Y12000D02*
D03*
X8760D02*
D03*
X9000Y12240D02*
D03*
X19790Y11880D02*
D03*
X19880Y11800D02*
D03*
Y12210D02*
D03*
X19800Y12120D02*
D03*
X20210D02*
D03*
X20120Y12200D02*
D03*
X20200Y11880D02*
D03*
X20120Y11790D02*
D03*
X20000Y11760D02*
D03*
X20240Y12000D02*
D03*
X19760D02*
D03*
X20000Y12240D02*
D03*
X19790Y-1120D02*
D03*
X19880Y-1200D02*
D03*
Y-790D02*
D03*
X19800Y-880D02*
D03*
X20210D02*
D03*
X20120Y-800D02*
D03*
X20200Y-1120D02*
D03*
X20120Y-1210D02*
D03*
X20000Y-1240D02*
D03*
X20240Y-1000D02*
D03*
X19760D02*
D03*
X20000Y-760D02*
D03*
X8290Y-1120D02*
D03*
X8380Y-1200D02*
D03*
Y-790D02*
D03*
X8300Y-880D02*
D03*
X8710D02*
D03*
X8620Y-800D02*
D03*
X8700Y-1120D02*
D03*
X8620Y-1210D02*
D03*
X8500Y-1240D02*
D03*
X8740Y-1000D02*
D03*
X8260D02*
D03*
X8500Y-760D02*
D03*
X290Y-1120D02*
D03*
X380Y-1200D02*
D03*
Y-790D02*
D03*
X300Y-880D02*
D03*
X710D02*
D03*
X620Y-800D02*
D03*
X700Y-1120D02*
D03*
X620Y-1210D02*
D03*
X500Y-1240D02*
D03*
X740Y-1000D02*
D03*
X260D02*
D03*
X500Y-760D02*
D03*
D132*
Y12000D02*
D03*
X9000D02*
D03*
X20000D02*
D03*
Y-1000D02*
D03*
X8500D02*
D03*
X500D02*
D03*
D133*
X2517Y-968D02*
D03*
X2238Y-960D02*
D03*
D134*
X11875Y9875D02*
D03*
Y9330D02*
D03*
X18300Y4234D02*
D03*
X14980D02*
D03*
X17190D02*
D03*
X19490Y1280D02*
D03*
X18990D02*
D03*
Y-420D02*
D03*
X19490D02*
D03*
X17490Y1280D02*
D03*
X16990D02*
D03*
Y-420D02*
D03*
X17490D02*
D03*
X14100Y360D02*
D03*
Y860D02*
D03*
X15800D02*
D03*
Y360D02*
D03*
X16090Y4234D02*
D03*
X11875Y6875D02*
D03*
X8077Y10298D02*
D03*
X11875Y7420D02*
D03*
X8077Y11822D02*
D03*
Y10806D02*
D03*
Y11314D02*
D03*
D135*
X11875Y8785D02*
D03*
X11875Y6330D02*
D03*
D136*
X13025Y11675D02*
D03*
X13275Y10675D02*
D03*
X10425Y11700D02*
D03*
X10675Y10700D02*
D03*
X9845Y6875D02*
D03*
X9845Y9470D02*
D03*
D137*
X18046Y2710D02*
D03*
X14726D02*
D03*
X16936D02*
D03*
X15836D02*
D03*
D138*
X8875Y6250D02*
D03*
D139*
X13850Y5725D02*
D03*
X12030Y5335D02*
D03*
D140*
X13281Y4563D02*
D03*
Y6087D02*
D03*
X12519Y5325D02*
D03*
D141*
X1202Y-593D02*
D03*
D142*
Y35D02*
D03*
D143*
X10595Y7990D02*
D03*
D144*
X9530Y9380D02*
D03*
X9530Y7580D02*
D03*
D145*
X11865Y7990D02*
D03*
D146*
X19295Y3550D02*
D03*
D147*
X7930Y-620D02*
D03*
Y-770D02*
D03*
Y-920D02*
D03*
Y-1070D02*
D03*
Y-1220D02*
D03*
Y-1370D02*
D03*
X700Y4400D02*
D03*
X500D02*
D03*
X700Y4200D02*
D03*
X500D02*
D03*
X700Y4000D02*
D03*
X500D02*
D03*
X700Y3800D02*
D03*
X500D02*
D03*
X700Y3600D02*
D03*
X500D02*
D03*
X700Y3400D02*
D03*
X500D02*
D03*
X700Y3200D02*
D03*
X500Y3200D02*
D03*
X700Y3000D02*
D03*
X500D02*
D03*
X700Y2800D02*
D03*
Y2600D02*
D03*
Y2400D02*
D03*
X500Y2800D02*
D03*
Y2600D02*
D03*
Y2400D02*
D03*
X700Y2200D02*
D03*
X698Y1990D02*
D03*
Y1790D02*
D03*
Y1590D02*
D03*
Y1390D02*
D03*
X500Y2200D02*
D03*
X498Y1990D02*
D03*
Y1790D02*
D03*
Y1590D02*
D03*
Y1390D02*
D03*
X298D02*
D03*
Y1590D02*
D03*
Y1790D02*
D03*
Y1990D02*
D03*
X300Y2200D02*
D03*
Y2400D02*
D03*
Y2600D02*
D03*
Y2800D02*
D03*
Y3000D02*
D03*
Y3200D02*
D03*
Y3400D02*
D03*
Y3600D02*
D03*
Y3800D02*
D03*
Y4000D02*
D03*
Y4200D02*
D03*
Y4400D02*
D03*
Y4600D02*
D03*
X500Y4600D02*
D03*
X700D02*
D03*
X900D02*
D03*
Y4400D02*
D03*
Y4200D02*
D03*
Y4000D02*
D03*
Y3800D02*
D03*
Y3600D02*
D03*
Y3400D02*
D03*
Y3200D02*
D03*
Y3000D02*
D03*
Y2800D02*
D03*
Y2600D02*
D03*
Y2400D02*
D03*
Y2200D02*
D03*
Y2000D02*
D03*
Y1800D02*
D03*
Y1600D02*
D03*
Y1400D02*
D03*
Y1200D02*
D03*
X700D02*
D03*
X500D02*
D03*
X300D02*
D03*
X100D02*
D03*
Y1400D02*
D03*
Y1600D02*
D03*
Y1800D02*
D03*
Y2000D02*
D03*
Y2200D02*
D03*
Y2400D02*
D03*
Y2600D02*
D03*
Y2800D02*
D03*
Y3000D02*
D03*
Y3200D02*
D03*
Y3400D02*
D03*
Y3600D02*
D03*
Y3800D02*
D03*
Y4000D02*
D03*
Y4200D02*
D03*
Y4400D02*
D03*
Y4600D02*
D03*
Y4800D02*
D03*
X4690Y-90D02*
D03*
Y388D02*
D03*
X9788Y4380D02*
D03*
X9507Y1395D02*
D03*
X8690Y5270D02*
D03*
X8550Y4800D02*
D03*
X10800Y550D02*
D03*
X11000D02*
D03*
X11200D02*
D03*
X11400D02*
D03*
Y750D02*
D03*
X11200D02*
D03*
X11000D02*
D03*
X10800D02*
D03*
X10600D02*
D03*
X9950D02*
D03*
X10200D02*
D03*
X10400D02*
D03*
Y950D02*
D03*
X10200D02*
D03*
X9950D02*
D03*
X9450Y-450D02*
D03*
Y-250D02*
D03*
Y-50D02*
D03*
Y150D02*
D03*
Y350D02*
D03*
Y550D02*
D03*
Y750D02*
D03*
Y950D02*
D03*
X9700D02*
D03*
Y750D02*
D03*
Y550D02*
D03*
Y350D02*
D03*
Y150D02*
D03*
Y-50D02*
D03*
Y-250D02*
D03*
Y-450D02*
D03*
X9200D02*
D03*
Y-250D02*
D03*
Y-50D02*
D03*
Y150D02*
D03*
Y350D02*
D03*
Y550D02*
D03*
Y750D02*
D03*
Y950D02*
D03*
X18750Y-500D02*
D03*
Y-750D02*
D03*
Y-1000D02*
D03*
X19550Y-650D02*
D03*
X19500Y-900D02*
D03*
X19550Y-1150D02*
D03*
Y-1400D02*
D03*
X19300D02*
D03*
X19050D02*
D03*
X18800D02*
D03*
X16250D02*
D03*
X16000D02*
D03*
X15750D02*
D03*
X15500D02*
D03*
X15250D02*
D03*
X15000D02*
D03*
X14750D02*
D03*
X14500D02*
D03*
X14250D02*
D03*
X14000D02*
D03*
X13750D02*
D03*
X13500D02*
D03*
X13250D02*
D03*
X13000D02*
D03*
X12750D02*
D03*
X12500D02*
D03*
X12250D02*
D03*
X12000D02*
D03*
X11750D02*
D03*
X11500D02*
D03*
X11250D02*
D03*
X11000D02*
D03*
X10750D02*
D03*
X10500D02*
D03*
X18700Y-1200D02*
D03*
X18550D02*
D03*
X18400D02*
D03*
X18250D02*
D03*
X18100D02*
D03*
X17950D02*
D03*
X17800D02*
D03*
X17650D02*
D03*
X17500D02*
D03*
X17350D02*
D03*
X17200D02*
D03*
X17050D02*
D03*
X16900D02*
D03*
X16750D02*
D03*
X16600D02*
D03*
X16450D02*
D03*
X18650Y-1350D02*
D03*
X18500D02*
D03*
X18350D02*
D03*
X18200D02*
D03*
X18050D02*
D03*
X17900D02*
D03*
X17750D02*
D03*
X17600D02*
D03*
X17450D02*
D03*
X17300D02*
D03*
X17150D02*
D03*
X17000D02*
D03*
X16850D02*
D03*
X16700D02*
D03*
X16550D02*
D03*
X16400D02*
D03*
X10050D02*
D03*
X9900D02*
D03*
X9750D02*
D03*
X9600D02*
D03*
X9450D02*
D03*
X9300D02*
D03*
X9150D02*
D03*
X5900Y5600D02*
D03*
X6100D02*
D03*
X6300D02*
D03*
X6500D02*
D03*
X3480D02*
D03*
X3330D02*
D03*
X1670Y4390D02*
D03*
X1540D02*
D03*
X1410D02*
D03*
X1660Y2630D02*
D03*
X1530D02*
D03*
X1400D02*
D03*
X1270D02*
D03*
X1280Y4390D02*
D03*
X6280Y6640D02*
D03*
X4400Y9000D02*
D03*
Y9200D02*
D03*
Y9400D02*
D03*
X4600D02*
D03*
Y9200D02*
D03*
Y9000D02*
D03*
Y8800D02*
D03*
X4400D02*
D03*
Y8600D02*
D03*
X4600D02*
D03*
X4800D02*
D03*
Y8800D02*
D03*
Y9000D02*
D03*
Y9200D02*
D03*
Y9400D02*
D03*
X5000D02*
D03*
Y9200D02*
D03*
Y9000D02*
D03*
Y8800D02*
D03*
Y8600D02*
D03*
Y8400D02*
D03*
X4800D02*
D03*
X4600D02*
D03*
X4400D02*
D03*
Y8200D02*
D03*
X4600D02*
D03*
X4800D02*
D03*
X5000D02*
D03*
X5200D02*
D03*
Y8400D02*
D03*
Y8600D02*
D03*
Y8800D02*
D03*
Y9000D02*
D03*
Y9200D02*
D03*
Y9400D02*
D03*
Y9600D02*
D03*
X5000D02*
D03*
X4800D02*
D03*
X4600D02*
D03*
X4400D02*
D03*
X4600Y7000D02*
D03*
X4800D02*
D03*
Y7200D02*
D03*
X4600D02*
D03*
Y7400D02*
D03*
X4800D02*
D03*
X5000D02*
D03*
Y7200D02*
D03*
Y7000D02*
D03*
Y6800D02*
D03*
X4800D02*
D03*
X4600D02*
D03*
X4800Y6400D02*
D03*
X5000D02*
D03*
X4600D02*
D03*
Y6600D02*
D03*
X4800D02*
D03*
X5000D02*
D03*
X4400Y6400D02*
D03*
Y6600D02*
D03*
Y6800D02*
D03*
Y7000D02*
D03*
Y7200D02*
D03*
Y7400D02*
D03*
Y6200D02*
D03*
X4600D02*
D03*
X4800D02*
D03*
X5000D02*
D03*
X5200D02*
D03*
Y6400D02*
D03*
Y6600D02*
D03*
Y6800D02*
D03*
Y7000D02*
D03*
Y7200D02*
D03*
Y7400D02*
D03*
Y7600D02*
D03*
X5000D02*
D03*
X4800D02*
D03*
X4600D02*
D03*
X4400D02*
D03*
D148*
X9850Y5250D02*
D03*
Y5340D02*
D03*
X9760Y5250D02*
D03*
X9670D02*
D03*
Y5340D02*
D03*
Y5430D02*
D03*
Y5520D02*
D03*
Y5610D02*
D03*
Y5700D02*
D03*
Y5790D02*
D03*
Y5880D02*
D03*
Y6060D02*
D03*
Y5970D02*
D03*
X9760Y5340D02*
D03*
Y5430D02*
D03*
Y5520D02*
D03*
Y5610D02*
D03*
Y5700D02*
D03*
Y5790D02*
D03*
Y5880D02*
D03*
Y5970D02*
D03*
X10520Y4790D02*
D03*
X10450D02*
D03*
X10380D02*
D03*
X10290D02*
D03*
X10190D02*
D03*
X10160Y5020D02*
D03*
X5600Y-400D02*
D03*
X5700D02*
D03*
X5800D02*
D03*
X5900D02*
D03*
X6000D02*
D03*
Y-300D02*
D03*
X5900D02*
D03*
X5800D02*
D03*
X5700D02*
D03*
X5600D02*
D03*
X5850Y360D02*
D03*
X5940Y710D02*
D03*
X12120Y3930D02*
D03*
X12210D02*
D03*
X12300D02*
D03*
X12390D02*
D03*
X12480D02*
D03*
X12570D02*
D03*
X12660D02*
D03*
X12750D02*
D03*
Y4020D02*
D03*
Y4110D02*
D03*
Y4200D02*
D03*
Y4290D02*
D03*
Y4380D02*
D03*
Y4470D02*
D03*
Y4560D02*
D03*
X11040Y4530D02*
D03*
X10950D02*
D03*
X10860D02*
D03*
X10770D02*
D03*
X10680D02*
D03*
X10590D02*
D03*
X10500D02*
D03*
X10410D02*
D03*
X10290Y3960D02*
D03*
X10380D02*
D03*
X10470D02*
D03*
X10560D02*
D03*
X10650D02*
D03*
X10740D02*
D03*
X10830D02*
D03*
X9270Y3540D02*
D03*
Y3630D02*
D03*
Y3720D02*
D03*
Y3810D02*
D03*
X9210Y3870D02*
D03*
X9120D02*
D03*
X9030D02*
D03*
X8940D02*
D03*
X8850D02*
D03*
X8760D02*
D03*
X8880Y3210D02*
D03*
X8790D02*
D03*
X8700D02*
D03*
X8610D02*
D03*
X8520D02*
D03*
X8430D02*
D03*
X10230Y1950D02*
D03*
Y1890D02*
D03*
Y1830D02*
D03*
Y1590D02*
D03*
Y1530D02*
D03*
X8670Y840D02*
D03*
Y750D02*
D03*
Y660D02*
D03*
Y570D02*
D03*
Y480D02*
D03*
X8760Y840D02*
D03*
Y750D02*
D03*
Y660D02*
D03*
Y570D02*
D03*
Y480D02*
D03*
X7800Y1440D02*
D03*
X7890D02*
D03*
X7980D02*
D03*
X8070D02*
D03*
Y1530D02*
D03*
X7980D02*
D03*
X7890D02*
D03*
X7800D02*
D03*
X6010Y360D02*
D03*
X5930D02*
D03*
X5820Y450D02*
D03*
Y530D02*
D03*
X4928Y2490D02*
D03*
X6000Y4700D02*
D03*
X4235Y4408D02*
D03*
X2235Y0D02*
D03*
X6557Y1935D02*
D03*
X7040Y1933D02*
D03*
X6838Y2662D02*
D03*
X6938Y2660D02*
D03*
X5647Y805D02*
D03*
X5605Y902D02*
D03*
X9112Y3992D02*
D03*
X7212Y4567D02*
D03*
X5712Y4472D02*
D03*
X6292Y1352D02*
D03*
X6288Y1230D02*
D03*
X6653Y1902D02*
D03*
X7930Y4470D02*
D03*
X8040Y3870D02*
D03*
X8770Y360D02*
D03*
X5270Y4830D02*
D03*
X5180Y3790D02*
D03*
X5038Y3785D02*
D03*
X4822Y3583D02*
D03*
X6047Y2508D02*
D03*
X6335Y2485D02*
D03*
X6320Y2770D02*
D03*
X6135Y2767D02*
D03*
X4750Y1380D02*
D03*
X5297Y807D02*
D03*
X10400Y5115D02*
D03*
D149*
X5500Y1400D02*
D03*
X5900Y2650D02*
D03*
X5600D02*
D03*
X5500D02*
D03*
X5600Y2750D02*
D03*
X5500D02*
D03*
Y2850D02*
D03*
X5600D02*
D03*
Y2950D02*
D03*
X5500D02*
D03*
Y3050D02*
D03*
X5600D02*
D03*
X5700D02*
D03*
Y2950D02*
D03*
Y2850D02*
D03*
Y2750D02*
D03*
Y2650D02*
D03*
X5800D02*
D03*
Y2750D02*
D03*
Y2850D02*
D03*
Y2950D02*
D03*
Y3050D02*
D03*
Y3150D02*
D03*
X5700D02*
D03*
X5500Y3350D02*
D03*
Y3250D02*
D03*
Y3150D02*
D03*
X5600D02*
D03*
Y3350D02*
D03*
X5700D02*
D03*
X5800D02*
D03*
X5900D02*
D03*
X5600Y3250D02*
D03*
X5700D02*
D03*
X5800D02*
D03*
X5900D02*
D03*
Y3150D02*
D03*
Y3050D02*
D03*
Y2950D02*
D03*
Y2850D02*
D03*
Y2750D02*
D03*
X5500Y1500D02*
D03*
X5600D02*
D03*
X5700D02*
D03*
X5800D02*
D03*
Y1600D02*
D03*
X5700D02*
D03*
X5600D02*
D03*
X5500D02*
D03*
Y1700D02*
D03*
X5600D02*
D03*
X5700D02*
D03*
X5800D02*
D03*
Y1800D02*
D03*
X5700D02*
D03*
X5600D02*
D03*
X5500D02*
D03*
X5400D02*
D03*
Y1700D02*
D03*
Y1600D02*
D03*
Y1500D02*
D03*
Y1400D02*
D03*
X5600D02*
D03*
X5700D02*
D03*
X5800D02*
D03*
X5900D02*
D03*
Y1500D02*
D03*
Y1600D02*
D03*
Y1700D02*
D03*
Y1800D02*
D03*
Y1900D02*
D03*
X5800D02*
D03*
X5700D02*
D03*
X5600D02*
D03*
X5500D02*
D03*
X5400D02*
D03*
D150*
X5060Y2800D02*
D03*
D151*
X5060Y3030D02*
D03*
Y3260D02*
D03*
D152*
X5720Y3030D02*
D03*
D153*
X3200Y2273D02*
D03*
X2080D02*
D03*
X960Y5790D02*
D03*
X2080D02*
D03*
X340Y8500D02*
D03*
X1460D02*
D03*
X2080Y4108D02*
D03*
X3200D02*
D03*
D154*
X3365Y4965D02*
D03*
X2805D02*
D03*
D155*
X3080Y1510D02*
D03*
Y950D02*
D03*
D156*
X7035Y8180D02*
D03*
X6685D02*
D03*
X7035Y8510D02*
D03*
X6685D02*
D03*
D157*
X5785Y8894D02*
D03*
Y8386D02*
D03*
Y7274D02*
D03*
Y6766D02*
D03*
D158*
X4750Y8640D02*
D03*
Y7020D02*
D03*
D159*
X9290Y-710D02*
D03*
Y-1330D02*
D03*
X9700Y-710D02*
D03*
Y-1330D02*
D03*
D160*
X600Y3928D02*
D03*
Y2102D02*
D03*
D161*
X1555Y3588D02*
D03*
Y3758D02*
D03*
Y3928D02*
D03*
Y4097D02*
D03*
Y4267D02*
D03*
Y1762D02*
D03*
Y1933D02*
D03*
Y2102D02*
D03*
Y2273D02*
D03*
Y2442D02*
D03*
D162*
X4840Y3030D02*
X5530D01*
X12519Y5325D02*
X12685D01*
X12690Y5330D01*
X2805Y5300D02*
X3110D01*
X5530Y3030D02*
X5540Y3040D01*
D163*
X8539Y361D02*
Y511D01*
Y361D02*
X8540Y360D01*
X8538Y512D02*
X8539Y511D01*
X8197Y772D02*
X8457Y512D01*
X8197Y772D02*
Y932D01*
X8457Y512D02*
X8538D01*
D164*
X1555Y4097D02*
X2070D01*
X2080Y4108D01*
X1555Y2273D02*
X2080D01*
M02*
