G04*
G04 #@! TF.GenerationSoftware,Altium Limited,Altium Designer,21.6.1 (37)*
G04*
G04 Layer_Color=16711935*
%FSLAX42Y42*%
%MOMM*%
G71*
G04*
G04 #@! TF.SameCoordinates,B70E1F55-CC3E-4890-BAB1-BD4C742E8824*
G04*
G04*
G04 #@! TF.FilePolarity,Positive*
G04*
G01*
G75*
%ADD13C,0.10*%
%ADD17C,0.50*%
%ADD131C,0.70*%
G36*
X360Y5430D02*
Y4790D01*
X288Y4805D01*
X208Y4845D01*
X145Y4903D01*
X108Y4960D01*
X80Y5035D01*
X70Y5110D01*
X77Y5175D01*
X98Y5242D01*
X140Y5310D01*
X192Y5362D01*
X258Y5400D01*
X322Y5422D01*
X360Y5430D01*
D02*
G37*
G36*
X355Y6130D02*
Y5490D01*
X283Y5505D01*
X203Y5545D01*
X140Y5603D01*
X102Y5660D01*
X75Y5735D01*
X65Y5810D01*
X73Y5875D01*
X93Y5942D01*
X135Y6010D01*
X188Y6062D01*
X253Y6100D01*
X317Y6122D01*
X355Y6130D01*
D02*
G37*
G36*
X370Y7730D02*
Y7090D01*
X297Y7105D01*
X217Y7145D01*
X155Y7203D01*
X117Y7260D01*
X90Y7335D01*
X80Y7410D01*
X88Y7475D01*
X108Y7543D01*
X150Y7610D01*
X203Y7662D01*
X267Y7700D01*
X333Y7722D01*
X370Y7730D01*
D02*
G37*
G36*
X1150Y7090D02*
Y7730D01*
X1223Y7715D01*
X1302Y7675D01*
X1365Y7618D01*
X1402Y7560D01*
X1430Y7485D01*
X1440Y7410D01*
X1432Y7345D01*
X1412Y7278D01*
X1370Y7210D01*
X1318Y7157D01*
X1252Y7120D01*
X1188Y7097D01*
X1150Y7090D01*
D02*
G37*
G36*
X12175Y-760D02*
X12165Y-820D01*
X12140Y-895D01*
X12072Y-1027D01*
X11985Y-1148D01*
X11895Y-1230D01*
X11770Y-1318D01*
X11665Y-1362D01*
X11532Y-1398D01*
X11390Y-1410D01*
X11253Y-1398D01*
X11165Y-1382D01*
X11015Y-1318D01*
X10945Y-1275D01*
X10865Y-1212D01*
X10805Y-1157D01*
X10743Y-1080D01*
X10695Y-1007D01*
X10655Y-927D01*
X10622Y-840D01*
X10605Y-760D01*
X12175D01*
D02*
G37*
G36*
X7230Y6740D02*
X7870D01*
X7855Y6668D01*
X7815Y6588D01*
X7757Y6525D01*
X7700Y6488D01*
X7625Y6460D01*
X7550Y6450D01*
X7485Y6457D01*
X7418Y6478D01*
X7350Y6520D01*
X7297Y6572D01*
X7260Y6638D01*
X7238Y6703D01*
X7230Y6740D01*
D02*
G37*
G36*
X13865Y-760D02*
X13855Y-820D01*
X13830Y-895D01*
X13762Y-1027D01*
X13675Y-1148D01*
X13585Y-1230D01*
X13460Y-1318D01*
X13355Y-1362D01*
X13223Y-1398D01*
X13080Y-1410D01*
X12943Y-1398D01*
X12855Y-1382D01*
X12705Y-1318D01*
X12635Y-1275D01*
X12555Y-1212D01*
X12495Y-1157D01*
X12432Y-1080D01*
X12385Y-1007D01*
X12345Y-927D01*
X12312Y-840D01*
X12295Y-760D01*
X13865D01*
D02*
G37*
G36*
X19820Y4335D02*
X19880Y4325D01*
X19955Y4300D01*
X20088Y4233D01*
X20207Y4145D01*
X20290Y4055D01*
X20377Y3930D01*
X20423Y3825D01*
X20457Y3692D01*
X20470Y3550D01*
X20457Y3412D01*
X20443Y3325D01*
X20377Y3175D01*
X20335Y3105D01*
X20273Y3025D01*
X20218Y2965D01*
X20140Y2902D01*
X20068Y2855D01*
X19988Y2815D01*
X19900Y2783D01*
X19820Y2765D01*
Y4335D01*
D02*
G37*
D13*
X6420Y-300D02*
G03*
X6420Y-300I-600J0D01*
G01*
X11140Y1560D02*
G03*
X10940Y1560I-100J0D01*
G01*
D02*
G03*
X10740Y1560I-100J0D01*
G01*
X11940D02*
G03*
X11740Y1560I-100J0D01*
G01*
D02*
G03*
X11540Y1560I-100J0D01*
G01*
X11540D02*
G03*
X11340Y1560I-100J0D01*
G01*
D02*
G03*
X11140Y1560I-100J0D01*
G01*
X12190Y-610D02*
G03*
X12190Y-610I-800J0D01*
G01*
X13880D02*
G03*
X13880Y-610I-800J0D01*
G01*
X710Y5110D02*
G03*
X710Y5110I-320J0D01*
G01*
X720Y7410D02*
G03*
X720Y7410I-320J0D01*
G01*
X705Y5810D02*
G03*
X705Y5810I-320J0D01*
G01*
X1440Y7410D02*
G03*
X1440Y7410I-320J0D01*
G01*
X7870Y6770D02*
G03*
X7870Y6770I-320J0D01*
G01*
X3230Y11030D02*
G03*
X3030Y11030I-100J0D01*
G01*
X2830D02*
G03*
X2630Y11030I-100J0D01*
G01*
X3030D02*
G03*
X2830Y11030I-100J0D01*
G01*
X11725Y10105D02*
G03*
X11675Y10055I0J-50D01*
G01*
Y8605D02*
G03*
X11725Y8555I50J0D01*
G01*
X12075Y10055D02*
G03*
X12025Y10105I-50J0D01*
G01*
Y8555D02*
G03*
X12075Y8605I0J50D01*
G01*
X14400Y11175D02*
G03*
X14400Y11175I-1250J0D01*
G01*
X11800Y11200D02*
G03*
X11800Y11200I-1250J0D01*
G01*
X6097Y11030D02*
G03*
X5897Y11030I-100J0D01*
G01*
X5697D02*
G03*
X5497Y11030I-100J0D01*
G01*
X5897D02*
G03*
X5697Y11030I-100J0D01*
G01*
X2825Y7125D02*
G03*
X2825Y7425I0J150D01*
G01*
D02*
G03*
X2825Y7725I0J150D01*
G01*
Y7725D02*
G03*
X2825Y8025I0J150D01*
G01*
Y8625D02*
G03*
X2825Y8925I0J150D01*
G01*
Y8325D02*
G03*
X2825Y8625I0J150D01*
G01*
Y8025D02*
G03*
X2825Y8325I0J150D01*
G01*
X3325Y8925D02*
G03*
X3325Y8625I0J-150D01*
G01*
D02*
G03*
X3325Y8325I0J-150D01*
G01*
Y8325D02*
G03*
X3325Y8025I0J-150D01*
G01*
Y7425D02*
G03*
X3325Y7125I0J-150D01*
G01*
Y7725D02*
G03*
X3325Y7425I0J-150D01*
G01*
Y8025D02*
G03*
X3325Y7725I0J-150D01*
G01*
X18240Y430D02*
G03*
X18240Y630I0J100D01*
G01*
Y230D02*
G03*
X18240Y430I0J100D01*
G01*
Y30D02*
G03*
X18240Y230I0J100D01*
G01*
Y-170D02*
G03*
X18240Y30I0J100D01*
G01*
Y630D02*
G03*
X18240Y830I0J100D01*
G01*
D02*
G03*
X18240Y1030I0J100D01*
G01*
X15350Y610D02*
G03*
X15550Y610I100J0D01*
G01*
X15150D02*
G03*
X15350Y610I100J0D01*
G01*
X14350D02*
G03*
X14550Y610I100J0D01*
G01*
D02*
G03*
X14750Y610I100J0D01*
G01*
X14750D02*
G03*
X14950Y610I100J0D01*
G01*
D02*
G03*
X15150Y610I100J0D01*
G01*
X12840Y1560D02*
G03*
X12640Y1560I-100J0D01*
G01*
D02*
G03*
X12440Y1560I-100J0D01*
G01*
X13640D02*
G03*
X13440Y1560I-100J0D01*
G01*
D02*
G03*
X13240Y1560I-100J0D01*
G01*
X13240D02*
G03*
X13040Y1560I-100J0D01*
G01*
D02*
G03*
X12840Y1560I-100J0D01*
G01*
X8730Y8180D02*
G03*
X8530Y8180I-100J0D01*
G01*
D02*
G03*
X8330Y8180I-100J0D01*
G01*
X8930D02*
G03*
X8730Y8180I-100J0D01*
G01*
X12025Y6100D02*
G03*
X12075Y6150I0J50D01*
G01*
Y7600D02*
G03*
X12025Y7650I-50J0D01*
G01*
X11675Y6150D02*
G03*
X11725Y6100I50J0D01*
G01*
Y7650D02*
G03*
X11675Y7600I0J-50D01*
G01*
X20470Y3550D02*
G03*
X20470Y3550I-800J0D01*
G01*
X5540Y-880D02*
Y-720D01*
X5620Y-880D02*
Y-720D01*
X5540D02*
X5620D01*
X5540Y-880D02*
X5620D01*
X10480Y4105D02*
Y4185D01*
X10640Y4105D02*
Y4185D01*
X10480D02*
X10640D01*
X10480Y4105D02*
X10640D01*
X10462Y4387D02*
Y4468D01*
X10622Y4387D02*
Y4468D01*
X10462D02*
X10622D01*
X10462Y4387D02*
X10622D01*
X5042Y5160D02*
X5105Y5224D01*
X4915Y5160D02*
X5042D01*
X4851Y5224D02*
X4915Y5160D01*
X4851Y5224D02*
Y5351D01*
X4915Y5415D01*
X5042D01*
X5105Y5351D01*
X6121Y5160D02*
X6375D01*
X6121D02*
Y5415D01*
X6375Y5160D02*
Y5415D01*
X6058Y5160D02*
X6121Y5224D01*
X5931Y5160D02*
X6058D01*
X5867Y5224D02*
X5931Y5160D01*
X5867Y5224D02*
Y5351D01*
X5931Y5415D01*
X6058D01*
X6121Y5351D01*
Y5415D02*
X6375D01*
X5803D02*
X5867Y5351D01*
X5676Y5415D02*
X5803D01*
X5613Y5351D02*
X5676Y5415D01*
X5613Y5224D02*
Y5351D01*
Y5224D02*
X5676Y5160D01*
X5803D01*
X5867Y5224D01*
X5549Y5160D02*
X5613Y5224D01*
X5422Y5160D02*
X5549D01*
X5359Y5224D02*
X5422Y5160D01*
X5359Y5224D02*
Y5351D01*
X5422Y5415D01*
X5549D01*
X5613Y5351D01*
X5296Y5415D02*
X5359Y5351D01*
X5169Y5415D02*
X5296D01*
X5105Y5351D02*
X5169Y5415D01*
X5105Y5224D02*
Y5351D01*
Y5224D02*
X5169Y5160D01*
X5296D01*
X5359Y5224D01*
X5900Y480D02*
Y640D01*
X5980Y480D02*
Y640D01*
X5900Y480D02*
X5980D01*
X5900Y640D02*
X5980D01*
X970Y4550D02*
Y4705D01*
X1290Y4550D02*
Y4705D01*
X970Y4550D02*
X1290D01*
X970Y4705D02*
X1290D01*
X7555Y4780D02*
X7715D01*
X7555Y4700D02*
X7715D01*
X7555D02*
Y4780D01*
X7715Y4700D02*
Y4780D01*
X7555Y4630D02*
X7715D01*
X7555Y4550D02*
X7715D01*
X7555D02*
Y4630D01*
X7715Y4550D02*
Y4630D01*
X5180Y1200D02*
Y2100D01*
Y1200D02*
X6080D01*
Y2100D01*
X5180D02*
X6080D01*
X5647Y1232D02*
Y1392D01*
X5567Y1232D02*
Y1392D01*
Y1232D02*
X5647D01*
X5567Y1392D02*
X5647D01*
X5217Y1760D02*
X5377D01*
X5217Y1680D02*
X5377D01*
Y1760D01*
X5217Y1680D02*
Y1760D01*
Y1920D02*
X5377D01*
X5217Y1840D02*
X5377D01*
Y1920D01*
X5217Y1840D02*
Y1920D01*
Y1610D02*
X5377D01*
X5217Y1530D02*
X5377D01*
Y1610D01*
X5217Y1530D02*
Y1610D01*
Y1440D02*
X5377D01*
X5217Y1360D02*
X5377D01*
Y1440D01*
X5217Y1360D02*
Y1440D01*
X4780Y2835D02*
X4900D01*
X4780Y3035D02*
X4900D01*
Y2835D02*
Y3035D01*
X4780Y2835D02*
Y3035D01*
X4490Y2835D02*
X4610D01*
X4490Y3035D02*
X4610D01*
Y2835D02*
Y3035D01*
X4490Y2835D02*
Y3035D01*
X10940Y2360D02*
X11140D01*
Y2060D02*
Y2360D01*
X11540D02*
X11740D01*
X11540Y2060D02*
Y2360D01*
X10740Y1360D02*
Y1560D01*
X11340Y1160D02*
Y1410D01*
X11940Y1360D02*
Y1560D01*
X11340Y1760D02*
Y2060D01*
X10560Y2720D02*
X12120D01*
X10560Y800D02*
X12120D01*
X10560D02*
Y2720D01*
X12120Y800D02*
Y2720D01*
X11340Y2060D02*
X11590Y2210D01*
X11590Y1335D02*
Y1605D01*
X11090Y1335D02*
X11590D01*
X11090D02*
Y1605D01*
X11590D01*
X13290Y1335D02*
Y1605D01*
X12790Y1335D02*
X13290D01*
X12790D02*
Y1605D01*
X13290D01*
X8160Y1585D02*
X8240D01*
X8160Y1425D02*
X8240D01*
X8160D02*
Y1585D01*
X8240Y1425D02*
Y1585D01*
X7970Y1040D02*
X8050D01*
X7970Y1200D02*
X8050D01*
Y1040D02*
Y1200D01*
X7970Y1040D02*
Y1200D01*
X8868Y1175D02*
X8948D01*
X8868Y1335D02*
X8948D01*
Y1175D02*
Y1335D01*
X8868Y1175D02*
Y1335D01*
X6183Y3895D02*
X6383D01*
X6183Y4015D02*
X6383D01*
Y3895D02*
Y4015D01*
X6183Y3895D02*
Y4015D01*
X6697Y4110D02*
X6778D01*
X6697Y3950D02*
X6778D01*
Y4110D01*
X6697Y3950D02*
Y4110D01*
X6183Y4070D02*
X6383D01*
X6183Y4190D02*
X6383D01*
Y4070D02*
Y4190D01*
X6183Y4070D02*
Y4190D01*
X7572Y3858D02*
X7772D01*
X7572Y3738D02*
X7772D01*
X7572D02*
Y3858D01*
X7772Y3738D02*
Y3858D01*
X7575Y4012D02*
X7775D01*
X7575Y3892D02*
X7775D01*
X7575D02*
Y4012D01*
X7775Y3892D02*
Y4012D01*
X7390Y4100D02*
X7470D01*
X7390Y3940D02*
X7470D01*
Y4100D01*
X7390Y3940D02*
Y4100D01*
X6288Y3420D02*
X6468D01*
X6288Y3152D02*
X6468D01*
Y3525D01*
X6288D02*
X6468D01*
X6288Y3152D02*
Y3525D01*
X6222Y3620D02*
Y3700D01*
X6383Y3620D02*
Y3700D01*
X6222D02*
X6383D01*
X6222Y3620D02*
X6383D01*
X6477Y3647D02*
X6557D01*
X6477Y3808D02*
X6557D01*
X6477Y3647D02*
Y3808D01*
X6557Y3647D02*
Y3808D01*
X6225Y3762D02*
Y3843D01*
X6385Y3762D02*
Y3843D01*
X6225D02*
X6385D01*
X6225Y3762D02*
X6385D01*
X7730Y3457D02*
Y3538D01*
X7570Y3457D02*
Y3538D01*
Y3457D02*
X7730D01*
X7570Y3538D02*
X7730D01*
X7387Y3495D02*
X7468D01*
X7387Y3655D02*
X7468D01*
X7387Y3495D02*
Y3655D01*
X7468Y3495D02*
Y3655D01*
X7730Y3605D02*
Y3685D01*
X7570Y3605D02*
Y3685D01*
Y3605D02*
X7730D01*
X7570Y3685D02*
X7730D01*
X7128Y2960D02*
X7307D01*
X7128Y2692D02*
X7307D01*
Y3065D01*
X7128D02*
X7307D01*
X7128Y2692D02*
Y3065D01*
X3330Y1185D02*
X3450D01*
X3330Y1385D02*
X3450D01*
Y1185D02*
Y1385D01*
X3330Y1185D02*
Y1385D01*
X1998Y1652D02*
X2158D01*
X1998Y1572D02*
X2158D01*
Y1652D01*
X1998Y1572D02*
Y1652D01*
X7718Y4225D02*
Y4305D01*
X7558Y4225D02*
Y4305D01*
Y4225D02*
X7718D01*
X7558Y4305D02*
X7718D01*
Y4372D02*
Y4453D01*
X7558Y4372D02*
Y4453D01*
Y4372D02*
X7718D01*
X7558Y4453D02*
X7718D01*
X1455Y-538D02*
Y-378D01*
X1535Y-538D02*
Y-378D01*
X1455Y-538D02*
X1535D01*
X1455Y-378D02*
X1535D01*
X1193Y-428D02*
X1352D01*
X1193Y-347D02*
X1352D01*
Y-428D02*
Y-347D01*
X1193Y-428D02*
Y-347D01*
X1800Y57D02*
Y217D01*
X1720Y57D02*
Y217D01*
X1800D01*
X1720Y57D02*
X1800D01*
X1532Y-205D02*
Y-45D01*
X1452Y-205D02*
Y-45D01*
X1532D01*
X1452Y-205D02*
X1532D01*
X1190Y-225D02*
X1350D01*
X1190Y-145D02*
X1350D01*
Y-225D02*
Y-145D01*
X1190Y-225D02*
Y-145D01*
X1750Y-690D02*
X1910D01*
X1750Y-610D02*
X1910D01*
Y-690D02*
Y-610D01*
X1750Y-690D02*
Y-610D01*
X2275Y-800D02*
Y-640D01*
X2195Y-800D02*
Y-640D01*
X2275D01*
X2195Y-800D02*
X2275D01*
X2677Y-247D02*
X2838D01*
X2677Y-167D02*
X2838D01*
Y-247D02*
Y-167D01*
X2677Y-247D02*
Y-167D01*
X2550Y-360D02*
Y-200D01*
X2470Y-360D02*
Y-200D01*
X2550D01*
X2470Y-360D02*
X2550D01*
X2555Y-795D02*
Y-635D01*
X2475Y-795D02*
Y-635D01*
X2555D01*
X2475Y-795D02*
X2555D01*
X11420Y3950D02*
X11580D01*
X11420Y3870D02*
X11580D01*
X11420D02*
Y3950D01*
X11580Y3870D02*
Y3950D01*
X11680Y4140D02*
Y4300D01*
X11760Y4140D02*
Y4300D01*
X11680Y4140D02*
X11760D01*
X11680Y4300D02*
X11760D01*
X11980Y4600D02*
Y4760D01*
X12060Y4600D02*
Y4760D01*
X11980D02*
X12060D01*
X11980Y4600D02*
X12060D01*
X12730Y5180D02*
Y5340D01*
X12650Y5180D02*
Y5340D01*
Y5180D02*
X12730D01*
X12650Y5340D02*
X12730D01*
X12290Y4710D02*
X12450D01*
X12290Y4790D02*
X12450D01*
X12290Y4710D02*
Y4790D01*
X12450Y4710D02*
Y4790D01*
X12593Y4840D02*
X12965D01*
X12593Y4660D02*
Y4840D01*
Y4660D02*
X12965D01*
Y4840D01*
X12697Y4660D02*
Y4840D01*
X12593Y5040D02*
X12965D01*
X12593Y4860D02*
Y5040D01*
Y4860D02*
X12965D01*
Y5040D01*
X12697Y4860D02*
Y5040D01*
X12210Y4600D02*
Y4760D01*
X12130Y4600D02*
Y4760D01*
Y4600D02*
X12210D01*
X12130Y4760D02*
X12210D01*
X13050Y4755D02*
Y4955D01*
X13170Y4755D02*
Y4955D01*
X13050D02*
X13170D01*
X13050Y4755D02*
X13170D01*
X13220D02*
Y4955D01*
X13340Y4755D02*
Y4955D01*
X13220D02*
X13340D01*
X13220Y4755D02*
X13340D01*
X1980Y1647D02*
Y2897D01*
X3270Y1647D02*
Y2897D01*
X1980Y1647D02*
X3270D01*
X1980Y2897D02*
X3270D01*
X3235Y4798D02*
Y5133D01*
X2780D02*
X3390D01*
X2780Y4798D02*
X3390D01*
X2780D02*
Y5133D01*
X3390Y4798D02*
Y5133D01*
X3115Y5360D02*
X3315D01*
X3115Y5240D02*
X3315D01*
Y5360D01*
X3115Y5240D02*
Y5360D01*
X970Y2880D02*
X1290D01*
X970Y2725D02*
X1290D01*
Y2880D01*
X970Y2725D02*
Y2880D01*
X2912Y1380D02*
X3247D01*
X2912Y925D02*
Y1535D01*
X3247Y925D02*
Y1535D01*
X2912Y925D02*
X3247D01*
X2912Y1535D02*
X3247D01*
X6660Y8056D02*
Y8304D01*
X7060D01*
Y8056D02*
Y8304D01*
X6660Y8056D02*
X7060D01*
X6660Y8386D02*
Y8634D01*
X7060D01*
Y8386D02*
Y8634D01*
X6660Y8386D02*
X7060D01*
X6520Y6645D02*
Y6845D01*
X6640Y6645D02*
Y6845D01*
X6520D02*
X6640D01*
X6520Y6645D02*
X6640D01*
X2180Y5165D02*
Y6415D01*
X890Y5165D02*
Y6415D01*
X2180D01*
X890Y5165D02*
X2180D01*
X1560Y7875D02*
Y9125D01*
X270Y7875D02*
Y9125D01*
X1560D01*
X270Y7875D02*
X1560D01*
X10170Y-310D02*
X10250D01*
X10170Y-470D02*
X10250D01*
X10170D02*
Y-310D01*
X10250Y-470D02*
Y-310D01*
X10170Y-950D02*
X10250D01*
X10170Y-1110D02*
X10250D01*
X10170D02*
Y-950D01*
X10250Y-1110D02*
Y-950D01*
X8690Y320D02*
Y400D01*
X8530Y320D02*
Y400D01*
X8690D01*
X8530Y320D02*
X8690D01*
X9130Y-703D02*
X9450D01*
X9130Y-1338D02*
X9450D01*
X9130D02*
Y-703D01*
X9450Y-1338D02*
Y-703D01*
X9540D02*
X9860D01*
X9540Y-1338D02*
X9860D01*
X9540D02*
Y-703D01*
X9860Y-1338D02*
Y-703D01*
X2000Y3387D02*
Y3467D01*
X2160Y3387D02*
Y3467D01*
X2000Y3387D02*
X2160D01*
X2000Y3467D02*
X2160D01*
X1867Y3388D02*
Y3468D01*
X1708Y3388D02*
Y3468D01*
X1867D01*
X1708Y3388D02*
X1867D01*
X1853Y1573D02*
Y1653D01*
X1693Y1573D02*
Y1653D01*
X1853D01*
X1693Y1573D02*
X1853D01*
X6215Y8830D02*
Y8950D01*
X6015Y8830D02*
Y8950D01*
X6215D01*
X6015Y8830D02*
X6215D01*
X5720Y8545D02*
X5840D01*
X5720Y8745D02*
X5840D01*
Y8545D02*
Y8745D01*
X5720Y8545D02*
Y8745D01*
X6840Y6835D02*
X6960D01*
X6840Y6635D02*
X6960D01*
X6840D02*
Y6835D01*
X6960Y6635D02*
Y6835D01*
X6225Y7440D02*
Y7560D01*
X6025Y7440D02*
Y7560D01*
X6225D01*
X6025Y7440D02*
X6225D01*
X5720Y6925D02*
X5840D01*
X5720Y7125D02*
X5840D01*
Y6925D02*
Y7125D01*
X5720Y6925D02*
Y7125D01*
X7525Y7790D02*
X7795D01*
Y7290D02*
Y7790D01*
X7525Y7290D02*
X7795D01*
X7525D02*
Y7790D01*
X1565Y7050D02*
X1835D01*
Y6550D02*
Y7050D01*
X1565Y6550D02*
X1835D01*
X1565D02*
Y7050D01*
X2240Y7885D02*
Y8155D01*
X1740Y7885D02*
X2240D01*
X1740D02*
Y8155D01*
X2240D01*
Y8395D02*
Y8665D01*
X1740Y8395D02*
X2240D01*
X1740D02*
Y8665D01*
X2240D01*
X2788Y108D02*
X2868D01*
X2788Y-52D02*
X2868D01*
Y108D01*
X2788Y-52D02*
Y108D01*
X1457Y167D02*
Y248D01*
X1617Y167D02*
Y248D01*
X1457D02*
X1617D01*
X1457Y167D02*
X1617D01*
X9680Y5120D02*
X9760D01*
X9680Y4960D02*
X9760D01*
Y5120D01*
X9680Y4960D02*
Y5120D01*
X3840Y1750D02*
Y1830D01*
X3680Y1750D02*
Y1830D01*
Y1750D02*
X3840D01*
X3680Y1830D02*
X3840D01*
Y1320D02*
Y1400D01*
X3680Y1320D02*
Y1400D01*
Y1320D02*
X3840D01*
X3680Y1400D02*
X3840D01*
X4710Y1140D02*
X4790D01*
X4710Y1300D02*
X4790D01*
X4710Y1140D02*
Y1300D01*
X4790Y1140D02*
Y1300D01*
X8103Y3385D02*
X8303D01*
X8103Y3505D02*
X8303D01*
Y3385D02*
Y3505D01*
X8103Y3385D02*
Y3505D01*
Y3542D02*
X8303D01*
X8103Y3662D02*
X8303D01*
Y3542D02*
Y3662D01*
X8103Y3542D02*
Y3662D01*
X8873Y3333D02*
X9072D01*
X8873Y3453D02*
X9072D01*
Y3333D02*
Y3453D01*
X8873Y3333D02*
Y3453D01*
X8643Y3188D02*
Y3387D01*
X8762Y3188D02*
Y3387D01*
X8643Y3188D02*
X8762D01*
X8643Y3387D02*
X8762D01*
X3535Y2333D02*
X3615D01*
X3535Y2173D02*
X3615D01*
Y2333D01*
X3535Y2173D02*
Y2333D01*
X3925Y2335D02*
X4005D01*
X3925Y2175D02*
X4005D01*
Y2335D01*
X3925Y2175D02*
Y2335D01*
X3522Y4217D02*
Y4298D01*
X3682Y4217D02*
Y4298D01*
X3522D02*
X3682D01*
X3522Y4217D02*
X3682D01*
X10700Y2900D02*
X10700Y3700D01*
X11500Y3700D01*
Y2900D02*
Y3700D01*
X10700Y2900D02*
X11500D01*
X10460Y4780D02*
Y4940D01*
X10380Y4780D02*
Y4940D01*
X10460D01*
X10380Y4780D02*
X10460D01*
X9990Y5320D02*
X10150D01*
X9990Y5240D02*
X10150D01*
X9990D02*
Y5320D01*
X10150Y5240D02*
Y5320D01*
X9850Y4960D02*
Y5120D01*
X9930Y4960D02*
Y5120D01*
X9850Y4960D02*
X9930D01*
X9850Y5120D02*
X9930D01*
X4797Y4020D02*
X4878D01*
X4797Y3860D02*
X4878D01*
Y4020D01*
X4797Y3860D02*
Y4020D01*
X5517Y4047D02*
X5598D01*
X5517Y3888D02*
X5598D01*
Y4047D01*
X5517Y3888D02*
Y4047D01*
X5440Y5100D02*
X5520D01*
X5440Y4940D02*
X5520D01*
Y5100D01*
X5440Y4940D02*
Y5100D01*
X10815Y9038D02*
Y9157D01*
X10615Y9038D02*
Y9157D01*
Y9038D02*
X10815D01*
X10615Y9157D02*
X10815D01*
X10757Y9680D02*
X10878D01*
X10757Y9880D02*
X10878D01*
X10757Y9680D02*
Y9880D01*
X10878Y9680D02*
Y9880D01*
X10715Y6640D02*
Y6760D01*
X10515Y6640D02*
Y6760D01*
Y6640D02*
X10715D01*
X10515Y6760D02*
X10715D01*
X10660Y7225D02*
X10780D01*
X10660Y7425D02*
X10780D01*
X10660Y7225D02*
Y7425D01*
X10780Y7225D02*
Y7425D01*
X4065Y2338D02*
X4145D01*
X4065Y2177D02*
X4145D01*
Y2338D01*
X4065Y2177D02*
Y2338D01*
X3790Y3130D02*
Y3210D01*
X3630Y3130D02*
Y3210D01*
Y3130D02*
X3790D01*
X3630Y3210D02*
X3790D01*
Y2830D02*
Y2910D01*
X3630Y2830D02*
Y2910D01*
Y2830D02*
X3790D01*
X3630Y2910D02*
X3790D01*
Y2560D02*
Y2640D01*
X3630Y2560D02*
Y2640D01*
Y2560D02*
X3790D01*
X3630Y2640D02*
X3790D01*
X5897Y2727D02*
Y2808D01*
X6058Y2727D02*
Y2808D01*
X5897D02*
X6058D01*
X5897Y2727D02*
X6058D01*
X5897Y2605D02*
Y2685D01*
X6058Y2605D02*
Y2685D01*
X5897D02*
X6058D01*
X5897Y2605D02*
X6058D01*
X5897Y2872D02*
Y2953D01*
X6058Y2872D02*
Y2953D01*
X5897D02*
X6058D01*
X5897Y2872D02*
X6058D01*
X6413Y2728D02*
Y2808D01*
X6573Y2728D02*
Y2808D01*
X6413D02*
X6573D01*
X6413Y2728D02*
X6573D01*
X6413Y2445D02*
Y2525D01*
X6573Y2445D02*
Y2525D01*
X6413D02*
X6573D01*
X6413Y2445D02*
X6573D01*
X6413Y2875D02*
Y2955D01*
X6573Y2875D02*
Y2955D01*
X6413D02*
X6573D01*
X6413Y2875D02*
X6573D01*
X10778Y4160D02*
X10858D01*
X10778Y4000D02*
X10858D01*
Y4160D01*
X10778Y4000D02*
Y4160D01*
X10770Y4390D02*
X10850D01*
X10770Y4550D02*
X10850D01*
X10770Y4390D02*
Y4550D01*
X10850Y4390D02*
Y4550D01*
X4125Y4480D02*
Y4560D01*
X3965Y4480D02*
Y4560D01*
Y4480D02*
X4125D01*
X3965Y4560D02*
X4125D01*
X3828Y4480D02*
Y4560D01*
X3667Y4480D02*
Y4560D01*
Y4480D02*
X3828D01*
X3667Y4560D02*
X3828D01*
X9060Y6328D02*
X9380D01*
X9060Y6172D02*
X9380D01*
X9060D02*
Y6328D01*
X9380Y6172D02*
Y6328D01*
X9080Y5080D02*
Y5160D01*
X9240Y5080D02*
Y5160D01*
X9080D02*
X9240D01*
X9080Y5080D02*
X9240D01*
X8720Y5070D02*
Y5150D01*
X8560Y5070D02*
Y5150D01*
Y5070D02*
X8720D01*
X8560Y5150D02*
X8720D01*
X8772Y3722D02*
X8853D01*
X8772Y3883D02*
X8853D01*
X8772Y3722D02*
Y3883D01*
X8853Y3722D02*
Y3883D01*
X9450Y5110D02*
X9530D01*
X9450Y5270D02*
X9530D01*
X9450Y5110D02*
Y5270D01*
X9530Y5110D02*
Y5270D01*
X8360Y5100D02*
X8440D01*
X8360Y5260D02*
X8440D01*
X8360Y5100D02*
Y5260D01*
X8440Y5100D02*
Y5260D01*
X9112Y2772D02*
Y2852D01*
X8953Y2772D02*
Y2852D01*
Y2772D02*
X9112D01*
X8953Y2852D02*
X9112D01*
X8962Y3542D02*
Y3623D01*
X9122Y3542D02*
Y3623D01*
X8962D02*
X9122D01*
X8962Y3542D02*
X9122D01*
X9120Y3690D02*
Y3770D01*
X8960Y3690D02*
Y3770D01*
Y3690D02*
X9120D01*
X8960Y3770D02*
X9120D01*
X9470Y2585D02*
Y2665D01*
X9310Y2585D02*
Y2665D01*
Y2585D02*
X9470D01*
X9310Y2665D02*
X9470D01*
X9382Y3157D02*
Y3238D01*
X9222Y3157D02*
Y3238D01*
Y3157D02*
X9382D01*
X9222Y3238D02*
X9382D01*
X8382Y3892D02*
X8463D01*
X8382Y3733D02*
X8463D01*
Y3892D01*
X8382Y3733D02*
Y3892D01*
X8145Y3253D02*
Y3333D01*
X8305Y3253D02*
Y3333D01*
X8145D02*
X8305D01*
X8145Y3253D02*
X8305D01*
X8715Y3520D02*
Y3600D01*
X8555Y3520D02*
Y3600D01*
Y3520D02*
X8715D01*
X8555Y3600D02*
X8715D01*
X4412Y4480D02*
Y4560D01*
X4253Y4480D02*
Y4560D01*
Y4480D02*
X4412D01*
X4253Y4560D02*
X4412D01*
X3630Y3930D02*
X3710D01*
X3630Y3770D02*
X3710D01*
Y3930D01*
X3630Y3770D02*
Y3930D01*
X3840Y3450D02*
Y3530D01*
X4000Y3450D02*
Y3530D01*
X3840D02*
X4000D01*
X3840Y3450D02*
X4000D01*
X4125Y4630D02*
Y4710D01*
X3965Y4630D02*
Y4710D01*
Y4630D02*
X4125D01*
X3965Y4710D02*
X4125D01*
X6642Y-103D02*
X7133D01*
X6642Y-703D02*
Y-103D01*
Y-703D02*
X7133D01*
Y-103D01*
X11598Y3973D02*
Y4463D01*
X10998D02*
X11598D01*
X10998Y3973D02*
Y4463D01*
Y3973D02*
X11598D01*
X9055Y5420D02*
X9545D01*
Y6020D01*
X9055D02*
X9545D01*
X9055Y5420D02*
Y6020D01*
X7965Y5410D02*
X8455D01*
Y6010D01*
X7965D02*
X8455D01*
X7965Y5410D02*
Y6010D01*
X10873Y8650D02*
Y8920D01*
X10372D02*
X10873D01*
X10372Y8650D02*
Y8920D01*
Y8650D02*
X10873D01*
X8930Y2535D02*
Y2715D01*
X9197Y2535D02*
Y2715D01*
X8825D02*
X9197D01*
X8825Y2535D02*
Y2715D01*
Y2535D02*
X9197D01*
X9322Y3305D02*
Y3485D01*
X9590Y3305D02*
Y3485D01*
X9218D02*
X9590D01*
X9218Y3305D02*
Y3485D01*
Y3305D02*
X9590D01*
X3230Y11030D02*
X3380D01*
X2480D02*
X2630D01*
X2267Y12478D02*
X3593D01*
X2267Y9582D02*
X3593D01*
Y12478D01*
X2267Y9582D02*
Y12478D01*
X8528Y472D02*
X8688D01*
X8528Y553D02*
X8688D01*
X8528Y472D02*
Y553D01*
X8688Y472D02*
Y553D01*
X8530Y680D02*
X8690D01*
X8530Y760D02*
X8690D01*
X8530Y680D02*
Y760D01*
X8690Y680D02*
Y760D01*
X9210Y1040D02*
Y1200D01*
X9290Y1040D02*
Y1200D01*
X9210D02*
X9290D01*
X9210Y1040D02*
X9290D01*
X1980Y4732D02*
X3270D01*
X1980Y3482D02*
X3270D01*
Y4732D01*
X1980Y3482D02*
Y4732D01*
X2105Y5085D02*
X2605D01*
X2105Y4815D02*
Y5085D01*
Y4815D02*
X2605D01*
Y5085D01*
X1610Y2972D02*
X2110D01*
Y3242D01*
X1610D02*
X2110D01*
X1610Y2972D02*
Y3242D01*
X11675Y8605D02*
Y10055D01*
X12075Y8605D02*
Y10055D01*
X11725Y10105D02*
X12025D01*
X11725Y8555D02*
X12025D01*
X11353Y9427D02*
Y9928D01*
X11083Y9427D02*
X11353D01*
X11083D02*
Y9928D01*
X11353D01*
X11087Y8732D02*
Y9233D01*
X11357D01*
Y8732D02*
Y9233D01*
X11087Y8732D02*
X11357D01*
X1965Y6550D02*
Y7050D01*
Y6550D02*
X2235D01*
Y7050D01*
X1965D02*
X2235D01*
X7355Y7290D02*
Y7790D01*
X7085D02*
X7355D01*
X7085Y7290D02*
Y7790D01*
Y7290D02*
X7355D01*
X11085Y6280D02*
Y6780D01*
X11355D01*
Y6280D02*
Y6780D01*
X11085Y6280D02*
X11355D01*
X4640Y3860D02*
Y4020D01*
X4720Y3860D02*
Y4020D01*
X4640Y3860D02*
X4720D01*
X4640Y4020D02*
X4720D01*
X5288Y3892D02*
Y4053D01*
X5368Y3892D02*
Y4053D01*
X5288Y3892D02*
X5368D01*
X5288Y4053D02*
X5368D01*
X6097Y11030D02*
X6247D01*
X5347D02*
X5497D01*
X5135Y12478D02*
X6460D01*
X5135Y9582D02*
X6460D01*
Y12478D01*
X5135Y9582D02*
Y12478D01*
X2210Y6650D02*
X3940D01*
X2210Y9400D02*
X3940D01*
Y6650D02*
Y9400D01*
X2210Y6650D02*
Y9400D01*
X2825Y8925D02*
Y9125D01*
Y6925D02*
Y7125D01*
X3325Y6925D02*
Y7125D01*
Y8925D02*
Y9125D01*
X3125Y7125D02*
Y8925D01*
X3025Y7125D02*
Y8925D01*
X16142Y1258D02*
X20338D01*
X16142Y-398D02*
X20338D01*
X16142D02*
Y1258D01*
X20338Y-398D02*
Y1258D01*
X18240Y-320D02*
Y-170D01*
Y1030D02*
Y1180D01*
X15550Y610D02*
X15700D01*
X14200D02*
X14350D01*
X14122Y-1488D02*
X15778D01*
X14122Y2708D02*
X15778D01*
X14122Y-1488D02*
Y2708D01*
X15778Y-1488D02*
Y2708D01*
X19150Y4408D02*
Y9508D01*
X14190D02*
X19150D01*
X14190Y4408D02*
Y9508D01*
Y4408D02*
X19150D01*
X10270Y6185D02*
X10770D01*
X10270D02*
Y6455D01*
X10770D01*
Y6185D02*
Y6455D01*
X12640Y2360D02*
X12840D01*
Y2060D02*
Y2360D01*
X13240D02*
X13440D01*
X13240Y2060D02*
Y2360D01*
X12440Y1360D02*
Y1560D01*
X13040Y1160D02*
Y1410D01*
X13640Y1360D02*
Y1560D01*
X13040Y1760D02*
Y2060D01*
X12260Y2720D02*
X13820D01*
X12260Y800D02*
X13820D01*
X12260D02*
Y2720D01*
X13820Y800D02*
Y2720D01*
X13040Y2060D02*
X13290Y2210D01*
X7203Y-1411D02*
Y-903D01*
X6623Y-1411D02*
X7203D01*
X6623D02*
Y-903D01*
X7203D01*
X7823Y-1411D02*
Y-903D01*
X7243Y-1411D02*
X7823D01*
X7243D02*
Y-903D01*
X7823D01*
X7967Y6732D02*
Y9628D01*
X9293Y6732D02*
Y9628D01*
X7967Y6732D02*
X9293D01*
X7967Y9628D02*
X9293D01*
X8180Y8180D02*
X8330D01*
X8930D02*
X9080D01*
X11725Y6100D02*
X12025D01*
X11725Y7650D02*
X12025D01*
X12075Y6150D02*
Y7600D01*
X11675Y6150D02*
Y7600D01*
X11358Y6970D02*
Y7470D01*
X11088Y6970D02*
X11358D01*
X11088D02*
Y7470D01*
X11358D01*
X12400Y3700D02*
X13200D01*
X12400Y2900D02*
Y3700D01*
Y2900D02*
X13200Y2900D01*
X13200Y3700D01*
D17*
X5820Y-840D02*
D03*
X5230Y2050D02*
D03*
X11140Y1560D02*
D03*
X12840D02*
D03*
X7570Y7340D02*
D03*
X1610Y6600D02*
D03*
X1790Y8110D02*
D03*
Y8620D02*
D03*
X10422Y8695D02*
D03*
X2155Y5040D02*
D03*
X2060Y3017D02*
D03*
X11307Y9478D02*
D03*
X11132Y9182D02*
D03*
X2010Y6600D02*
D03*
X7310Y7740D02*
D03*
X11130Y6730D02*
D03*
X3875Y6705D02*
D03*
X10320Y6230D02*
D03*
X7153Y-953D02*
D03*
X7772D02*
D03*
X11312Y7020D02*
D03*
D131*
X7068Y-163D02*
D03*
X11537Y4038D02*
D03*
X9120Y5481D02*
D03*
X8030Y5471D02*
D03*
M02*
