M48
;Layer_Color=9474304
;FILE_FORMAT=4:2
METRIC,LZ
;TYPE=PLATED
T1F00S00C0.30
T2F00S00C0.40
T3F00S00C0.50
T4F00S00C0.60
T5F00S00C0.71
T6F00S00C0.76
T7F00S00C0.80
T8F00S00C0.90
T9F00S00C1.00
T10F00S00C1.01
T11F00S00C1.10
T12F00S00C1.20
T13F00S00C1.40
T14F00S00C1.50
T15F00S00C1.57
T16F00S00C1.80
T17F00S00C1.90
T18F00S00C2.00
T19F00S00C2.10
T20F00S00C3.30
T21F00S00C3.50
T22F00S00C4.00
%
T01
X01979Y-00112
X01976Y-001
X0198Y-00088
X01988Y-0012
X02Y-00124
X02012Y-00121
X0202Y-00112
X02024Y-001
X02021Y-00088
X00871
X00874Y-001
X0087Y-00112
X00862Y-00121
X0085Y-00124
X00838Y-0012
X00829Y-00112
X00826Y-001
X0083Y-00088
X00071
X00074Y-001
X0007Y-00112
X00062Y-00121
X0005Y-00124
X00038Y-0012
X00029Y-00112
X00026Y-001
X0003Y-00088
X00038Y-00079
X0005Y-00076
X00062Y-0008
X002235Y0
X00475Y00138
X005297Y000807
X005647Y000805
X005605Y000902
X00594Y00071
X00582Y00053
Y00045
X00585Y00036
X00593
X00601
X006Y-0003
Y-0004
X0059
X0058
X0057
X0056
Y-0003
X0057
X0058
X0059
X006288Y00123
X006292Y001352
X006557Y001935
X006653Y001902
X00704Y001933
X006938Y00266
X006838Y002662
X00632Y00277
X006135Y002767
X006047Y002508
X006335Y002485
X004928Y00249
X0078Y00153
Y00144
X00789
X00798
X00807
Y00153
X00798
X00789
X00867Y00084
Y00075
Y00066
Y00057
Y00048
X00876
Y00057
Y00066
Y00075
Y00084
X00877Y00036
X00862Y-0008
X0085Y-00076
X00838Y-00079
X01023Y00153
Y00159
Y00183
Y00189
Y00195
X01988Y-00079
X02Y-00076
X02012Y-0008
X01275Y00393
X01266
X01257
X01248
X01239
X0123
X01221
X01212
X01275Y00402
Y00411
Y0042
Y00429
Y00438
Y00447
Y00456
X01104Y00453
X01095
X01086
X01077
X01068
X01059
X0105
X01041
X01038Y00479
X01045
X01052
X01029
X01019
X01016Y00502
X0104Y005115
X00985Y00525
Y00534
X00976
Y00525
X00967
Y00534
Y00543
Y00552
Y00561
Y0057
Y00579
Y00588
Y00597
Y00606
X00976Y00597
Y00588
Y00579
Y0057
Y00561
Y00552
Y00543
X01029Y00396
X01038
X01047
X01056
X01065
X01074
X01083
X00927Y00381
Y00372
Y00363
Y00354
X00921Y00387
X00912
X00903
X00894
X00885
X009112Y003992
X00888Y00321
X00879
X0087
X00861
X00852
X00843
X00876Y00387
X00804
X00793Y00447
X007212Y004567
X006Y0047
X005712Y004472
X00527Y00483
X00518Y00379
X005038Y003785
X004822Y003583
X004235Y004408
X01979Y01188
X01976Y012
X0198Y01212
X01988Y01221
X02Y01224
X02012Y0122
X02021Y01212
X02024Y012
X0202Y01188
X02012Y01179
X02Y01176
X01988Y0118
X0092Y01188
X00924Y012
X00921Y01212
X00912Y0122
X009Y01224
X00888Y01221
Y0118
X009Y01176
X00912Y01179
X00879Y01188
X00876Y012
X0088Y01212
X00071
X00074Y012
X0007Y01188
X00062Y01179
X0005Y01176
X00038Y0118
X00029Y01188
X00026Y012
X0003Y01212
X00038Y01221
X0005Y01224
X00062Y0122
T02
X0054Y0014
X0055
Y0015
X0054
Y0016
X0055
Y0017
X0054
Y0018
X0055
X0056
Y0017
Y0016
Y0015
X0057
X0058
X0059
Y0014
X0058
X0057
X0056
X0057Y0016
Y0017
X0058
Y0016
X0059
Y0017
Y0018
X0058
X0057
Y0019
X0058
X0059
X0056
X0055
X0054
X0055Y00265
X0056
Y00275
Y00285
X0055
Y00275
Y00295
X0056
Y00305
X0055
X0057
Y00295
Y00285
Y00275
Y00265
X0058
X0059
X0059Y00275
X0058
Y00285
X0059
Y00295
X0058
Y00305
X0059
Y00315
X0058
X0057
X0056
X0055
Y00325
Y00335
X0056
Y00325
X0057
Y00335
X0058
X0059
Y00325
X0058
T03
X0001Y0012
X0003
X000298Y00139
X000498
X0005Y0012
X0007
X000698Y00139
Y00159
Y00179
Y00199
X000498
Y00179
Y00159
X000298
Y00179
Y00199
X0001Y002
Y0018
Y0016
Y0014
Y0022
X0003Y0022
X0005
Y0024
X0007
Y0026
X0005
X0003
Y0024
X0001Y0024
Y0026
Y0028
X0003Y0028
Y003
X0005
Y0028
X0007
Y003
X0001Y003
X0007Y0022
X0009Y0022
Y0024
Y0026
Y0028
Y003
Y002
Y0018
Y0016
Y0014
Y0012
Y0032
Y0034
Y0036
Y0038
Y004
Y0042
Y0044
Y0046
X0007
X0005
X0005Y0044
Y0042
X0007
Y0044
Y004
X0005
Y0038
X0007
Y0036
X0005
Y0034
X0007
Y0032
X0005Y0032
X0003
Y0034
Y0036
Y0038
Y004
Y0042
X0001
Y004
Y0038
Y0036
Y0034
Y0032
Y0044
X0003
Y0046
X0001
Y0048
T04
X008875Y00625
X00953Y00698
X008275Y00625
X00953Y00758
X00953Y00878
Y00938
T05
X01685Y-00135
X017
X01715
X0173
X01745
X0176
X01775
X0179
X01805
X0182
X01835
X0185
X01865
X0188Y-0014
X01905
X0193
X01955
Y-00115
X0195Y-0009
X01875Y-001
X0187Y-0012
X01855
X0184
X01825
X0181
X01795
X0178
X01765
X0175
X01735
X0172
X01705
X0169
X01675
X0166
X01645
X0164Y-00135
X01655
X0167
X01625Y-0014
X016
X01575
X0155
X01525
X015
X01475
X0145
X01425
X014
X01375
X0135
X01325
X013
X01275
X0125
X01225
X012
X01175
X0115
X01125
X011
X01075
X0105
X01005Y-00135
X0099
X00975
X0096
X00945
X0093
X00915
X00793Y-00137
Y-00122
Y-00107
Y-00092
X00469Y-00009
Y000388
X00166Y00263
X00153
X0014
X00127
X00793Y-00062
Y-00077
X0092Y-00045
Y-00025
Y-00005
Y00015
Y00035
Y00055
Y00075
Y00095
X00945
Y00075
Y00055
Y00035
Y00015
Y-00005
Y-00025
Y-00045
X0097
Y-00025
Y-00005
Y00015
Y00035
Y00055
Y00075
Y00095
X00995
Y00075
X0102
Y00095
X0104
Y00075
X0106
X0108
Y00055
X011
X0112
X0114
Y00075
X0112
X011
X009507Y001395
X01875Y-0005
Y-00075
X01955Y-00065
X009788Y00438
X00855Y0048
X00869Y00527
X0065Y0056
X0063
X0061
X0059
X0052Y0062
Y0064
X005
Y0062
Y0066
Y0068
Y007
X0052
Y0068
Y0066
X00628Y00664
X0048Y0066
Y0068
Y007
X0046
Y0068
X0044
Y007
Y0066
X0046
Y0064
X0044
Y0062
X0046
X0048
Y0064
X00348Y0056
X00333
X00167Y00439
X00154
X00141
X00128
X0044Y0072
X0046
Y0074
X0044
Y0076
X0046
X0048
Y0074
Y0072
Y0082
Y0084
Y0086
Y0088
X0046
X0044
Y0086
X0046
Y0084
X0044
Y0082
X0046
Y009
X0044
Y0092
X0046
Y0094
X0044
Y0096
X0046
X0048
Y0094
Y0092
Y009
X005
Y0092
Y0094
X0052
Y0092
Y009
Y0088
Y0086
X005
Y0088
Y0084
Y0082
X0052
Y0084
Y0076
Y0074
Y0072
X005
Y0074
Y0076
Y0096
X0052
T06
X002238Y-00096
X002517Y-000968
T07
X001202Y-000593
Y000035
X003742Y002068
Y002195
Y002322
X004267Y002327
Y0022
Y002073
X00582Y00008
Y-00068
X00755Y006645
Y006895
X00051Y00581
X00026
X000265Y00511
X000515
X000525Y00741
X000275
X000995
X001245
X001697Y010326
X001957Y010148
Y01091
X001697Y010834
X006757Y010826
X007027Y01091
Y010148
X006757Y010318
Y011228
X007027Y01114
Y011902
X006757Y011736
X001957Y0119
X001687Y011744
Y011236
X001957Y011138
T08
X005706Y-00122
X00596
X006214
X01074Y00116
X01194
X01244
X01364
T09
X017488Y-00092
X019012
X01022Y-001302
X005211Y-00122
X004957
X004703
X004449
X003961
X003707
X003453
X003199
X007357Y000464
Y000718
Y000972
Y001226
Y00148
X007715Y002501
Y002756
Y003009
X01022Y000222
X014726Y00271
X01498
X015234
X015836
X01609
X016344
X016936
X01719
X017444
X018046
X0183
X018554
X018088Y0018
X019612
X007715Y003263
X004728Y00633
X003712
X000419Y0099
X001181
X00118Y010469
X004047Y010208
X004677
X007467Y010288
X00765Y00962
Y007969
X014649Y009775
X0163
X01745
X019101
X007467Y011812
X004677Y011732
X004047
X00118Y011231
T10
X013281Y004563
Y006087
X012519Y005325
T11
X01308Y-000985
X01139
X007572Y-001034
Y-001288
X006953
Y-001034
X01139Y-000235
X01308
X019295Y00355
X020045
X006248Y005288
X005994
X00574
X005486
X005232
X004978
T12
X01134Y00096
X01194Y00238
X01244
X01074
X01364
X01304Y00096
X017178Y00518
X017686
X018194
X018702
X01989Y005815
X016162Y00518
X015654
X015146
X014638
X013275Y006903
X00371Y007009
X00244
Y007517
Y008025
Y008533
Y009041
X00371
Y008533
Y007517
X003593Y01053
X002267
X005135
X00646
X013275Y00965
X014638Y008736
X015146
X015654
X014651Y010625
X017399
X017686Y008736
X018194
X018702
X01989Y008065
X018599Y0118
X015851
X00646Y01153
X005135
X003593
X002267
T13
X00386Y005075
X00421
X00456
X00063Y00674
X00028
X00042Y010605
Y010955
T14
X011875Y00633
Y006875
X008077Y010298
Y010806
X011875Y009875
Y00933
Y008785
X011875Y00742
X008077Y011314
Y011822
T15
X010595Y00799
X011865
T16
X0141Y00036
Y00086
X0158
Y00036
X01699Y-00042
X01749
X01899
X01949
Y00128
X01899
X01749
X01699
T17
X01075Y00305
X01145
X01245
X01315
Y00355
X01245
X01145
X01075
T18
X01385Y005725
X01203Y005335
T19
X010675Y0107
X013275Y010675
X013025Y011675
X010425Y0117
T20
X01719Y004234
X0183
X01609
X01498
T21
X02Y-001
X0085
X0005
X02Y012
X009
X0005
T22
X009845Y006875
X009845Y00947
M30
